<?xml version="1.0" encoding="UTF-8" standalone="no"?>
<!DOCTYPE svg PUBLIC "-//W3C//DTD SVG 1.1//EN"
 "http://www.w3.org/Graphics/SVG/1.1/DTD/svg11.dtd">
<!-- Generated by graphviz version 2.47.3 (20210619.1520)
 -->
<!-- Title: dependencies Pages: 1 -->
<svg width="856pt" height="247pt"
 viewBox="0.00 0.00 856.00 246.80" xmlns="http://www.w3.org/2000/svg" xmlns:xlink="http://www.w3.org/1999/xlink">
<g id="graph0" class="graph" transform="scale(1 1) rotate(0) translate(4 242.8)">
<title>dependencies</title>
<polygon fill="white" stroke="transparent" points="-4,4 -4,-242.8 852,-242.8 852,4 -4,4"/>
<text text-anchor="middle" x="424" y="-8.2" font-family="sans-serif" font-size="14.00">dependencies</text>
<g id="clust1" class="cluster">
<title>cluster_UserModule</title>
<polygon fill="none" stroke="black" stroke-dasharray="1,5" points="8,-32.8 8,-230.8 840,-230.8 840,-32.8 8,-32.8"/>
</g>
<g id="clust6" class="cluster">
<title>cluster_UserModule_providers</title>
<polygon fill="none" stroke="black" points="16,-40.8 16,-92.8 832,-92.8 832,-40.8 16,-40.8"/>
</g>
<g id="clust4" class="cluster">
<title>cluster_UserModule_exports</title>
<polygon fill="none" stroke="black" points="367,-170.8 367,-222.8 469,-222.8 469,-170.8 367,-170.8"/>
</g>
<!-- UserFacade  -->
<g id="node1" class="node">
<title>UserFacade </title>
<polygon fill="#fb8072" stroke="black" points="460.57,-214.8 375.43,-214.8 375.43,-178.8 460.57,-178.8 460.57,-214.8"/>
<text text-anchor="middle" x="418" y="-192.6" font-family="Times,serif" font-size="14.00">UserFacade </text>
</g>
<!-- UserModule -->
<g id="node2" class="node">
<title>UserModule</title>
<polygon fill="#8dd3c7" stroke="black" points="460.98,-149.8 457.98,-153.8 436.98,-153.8 433.98,-149.8 375.02,-149.8 375.02,-113.8 460.98,-113.8 460.98,-149.8"/>
<text text-anchor="middle" x="418" y="-127.6" font-family="Times,serif" font-size="14.00">UserModule</text>
</g>
<!-- UserModule&#45;&gt;UserFacade  -->
<g id="edge1" class="edge">
<title>UserModule&#45;&gt;UserFacade </title>
<path fill="none" stroke="black" stroke-dasharray="5,2" d="M418,-149.91C418,-149.91 418,-168.79 418,-168.79"/>
<polygon fill="black" stroke="black" points="414.5,-168.79 418,-178.79 421.5,-168.79 414.5,-168.79"/>
</g>
<!-- GroupRepo -->
<g id="node3" class="node">
<title>GroupRepo</title>
<ellipse fill="#fdb462" stroke="black" cx="768" cy="-66.8" rx="56.18" ry="18"/>
<text text-anchor="middle" x="768" y="-62.6" font-family="Times,serif" font-size="14.00">GroupRepo</text>
</g>
<!-- GroupRepo&#45;&gt;UserModule -->
<g id="edge2" class="edge">
<title>GroupRepo&#45;&gt;UserModule</title>
<path fill="none" stroke="black" d="M768,-85.09C768,-107.01 768,-140.8 768,-140.8 768,-140.8 471.27,-140.8 471.27,-140.8"/>
<polygon fill="black" stroke="black" points="471.27,-137.3 461.27,-140.8 471.27,-144.3 471.27,-137.3"/>
</g>
<!-- GroupUC -->
<g id="node4" class="node">
<title>GroupUC</title>
<ellipse fill="#fdb462" stroke="black" cx="645" cy="-66.8" rx="49.24" ry="18"/>
<text text-anchor="middle" x="645" y="-62.6" font-family="Times,serif" font-size="14.00">GroupUC</text>
</g>
<!-- GroupUC&#45;&gt;UserModule -->
<g id="edge3" class="edge">
<title>GroupUC&#45;&gt;UserModule</title>
<path fill="none" stroke="black" d="M645,-84.91C645,-104.14 645,-131.8 645,-131.8 645,-131.8 471.23,-131.8 471.23,-131.8"/>
<polygon fill="black" stroke="black" points="471.23,-128.3 461.23,-131.8 471.23,-135.3 471.23,-128.3"/>
</g>
<!-- RoleRepo -->
<g id="node5" class="node">
<title>RoleRepo</title>
<ellipse fill="#fdb462" stroke="black" cx="528" cy="-66.8" rx="49.82" ry="18"/>
<text text-anchor="middle" x="528" y="-62.6" font-family="Times,serif" font-size="14.00">RoleRepo</text>
</g>
<!-- RoleRepo&#45;&gt;UserModule -->
<g id="edge4" class="edge">
<title>RoleRepo&#45;&gt;UserModule</title>
<path fill="none" stroke="black" d="M528,-84.83C528,-101.2 528,-122.8 528,-122.8 528,-122.8 471.16,-122.8 471.16,-122.8"/>
<polygon fill="black" stroke="black" points="471.16,-119.3 461.16,-122.8 471.16,-126.3 471.16,-119.3"/>
</g>
<!-- RoleUC -->
<g id="node6" class="node">
<title>RoleUC</title>
<ellipse fill="#fdb462" stroke="black" cx="418" cy="-66.8" rx="42.88" ry="18"/>
<text text-anchor="middle" x="418" y="-62.6" font-family="Times,serif" font-size="14.00">RoleUC</text>
</g>
<!-- RoleUC&#45;&gt;UserModule -->
<g id="edge5" class="edge">
<title>RoleUC&#45;&gt;UserModule</title>
<path fill="none" stroke="black" d="M418,-84.91C418,-84.91 418,-103.79 418,-103.79"/>
<polygon fill="black" stroke="black" points="414.5,-103.79 418,-113.79 421.5,-103.79 414.5,-103.79"/>
</g>
<!-- UserFacade -->
<g id="node7" class="node">
<title>UserFacade</title>
<ellipse fill="#fdb462" stroke="black" cx="301" cy="-66.8" rx="56.72" ry="18"/>
<text text-anchor="middle" x="301" y="-62.6" font-family="Times,serif" font-size="14.00">UserFacade</text>
</g>
<!-- UserFacade&#45;&gt;UserModule -->
<g id="edge6" class="edge">
<title>UserFacade&#45;&gt;UserModule</title>
<path fill="none" stroke="black" d="M301,-84.83C301,-101.2 301,-122.8 301,-122.8 301,-122.8 364.77,-122.8 364.77,-122.8"/>
<polygon fill="black" stroke="black" points="364.77,-126.3 374.77,-122.8 364.77,-119.3 364.77,-126.3"/>
</g>
<!-- UserRepo -->
<g id="node8" class="node">
<title>UserRepo</title>
<ellipse fill="#fdb462" stroke="black" cx="177" cy="-66.8" rx="49.8" ry="18"/>
<text text-anchor="middle" x="177" y="-62.6" font-family="Times,serif" font-size="14.00">UserRepo</text>
</g>
<!-- UserRepo&#45;&gt;UserModule -->
<g id="edge7" class="edge">
<title>UserRepo&#45;&gt;UserModule</title>
<path fill="none" stroke="black" d="M177,-84.91C177,-104.14 177,-131.8 177,-131.8 177,-131.8 364.91,-131.8 364.91,-131.8"/>
<polygon fill="black" stroke="black" points="364.91,-135.3 374.91,-131.8 364.91,-128.3 364.91,-135.3"/>
</g>
<!-- UserUC -->
<g id="node9" class="node">
<title>UserUC</title>
<ellipse fill="#fdb462" stroke="black" cx="67" cy="-66.8" rx="42.85" ry="18"/>
<text text-anchor="middle" x="67" y="-62.6" font-family="Times,serif" font-size="14.00">UserUC</text>
</g>
<!-- UserUC&#45;&gt;UserModule -->
<g id="edge8" class="edge">
<title>UserUC&#45;&gt;UserModule</title>
<path fill="none" stroke="black" d="M67,-85.09C67,-107.01 67,-140.8 67,-140.8 67,-140.8 364.96,-140.8 364.96,-140.8"/>
<polygon fill="black" stroke="black" points="364.96,-144.3 374.96,-140.8 364.96,-137.3 364.96,-144.3"/>
</g>
</g>
</svg>
