<?xml version="1.0" encoding="UTF-8" standalone="no"?>
<!DOCTYPE svg PUBLIC "-//W3C//DTD SVG 1.1//EN"
 "http://www.w3.org/Graphics/SVG/1.1/DTD/svg11.dtd">
<!-- Generated by graphviz version 2.47.0 (20210316.0004)
 -->
<!-- Title: dependencies Pages: 1 -->
<svg width="610pt" height="284pt"
 viewBox="0.00 0.00 610.00 284.00" xmlns="http://www.w3.org/2000/svg" xmlns:xlink="http://www.w3.org/1999/xlink">
<g id="graph0" class="graph" transform="scale(1 1) rotate(0) translate(4 280)">
<title>dependencies</title>
<polygon fill="white" stroke="transparent" points="-4,4 -4,-280 606,-280 606,4 -4,4"/>
<text text-anchor="start" x="280.01" y="-42.4" font-family="sans-serif" font-weight="bold" font-size="14.00">Legend</text>
<polygon fill="#ffffb3" stroke="transparent" points="67,-10 67,-30 87,-30 87,-10 67,-10"/>
<text text-anchor="start" x="90.63" y="-15.4" font-family="sans-serif" font-size="14.00"> &#160;Declarations</text>
<polygon fill="#8dd3c7" stroke="transparent" points="180,-10 180,-30 200,-30 200,-10 180,-10"/>
<text text-anchor="start" x="203.73" y="-15.4" font-family="sans-serif" font-size="14.00"> &#160;Module</text>
<polygon fill="#80b1d3" stroke="transparent" points="266,-10 266,-30 286,-30 286,-10 266,-10"/>
<text text-anchor="start" x="289.78" y="-15.4" font-family="sans-serif" font-size="14.00"> &#160;Bootstrap</text>
<polygon fill="#fdb462" stroke="transparent" points="363,-10 363,-30 383,-30 383,-10 363,-10"/>
<text text-anchor="start" x="386.67" y="-15.4" font-family="sans-serif" font-size="14.00"> &#160;Providers</text>
<polygon fill="#fb8072" stroke="transparent" points="459,-10 459,-30 479,-30 479,-10 459,-10"/>
<text text-anchor="start" x="482.73" y="-15.4" font-family="sans-serif" font-size="14.00"> &#160;Exports</text>
<g id="clust1" class="cluster">
<title>cluster_UserModule</title>
<polygon fill="none" stroke="black" stroke-dasharray="1,5" points="8,-70 8,-268 594,-268 594,-70 8,-70"/>
</g>
<g id="clust6" class="cluster">
<title>cluster_UserModule_providers</title>
<polygon fill="none" stroke="black" points="16,-78 16,-130 586,-130 586,-78 16,-78"/>
</g>
<g id="clust4" class="cluster">
<title>cluster_UserModule_exports</title>
<polygon fill="none" stroke="black" points="250,-208 250,-260 352,-260 352,-208 250,-208"/>
</g>
<!-- UserFacade  -->
<g id="node1" class="node">
<title>UserFacade </title>
<polygon fill="#fb8072" stroke="black" points="343.57,-252 258.43,-252 258.43,-216 343.57,-216 343.57,-252"/>
<text text-anchor="middle" x="301" y="-229.8" font-family="Times,serif" font-size="14.00">UserFacade </text>
</g>
<!-- UserModule -->
<g id="node2" class="node">
<title>UserModule</title>
<polygon fill="#8dd3c7" stroke="black" points="343.98,-187 340.98,-191 319.98,-191 316.98,-187 258.02,-187 258.02,-151 343.98,-151 343.98,-187"/>
<text text-anchor="middle" x="301" y="-164.8" font-family="Times,serif" font-size="14.00">UserModule</text>
</g>
<!-- UserModule&#45;&gt;UserFacade  -->
<g id="edge1" class="edge">
<title>UserModule&#45;&gt;UserFacade </title>
<path fill="none" stroke="black" stroke-dasharray="5,2" d="M301,-187.11C301,-187.11 301,-205.99 301,-205.99"/>
<polygon fill="black" stroke="black" points="297.5,-205.99 301,-215.99 304.5,-205.99 297.5,-205.99"/>
</g>
<!-- RoleRepo -->
<g id="node3" class="node">
<title>RoleRepo</title>
<ellipse fill="#fdb462" stroke="black" cx="528" cy="-104" rx="49.82" ry="18"/>
<text text-anchor="middle" x="528" y="-99.8" font-family="Times,serif" font-size="14.00">RoleRepo</text>
</g>
<!-- RoleRepo&#45;&gt;UserModule -->
<g id="edge2" class="edge">
<title>RoleRepo&#45;&gt;UserModule</title>
<path fill="none" stroke="black" d="M528,-122.28C528,-143.32 528,-175 528,-175 528,-175 354.23,-175 354.23,-175"/>
<polygon fill="black" stroke="black" points="354.23,-171.5 344.23,-175 354.23,-178.5 354.23,-171.5"/>
</g>
<!-- RoleUC -->
<g id="node4" class="node">
<title>RoleUC</title>
<ellipse fill="#fdb462" stroke="black" cx="418" cy="-104" rx="42.88" ry="18"/>
<text text-anchor="middle" x="418" y="-99.8" font-family="Times,serif" font-size="14.00">RoleUC</text>
</g>
<!-- RoleUC&#45;&gt;UserModule -->
<g id="edge3" class="edge">
<title>RoleUC&#45;&gt;UserModule</title>
<path fill="none" stroke="black" d="M418,-122.02C418,-139.37 418,-163 418,-163 418,-163 354.23,-163 354.23,-163"/>
<polygon fill="black" stroke="black" points="354.23,-159.5 344.23,-163 354.23,-166.5 354.23,-159.5"/>
</g>
<!-- UserFacade -->
<g id="node5" class="node">
<title>UserFacade</title>
<ellipse fill="#fdb462" stroke="black" cx="301" cy="-104" rx="56.72" ry="18"/>
<text text-anchor="middle" x="301" y="-99.8" font-family="Times,serif" font-size="14.00">UserFacade</text>
</g>
<!-- UserFacade&#45;&gt;UserModule -->
<g id="edge4" class="edge">
<title>UserFacade&#45;&gt;UserModule</title>
<path fill="none" stroke="black" d="M301,-122.11C301,-122.11 301,-140.99 301,-140.99"/>
<polygon fill="black" stroke="black" points="297.5,-140.99 301,-150.99 304.5,-140.99 297.5,-140.99"/>
</g>
<!-- UserRepo -->
<g id="node6" class="node">
<title>UserRepo</title>
<ellipse fill="#fdb462" stroke="black" cx="177" cy="-104" rx="49.8" ry="18"/>
<text text-anchor="middle" x="177" y="-99.8" font-family="Times,serif" font-size="14.00">UserRepo</text>
</g>
<!-- UserRepo&#45;&gt;UserModule -->
<g id="edge5" class="edge">
<title>UserRepo&#45;&gt;UserModule</title>
<path fill="none" stroke="black" d="M177,-122.02C177,-139.37 177,-163 177,-163 177,-163 247.98,-163 247.98,-163"/>
<polygon fill="black" stroke="black" points="247.98,-166.5 257.98,-163 247.98,-159.5 247.98,-166.5"/>
</g>
<!-- UserUC -->
<g id="node7" class="node">
<title>UserUC</title>
<ellipse fill="#fdb462" stroke="black" cx="67" cy="-104" rx="42.85" ry="18"/>
<text text-anchor="middle" x="67" y="-99.8" font-family="Times,serif" font-size="14.00">UserUC</text>
</g>
<!-- UserUC&#45;&gt;UserModule -->
<g id="edge6" class="edge">
<title>UserUC&#45;&gt;UserModule</title>
<path fill="none" stroke="black" d="M67,-122.28C67,-143.32 67,-175 67,-175 67,-175 247.81,-175 247.81,-175"/>
<polygon fill="black" stroke="black" points="247.81,-178.5 257.81,-175 247.81,-171.5 247.81,-178.5"/>
</g>
</g>
</svg>
