<?xml version="1.0" encoding="UTF-8" standalone="no"?>
<!DOCTYPE svg PUBLIC "-//W3C//DTD SVG 1.1//EN"
 "http://www.w3.org/Graphics/SVG/1.1/DTD/svg11.dtd">
<!-- Generated by graphviz version 2.47.3 (20210619.1520)
 -->
<!-- Title: dependencies Pages: 1 -->
<svg width="610pt" height="247pt"
 viewBox="0.00 0.00 610.00 246.80" xmlns="http://www.w3.org/2000/svg" xmlns:xlink="http://www.w3.org/1999/xlink">
<g id="graph0" class="graph" transform="scale(1 1) rotate(0) translate(4 242.8)">
<title>dependencies</title>
<polygon fill="white" stroke="transparent" points="-4,4 -4,-242.8 606,-242.8 606,4 -4,4"/>
<text text-anchor="middle" x="301" y="-8.2" font-family="sans-serif" font-size="14.00">dependencies</text>
<g id="clust1" class="cluster">
<title>cluster_UserModule</title>
<polygon fill="none" stroke="black" stroke-dasharray="1,5" points="8,-32.8 8,-230.8 594,-230.8 594,-32.8 8,-32.8"/>
</g>
<g id="clust4" class="cluster">
<title>cluster_UserModule_exports</title>
<polygon fill="none" stroke="black" points="250,-170.8 250,-222.8 352,-222.8 352,-170.8 250,-170.8"/>
</g>
<g id="clust6" class="cluster">
<title>cluster_UserModule_providers</title>
<polygon fill="none" stroke="black" points="16,-40.8 16,-92.8 586,-92.8 586,-40.8 16,-40.8"/>
</g>
<!-- UserFacade  -->
<g id="node1" class="node">
<title>UserFacade </title>
<polygon fill="#fb8072" stroke="black" points="343.57,-214.8 258.43,-214.8 258.43,-178.8 343.57,-178.8 343.57,-214.8"/>
<text text-anchor="middle" x="301" y="-192.6" font-family="Times,serif" font-size="14.00">UserFacade </text>
</g>
<!-- UserModule -->
<g id="node2" class="node">
<title>UserModule</title>
<polygon fill="#8dd3c7" stroke="black" points="343.98,-149.8 340.98,-153.8 319.98,-153.8 316.98,-149.8 258.02,-149.8 258.02,-113.8 343.98,-113.8 343.98,-149.8"/>
<text text-anchor="middle" x="301" y="-127.6" font-family="Times,serif" font-size="14.00">UserModule</text>
</g>
<!-- UserModule&#45;&gt;UserFacade  -->
<g id="edge1" class="edge">
<title>UserModule&#45;&gt;UserFacade </title>
<path fill="none" stroke="black" stroke-dasharray="5,2" d="M301,-149.91C301,-149.91 301,-168.79 301,-168.79"/>
<polygon fill="black" stroke="black" points="297.5,-168.79 301,-178.79 304.5,-168.79 297.5,-168.79"/>
</g>
<!-- RoleRepo -->
<g id="node3" class="node">
<title>RoleRepo</title>
<ellipse fill="#fdb462" stroke="black" cx="528" cy="-66.8" rx="49.82" ry="18"/>
<text text-anchor="middle" x="528" y="-62.6" font-family="Times,serif" font-size="14.00">RoleRepo</text>
</g>
<!-- RoleRepo&#45;&gt;UserModule -->
<g id="edge2" class="edge">
<title>RoleRepo&#45;&gt;UserModule</title>
<path fill="none" stroke="black" d="M528,-85.08C528,-106.12 528,-137.8 528,-137.8 528,-137.8 354.23,-137.8 354.23,-137.8"/>
<polygon fill="black" stroke="black" points="354.23,-134.3 344.23,-137.8 354.23,-141.3 354.23,-134.3"/>
</g>
<!-- RoleUC -->
<g id="node4" class="node">
<title>RoleUC</title>
<ellipse fill="#fdb462" stroke="black" cx="418" cy="-66.8" rx="42.88" ry="18"/>
<text text-anchor="middle" x="418" y="-62.6" font-family="Times,serif" font-size="14.00">RoleUC</text>
</g>
<!-- RoleUC&#45;&gt;UserModule -->
<g id="edge3" class="edge">
<title>RoleUC&#45;&gt;UserModule</title>
<path fill="none" stroke="black" d="M418,-84.82C418,-102.17 418,-125.8 418,-125.8 418,-125.8 354.23,-125.8 354.23,-125.8"/>
<polygon fill="black" stroke="black" points="354.23,-122.3 344.23,-125.8 354.23,-129.3 354.23,-122.3"/>
</g>
<!-- UserFacade -->
<g id="node5" class="node">
<title>UserFacade</title>
<ellipse fill="#fdb462" stroke="black" cx="301" cy="-66.8" rx="56.72" ry="18"/>
<text text-anchor="middle" x="301" y="-62.6" font-family="Times,serif" font-size="14.00">UserFacade</text>
</g>
<!-- UserFacade&#45;&gt;UserModule -->
<g id="edge4" class="edge">
<title>UserFacade&#45;&gt;UserModule</title>
<path fill="none" stroke="black" d="M301,-84.91C301,-84.91 301,-103.79 301,-103.79"/>
<polygon fill="black" stroke="black" points="297.5,-103.79 301,-113.79 304.5,-103.79 297.5,-103.79"/>
</g>
<!-- UserRepo -->
<g id="node6" class="node">
<title>UserRepo</title>
<ellipse fill="#fdb462" stroke="black" cx="177" cy="-66.8" rx="49.8" ry="18"/>
<text text-anchor="middle" x="177" y="-62.6" font-family="Times,serif" font-size="14.00">UserRepo</text>
</g>
<!-- UserRepo&#45;&gt;UserModule -->
<g id="edge5" class="edge">
<title>UserRepo&#45;&gt;UserModule</title>
<path fill="none" stroke="black" d="M177,-84.82C177,-102.17 177,-125.8 177,-125.8 177,-125.8 247.98,-125.8 247.98,-125.8"/>
<polygon fill="black" stroke="black" points="247.98,-129.3 257.98,-125.8 247.98,-122.3 247.98,-129.3"/>
</g>
<!-- UserUC -->
<g id="node7" class="node">
<title>UserUC</title>
<ellipse fill="#fdb462" stroke="black" cx="67" cy="-66.8" rx="42.85" ry="18"/>
<text text-anchor="middle" x="67" y="-62.6" font-family="Times,serif" font-size="14.00">UserUC</text>
</g>
<!-- UserUC&#45;&gt;UserModule -->
<g id="edge6" class="edge">
<title>UserUC&#45;&gt;UserModule</title>
<path fill="none" stroke="black" d="M67,-85.08C67,-106.12 67,-137.8 67,-137.8 67,-137.8 247.81,-137.8 247.81,-137.8"/>
<polygon fill="black" stroke="black" points="247.81,-141.3 257.81,-137.8 247.81,-134.3 247.81,-141.3"/>
</g>
</g>
</svg>
