<?xml version="1.0" encoding="UTF-8" standalone="no"?>
<!DOCTYPE svg PUBLIC "-//W3C//DTD SVG 1.1//EN"
 "http://www.w3.org/Graphics/SVG/1.1/DTD/svg11.dtd">
<!-- Generated by graphviz version 2.47.0 (20210316.0004)
 -->
<!-- Title: dependencies Pages: 1 -->
<svg width="507pt" height="284pt"
 viewBox="0.00 0.00 507.00 284.00" xmlns="http://www.w3.org/2000/svg" xmlns:xlink="http://www.w3.org/1999/xlink">
<g id="graph0" class="graph" transform="scale(1 1) rotate(0) translate(4 280)">
<title>dependencies</title>
<polygon fill="white" stroke="transparent" points="-4,4 -4,-280 503,-280 503,4 -4,4"/>
<text text-anchor="start" x="228.51" y="-42.4" font-family="sans-serif" font-weight="bold" font-size="14.00">Legend</text>
<polygon fill="#ffffb3" stroke="transparent" points="15.5,-10 15.5,-30 35.5,-30 35.5,-10 15.5,-10"/>
<text text-anchor="start" x="39.13" y="-15.4" font-family="sans-serif" font-size="14.00"> &#160;Declarations</text>
<polygon fill="#8dd3c7" stroke="transparent" points="128.5,-10 128.5,-30 148.5,-30 148.5,-10 128.5,-10"/>
<text text-anchor="start" x="152.23" y="-15.4" font-family="sans-serif" font-size="14.00"> &#160;Module</text>
<polygon fill="#80b1d3" stroke="transparent" points="214.5,-10 214.5,-30 234.5,-30 234.5,-10 214.5,-10"/>
<text text-anchor="start" x="238.28" y="-15.4" font-family="sans-serif" font-size="14.00"> &#160;Bootstrap</text>
<polygon fill="#fdb462" stroke="transparent" points="311.5,-10 311.5,-30 331.5,-30 331.5,-10 311.5,-10"/>
<text text-anchor="start" x="335.17" y="-15.4" font-family="sans-serif" font-size="14.00"> &#160;Providers</text>
<polygon fill="#fb8072" stroke="transparent" points="407.5,-10 407.5,-30 427.5,-30 427.5,-10 407.5,-10"/>
<text text-anchor="start" x="431.23" y="-15.4" font-family="sans-serif" font-size="14.00"> &#160;Exports</text>
<g id="clust1" class="cluster">
<title>cluster_UserModule</title>
<polygon fill="none" stroke="black" stroke-dasharray="1,5" points="8,-70 8,-268 491,-268 491,-70 8,-70"/>
</g>
<g id="clust4" class="cluster">
<title>cluster_UserModule_exports</title>
<polygon fill="none" stroke="black" points="188,-208 188,-260 290,-260 290,-208 188,-208"/>
</g>
<g id="clust6" class="cluster">
<title>cluster_UserModule_providers</title>
<polygon fill="none" stroke="black" points="16,-78 16,-130 483,-130 483,-78 16,-78"/>
</g>
<!-- UserFacade  -->
<g id="node1" class="node">
<title>UserFacade </title>
<polygon fill="#fb8072" stroke="black" points="281.57,-252 196.43,-252 196.43,-216 281.57,-216 281.57,-252"/>
<text text-anchor="middle" x="239" y="-229.8" font-family="Times,serif" font-size="14.00">UserFacade </text>
</g>
<!-- UserModule -->
<g id="node2" class="node">
<title>UserModule</title>
<polygon fill="#8dd3c7" stroke="black" points="281.98,-187 278.98,-191 257.98,-191 254.98,-187 196.02,-187 196.02,-151 281.98,-151 281.98,-187"/>
<text text-anchor="middle" x="239" y="-164.8" font-family="Times,serif" font-size="14.00">UserModule</text>
</g>
<!-- UserModule&#45;&gt;UserFacade  -->
<g id="edge1" class="edge">
<title>UserModule&#45;&gt;UserFacade </title>
<path fill="none" stroke="black" stroke-dasharray="5,2" d="M239,-187.11C239,-187.11 239,-205.99 239,-205.99"/>
<polygon fill="black" stroke="black" points="235.5,-205.99 239,-215.99 242.5,-205.99 235.5,-205.99"/>
</g>
<!-- RoleRepo -->
<g id="node3" class="node">
<title>RoleRepo</title>
<ellipse fill="#fdb462" stroke="black" cx="425" cy="-104" rx="49.82" ry="18"/>
<text text-anchor="middle" x="425" y="-99.8" font-family="Times,serif" font-size="14.00">RoleRepo</text>
</g>
<!-- RoleRepo&#45;&gt;UserModule -->
<g id="edge2" class="edge">
<title>RoleRepo&#45;&gt;UserModule</title>
<path fill="none" stroke="black" d="M425,-122.11C425,-141.34 425,-169 425,-169 425,-169 292.14,-169 292.14,-169"/>
<polygon fill="black" stroke="black" points="292.14,-165.5 282.14,-169 292.14,-172.5 292.14,-165.5"/>
</g>
<!-- UserFacade -->
<g id="node4" class="node">
<title>UserFacade</title>
<ellipse fill="#fdb462" stroke="black" cx="301" cy="-104" rx="56.72" ry="18"/>
<text text-anchor="middle" x="301" y="-99.8" font-family="Times,serif" font-size="14.00">UserFacade</text>
</g>
<!-- UserFacade&#45;&gt;UserModule -->
<g id="edge3" class="edge">
<title>UserFacade&#45;&gt;UserModule</title>
<path fill="none" stroke="black" d="M263.19,-117.47C263.19,-117.47 263.19,-140.86 263.19,-140.86"/>
<polygon fill="black" stroke="black" points="259.69,-140.86 263.19,-150.86 266.69,-140.86 259.69,-140.86"/>
</g>
<!-- UserRepo -->
<g id="node5" class="node">
<title>UserRepo</title>
<ellipse fill="#fdb462" stroke="black" cx="177" cy="-104" rx="49.8" ry="18"/>
<text text-anchor="middle" x="177" y="-99.8" font-family="Times,serif" font-size="14.00">UserRepo</text>
</g>
<!-- UserRepo&#45;&gt;UserModule -->
<g id="edge4" class="edge">
<title>UserRepo&#45;&gt;UserModule</title>
<path fill="none" stroke="black" d="M211.33,-117.15C211.33,-117.15 211.33,-140.69 211.33,-140.69"/>
<polygon fill="black" stroke="black" points="207.83,-140.69 211.33,-150.69 214.83,-140.69 207.83,-140.69"/>
</g>
<!-- UserUC -->
<g id="node6" class="node">
<title>UserUC</title>
<ellipse fill="#fdb462" stroke="black" cx="67" cy="-104" rx="42.85" ry="18"/>
<text text-anchor="middle" x="67" y="-99.8" font-family="Times,serif" font-size="14.00">UserUC</text>
</g>
<!-- UserUC&#45;&gt;UserModule -->
<g id="edge5" class="edge">
<title>UserUC&#45;&gt;UserModule</title>
<path fill="none" stroke="black" d="M67,-122.11C67,-141.34 67,-169 67,-169 67,-169 185.6,-169 185.6,-169"/>
<polygon fill="black" stroke="black" points="185.6,-172.5 195.6,-169 185.6,-165.5 185.6,-172.5"/>
</g>
</g>
</svg>
