<?xml version="1.0" encoding="UTF-8" standalone="no"?>
<!DOCTYPE svg PUBLIC "-//W3C//DTD SVG 1.1//EN"
 "http://www.w3.org/Graphics/SVG/1.1/DTD/svg11.dtd">
<!-- Generated by graphviz version 2.47.0 (20210316.0004)
 -->
<!-- Title: dependencies Pages: 1 -->
<svg width="1850pt" height="366pt"
 viewBox="0.00 0.00 1850.00 366.00" xmlns="http://www.w3.org/2000/svg" xmlns:xlink="http://www.w3.org/1999/xlink">
<g id="graph0" class="graph" transform="scale(1 1) rotate(0) translate(4 362)">
<title>dependencies</title>
<polygon fill="white" stroke="transparent" points="-4,4 -4,-362 1846,-362 1846,4 -4,4"/>
<text text-anchor="start" x="900.01" y="-42.4" font-family="sans-serif" font-weight="bold" font-size="14.00">Legend</text>
<polygon fill="#ffffb3" stroke="transparent" points="687,-10 687,-30 707,-30 707,-10 687,-10"/>
<text text-anchor="start" x="710.63" y="-15.4" font-family="sans-serif" font-size="14.00"> &#160;Declarations</text>
<polygon fill="#8dd3c7" stroke="transparent" points="800,-10 800,-30 820,-30 820,-10 800,-10"/>
<text text-anchor="start" x="823.73" y="-15.4" font-family="sans-serif" font-size="14.00"> &#160;Module</text>
<polygon fill="#80b1d3" stroke="transparent" points="886,-10 886,-30 906,-30 906,-10 886,-10"/>
<text text-anchor="start" x="909.78" y="-15.4" font-family="sans-serif" font-size="14.00"> &#160;Bootstrap</text>
<polygon fill="#fdb462" stroke="transparent" points="983,-10 983,-30 1003,-30 1003,-10 983,-10"/>
<text text-anchor="start" x="1006.67" y="-15.4" font-family="sans-serif" font-size="14.00"> &#160;Providers</text>
<polygon fill="#fb8072" stroke="transparent" points="1079,-10 1079,-30 1099,-30 1099,-10 1079,-10"/>
<text text-anchor="start" x="1102.73" y="-15.4" font-family="sans-serif" font-size="14.00"> &#160;Exports</text>
<g id="clust1" class="cluster">
<title>cluster_AuthModule</title>
<polygon fill="none" stroke="black" stroke-dasharray="1,5" points="8,-138 8,-350 554,-350 554,-138 8,-138"/>
</g>
<g id="clust3" class="cluster">
<title>cluster_AuthModule_imports</title>
<polygon fill="none" stroke="black" points="438,-146 438,-198 546,-198 546,-146 438,-146"/>
</g>
<g id="clust4" class="cluster">
<title>cluster_AuthModule_exports</title>
<polygon fill="none" stroke="black" points="310,-290 310,-342 416,-342 416,-290 310,-290"/>
</g>
<g id="clust6" class="cluster">
<title>cluster_AuthModule_providers</title>
<polygon fill="none" stroke="black" points="16,-146 16,-198 430,-198 430,-146 16,-146"/>
</g>
<g id="clust7" class="cluster">
<title>cluster_AuthorizationModule</title>
<polygon fill="none" stroke="black" stroke-dasharray="1,5" points="1384,-70 1384,-282 1834,-282 1834,-70 1384,-70"/>
</g>
<g id="clust10" class="cluster">
<title>cluster_AuthorizationModule_exports</title>
<polygon fill="none" stroke="black" points="1428,-222 1428,-274 1584,-274 1584,-222 1428,-222"/>
</g>
<g id="clust12" class="cluster">
<title>cluster_AuthorizationModule_providers</title>
<polygon fill="none" stroke="black" points="1392,-78 1392,-130 1826,-130 1826,-78 1392,-78"/>
</g>
<g id="clust13" class="cluster">
<title>cluster_NewsModule</title>
<polygon fill="none" stroke="black" stroke-dasharray="1,5" points="1131,-138 1131,-350 1376,-350 1376,-138 1131,-138"/>
</g>
<g id="clust16" class="cluster">
<title>cluster_NewsModule_exports</title>
<polygon fill="none" stroke="black" points="1207,-290 1207,-342 1291,-342 1291,-290 1207,-290"/>
</g>
<g id="clust18" class="cluster">
<title>cluster_NewsModule_providers</title>
<polygon fill="none" stroke="black" points="1139,-146 1139,-198 1368,-198 1368,-146 1139,-146"/>
</g>
<g id="clust19" class="cluster">
<title>cluster_ServerModule</title>
<polygon fill="none" stroke="black" stroke-dasharray="1,5" points="844,-214 844,-342 1116,-342 1116,-214 844,-214"/>
</g>
<g id="clust21" class="cluster">
<title>cluster_ServerModule_imports</title>
<polygon fill="none" stroke="black" points="1006,-222 1006,-274 1108,-274 1108,-222 1006,-222"/>
</g>
<g id="clust24" class="cluster">
<title>cluster_ServerModule_providers</title>
<polygon fill="none" stroke="black" points="852,-222 852,-274 998,-274 998,-222 852,-222"/>
</g>
<g id="clust25" class="cluster">
<title>cluster_TaskModule</title>
<polygon fill="none" stroke="black" stroke-dasharray="1,5" points="887,-138 887,-206 1123,-206 1123,-138 887,-138"/>
</g>
<g id="clust30" class="cluster">
<title>cluster_TaskModule_providers</title>
<polygon fill="none" stroke="black" points="895,-146 895,-198 1115,-198 1115,-146 895,-146"/>
</g>
<g id="clust31" class="cluster">
<title>cluster_UsersModule</title>
<polygon fill="none" stroke="black" stroke-dasharray="1,5" points="562,-214 562,-282 836,-282 836,-214 562,-214"/>
</g>
<g id="clust34" class="cluster">
<title>cluster_UsersModule_exports</title>
<polygon fill="none" stroke="black" points="718,-222 718,-274 828,-274 828,-222 718,-222"/>
</g>
<g id="clust36" class="cluster">
<title>cluster_UsersModule_providers</title>
<polygon fill="none" stroke="black" points="570,-222 570,-274 710,-274 710,-222 570,-222"/>
</g>
<!-- UsersModule -->
<g id="node1" class="node">
<title>UsersModule</title>
<polygon fill="#8dd3c7" stroke="black" points="537.92,-190 534.92,-194 513.92,-194 510.92,-190 446.08,-190 446.08,-154 537.92,-154 537.92,-190"/>
<text text-anchor="middle" x="492" y="-167.8" font-family="Times,serif" font-size="14.00">UsersModule</text>
</g>
<!-- AuthModule -->
<g id="node2" class="node">
<title>AuthModule</title>
<polygon fill="#8dd3c7" stroke="black" points="406.55,-266 403.55,-270 382.55,-270 379.55,-266 319.45,-266 319.45,-230 406.55,-230 406.55,-266"/>
<text text-anchor="middle" x="363" y="-243.8" font-family="Times,serif" font-size="14.00">AuthModule</text>
</g>
<!-- UsersModule&#45;&gt;AuthModule -->
<g id="edge1" class="edge">
<title>UsersModule&#45;&gt;AuthModule</title>
<path fill="none" stroke="black" d="M469.14,-190.01C469.14,-212.49 469.14,-248 469.14,-248 469.14,-248 416.79,-248 416.79,-248"/>
<polygon fill="black" stroke="black" points="416.79,-244.5 406.79,-248 416.79,-251.5 416.79,-244.5"/>
</g>
<!-- ServerModule -->
<g id="node16" class="node">
<title>ServerModule</title>
<polygon fill="#8dd3c7" stroke="black" points="973.08,-334 970.08,-338 949.08,-338 946.08,-334 876.92,-334 876.92,-298 973.08,-298 973.08,-334"/>
<text text-anchor="middle" x="925" y="-311.8" font-family="Times,serif" font-size="14.00">ServerModule</text>
</g>
<!-- UsersModule&#45;&gt;ServerModule -->
<g id="edge16" class="edge">
<title>UsersModule&#45;&gt;ServerModule</title>
<path fill="none" stroke="black" d="M492,-190.04C492,-227.45 492,-310 492,-310 492,-310 866.59,-310 866.59,-310"/>
<polygon fill="black" stroke="black" points="866.59,-313.5 876.59,-310 866.59,-306.5 866.59,-313.5"/>
</g>
<!-- UsersService  -->
<g id="node20" class="node">
<title>UsersService </title>
<polygon fill="#fb8072" stroke="black" points="819.85,-266 726.15,-266 726.15,-230 819.85,-230 819.85,-266"/>
<text text-anchor="middle" x="773" y="-243.8" font-family="Times,serif" font-size="14.00">UsersService </text>
</g>
<!-- UsersModule&#45;&gt;UsersService  -->
<g id="edge20" class="edge">
<title>UsersModule&#45;&gt;UsersService </title>
<path fill="none" stroke="black" stroke-dasharray="5,2" d="M537.77,-172C617.4,-172 773,-172 773,-172 773,-172 773,-219.99 773,-219.99"/>
<polygon fill="black" stroke="black" points="769.5,-219.99 773,-229.99 776.5,-219.99 769.5,-219.99"/>
</g>
<!-- AuthService  -->
<g id="node3" class="node">
<title>AuthService </title>
<polygon fill="#fb8072" stroke="black" points="407.98,-334 318.02,-334 318.02,-298 407.98,-298 407.98,-334"/>
<text text-anchor="middle" x="363" y="-311.8" font-family="Times,serif" font-size="14.00">AuthService </text>
</g>
<!-- AuthModule&#45;&gt;AuthService  -->
<g id="edge2" class="edge">
<title>AuthModule&#45;&gt;AuthService </title>
<path fill="none" stroke="black" stroke-dasharray="5,2" d="M363,-266.22C363,-266.22 363,-287.73 363,-287.73"/>
<polygon fill="black" stroke="black" points="359.5,-287.73 363,-297.73 366.5,-287.73 359.5,-287.73"/>
</g>
<!-- AuthModule&#45;&gt;ServerModule -->
<g id="edge13" class="edge">
<title>AuthModule&#45;&gt;ServerModule</title>
<path fill="none" stroke="black" d="M406.94,-257C421.61,-257 434.3,-257 434.3,-257 434.3,-257 434.3,-322 434.3,-322 434.3,-322 866.61,-322 866.61,-322"/>
<polygon fill="black" stroke="black" points="866.61,-325.5 876.61,-322 866.61,-318.5 866.61,-325.5"/>
</g>
<!-- AuthService -->
<g id="node4" class="node">
<title>AuthService</title>
<ellipse fill="#fdb462" stroke="black" cx="363" cy="-172" rx="59.11" ry="18"/>
<text text-anchor="middle" x="363" y="-167.8" font-family="Times,serif" font-size="14.00">AuthService</text>
</g>
<!-- AuthService&#45;&gt;AuthModule -->
<g id="edge3" class="edge">
<title>AuthService&#45;&gt;AuthModule</title>
<path fill="none" stroke="black" d="M363,-190.01C363,-190.01 363,-219.85 363,-219.85"/>
<polygon fill="black" stroke="black" points="359.5,-219.85 363,-229.85 366.5,-219.85 359.5,-219.85"/>
</g>
<!-- JwtStrategy -->
<g id="node5" class="node">
<title>JwtStrategy</title>
<ellipse fill="#fdb462" stroke="black" cx="229" cy="-172" rx="56.76" ry="18"/>
<text text-anchor="middle" x="229" y="-167.8" font-family="Times,serif" font-size="14.00">JwtStrategy</text>
</g>
<!-- JwtStrategy&#45;&gt;AuthModule -->
<g id="edge4" class="edge">
<title>JwtStrategy&#45;&gt;AuthModule</title>
<path fill="none" stroke="black" d="M229,-190.03C229,-210.77 229,-242 229,-242 229,-242 309.12,-242 309.12,-242"/>
<polygon fill="black" stroke="black" points="309.12,-245.5 319.12,-242 309.12,-238.5 309.12,-245.5"/>
</g>
<!-- LocalStrategy -->
<g id="node6" class="node">
<title>LocalStrategy</title>
<ellipse fill="#fdb462" stroke="black" cx="89" cy="-172" rx="65.41" ry="18"/>
<text text-anchor="middle" x="89" y="-167.8" font-family="Times,serif" font-size="14.00">LocalStrategy</text>
</g>
<!-- LocalStrategy&#45;&gt;AuthModule -->
<g id="edge5" class="edge">
<title>LocalStrategy&#45;&gt;AuthModule</title>
<path fill="none" stroke="black" d="M89,-190.2C89,-214.36 89,-254 89,-254 89,-254 309.28,-254 309.28,-254"/>
<polygon fill="black" stroke="black" points="309.28,-257.5 319.28,-254 309.28,-250.5 309.28,-257.5"/>
</g>
<!-- AuthorizationService  -->
<g id="node7" class="node">
<title>AuthorizationService </title>
<polygon fill="#fb8072" stroke="black" points="1575.74,-266 1436.26,-266 1436.26,-230 1575.74,-230 1575.74,-266"/>
<text text-anchor="middle" x="1506" y="-243.8" font-family="Times,serif" font-size="14.00">AuthorizationService </text>
</g>
<!-- AuthorizationModule -->
<g id="node8" class="node">
<title>AuthorizationModule</title>
<polygon fill="#8dd3c7" stroke="black" points="1574.81,-190 1571.81,-194 1550.81,-194 1547.81,-190 1437.19,-190 1437.19,-154 1574.81,-154 1574.81,-190"/>
<text text-anchor="middle" x="1506" y="-167.8" font-family="Times,serif" font-size="14.00">AuthorizationModule</text>
</g>
<!-- AuthorizationModule&#45;&gt;AuthorizationService  -->
<g id="edge6" class="edge">
<title>AuthorizationModule&#45;&gt;AuthorizationService </title>
<path fill="none" stroke="black" stroke-dasharray="5,2" d="M1506,-190.01C1506,-190.01 1506,-219.85 1506,-219.85"/>
<polygon fill="black" stroke="black" points="1502.5,-219.85 1506,-229.85 1509.5,-219.85 1502.5,-219.85"/>
</g>
<!-- NewsModule -->
<g id="node11" class="node">
<title>NewsModule</title>
<polygon fill="#8dd3c7" stroke="black" points="1294.92,-266 1291.92,-270 1270.92,-270 1267.92,-266 1203.08,-266 1203.08,-230 1294.92,-230 1294.92,-266"/>
<text text-anchor="middle" x="1249" y="-243.8" font-family="Times,serif" font-size="14.00">NewsModule</text>
</g>
<!-- AuthorizationModule&#45;&gt;NewsModule -->
<g id="edge9" class="edge">
<title>AuthorizationModule&#45;&gt;NewsModule</title>
<path fill="none" stroke="black" d="M1437.22,-172C1407.86,-172 1380.22,-172 1380.22,-172 1380.22,-172 1380.22,-248 1380.22,-248 1380.22,-248 1304.9,-248 1304.9,-248"/>
<polygon fill="black" stroke="black" points="1304.9,-244.5 1294.9,-248 1304.9,-251.5 1304.9,-244.5"/>
</g>
<!-- AuthorizationService -->
<g id="node9" class="node">
<title>AuthorizationService</title>
<ellipse fill="#fdb462" stroke="black" cx="1724" cy="-104" rx="93.76" ry="18"/>
<text text-anchor="middle" x="1724" y="-99.8" font-family="Times,serif" font-size="14.00">AuthorizationService</text>
</g>
<!-- AuthorizationService&#45;&gt;AuthorizationModule -->
<g id="edge7" class="edge">
<title>AuthorizationService&#45;&gt;AuthorizationModule</title>
<path fill="none" stroke="black" d="M1724,-122.22C1724,-142.37 1724,-172 1724,-172 1724,-172 1584.68,-172 1584.68,-172"/>
<polygon fill="black" stroke="black" points="1584.68,-168.5 1574.68,-172 1584.68,-175.5 1584.68,-168.5"/>
</g>
<!-- FeathersServiceProvider -->
<g id="node10" class="node">
<title>FeathersServiceProvider</title>
<ellipse fill="#fdb462" stroke="black" cx="1506" cy="-104" rx="105.91" ry="18"/>
<text text-anchor="middle" x="1506" y="-99.8" font-family="Times,serif" font-size="14.00">FeathersServiceProvider</text>
</g>
<!-- FeathersServiceProvider&#45;&gt;AuthorizationModule -->
<g id="edge8" class="edge">
<title>FeathersServiceProvider&#45;&gt;AuthorizationModule</title>
<path fill="none" stroke="black" d="M1506,-122.22C1506,-122.22 1506,-143.73 1506,-143.73"/>
<polygon fill="black" stroke="black" points="1502.5,-143.73 1506,-153.73 1509.5,-143.73 1502.5,-143.73"/>
</g>
<!-- NewsUc  -->
<g id="node12" class="node">
<title>NewsUc </title>
<polygon fill="#fb8072" stroke="black" points="1282.69,-334 1215.31,-334 1215.31,-298 1282.69,-298 1282.69,-334"/>
<text text-anchor="middle" x="1249" y="-311.8" font-family="Times,serif" font-size="14.00">NewsUc </text>
</g>
<!-- NewsModule&#45;&gt;NewsUc  -->
<g id="edge10" class="edge">
<title>NewsModule&#45;&gt;NewsUc </title>
<path fill="none" stroke="black" stroke-dasharray="5,2" d="M1249,-266.22C1249,-266.22 1249,-287.73 1249,-287.73"/>
<polygon fill="black" stroke="black" points="1245.5,-287.73 1249,-297.73 1252.5,-287.73 1245.5,-287.73"/>
</g>
<!-- NewsModule&#45;&gt;ServerModule -->
<g id="edge14" class="edge">
<title>NewsModule&#45;&gt;ServerModule</title>
<path fill="none" stroke="black" d="M1209.22,-266.29C1209.22,-288.21 1209.22,-322 1209.22,-322 1209.22,-322 983.21,-322 983.21,-322"/>
<polygon fill="black" stroke="black" points="983.21,-318.5 973.21,-322 983.21,-325.5 983.21,-318.5"/>
</g>
<!-- NewsRepo -->
<g id="node13" class="node">
<title>NewsRepo</title>
<ellipse fill="#fdb462" stroke="black" cx="1307" cy="-172" rx="53.31" ry="18"/>
<text text-anchor="middle" x="1307" y="-167.8" font-family="Times,serif" font-size="14.00">NewsRepo</text>
</g>
<!-- NewsRepo&#45;&gt;NewsModule -->
<g id="edge11" class="edge">
<title>NewsRepo&#45;&gt;NewsModule</title>
<path fill="none" stroke="black" d="M1274.15,-186.3C1274.15,-186.3 1274.15,-219.73 1274.15,-219.73"/>
<polygon fill="black" stroke="black" points="1270.65,-219.73 1274.15,-229.73 1277.65,-219.73 1270.65,-219.73"/>
</g>
<!-- NewsUc -->
<g id="node14" class="node">
<title>NewsUc</title>
<ellipse fill="#fdb462" stroke="black" cx="1191" cy="-172" rx="44.06" ry="18"/>
<text text-anchor="middle" x="1191" y="-167.8" font-family="Times,serif" font-size="14.00">NewsUc</text>
</g>
<!-- NewsUc&#45;&gt;NewsModule -->
<g id="edge12" class="edge">
<title>NewsUc&#45;&gt;NewsModule</title>
<path fill="none" stroke="black" d="M1219.28,-185.94C1219.28,-185.94 1219.28,-219.84 1219.28,-219.84"/>
<polygon fill="black" stroke="black" points="1215.78,-219.84 1219.28,-229.84 1222.78,-219.84 1215.78,-219.84"/>
</g>
<!-- TaskModule -->
<g id="node15" class="node">
<title>TaskModule</title>
<polygon fill="#8dd3c7" stroke="black" points="1100.26,-266 1097.26,-270 1076.26,-270 1073.26,-266 1013.74,-266 1013.74,-230 1100.26,-230 1100.26,-266"/>
<text text-anchor="middle" x="1057" y="-243.8" font-family="Times,serif" font-size="14.00">TaskModule</text>
</g>
<!-- TaskModule&#45;&gt;ServerModule -->
<g id="edge15" class="edge">
<title>TaskModule&#45;&gt;ServerModule</title>
<path fill="none" stroke="black" d="M1057,-266.27C1057,-284.56 1057,-310 1057,-310 1057,-310 983.4,-310 983.4,-310"/>
<polygon fill="black" stroke="black" points="983.4,-306.5 973.4,-310 983.4,-313.5 983.4,-306.5"/>
</g>
<!-- ServerService -->
<g id="node17" class="node">
<title>ServerService</title>
<ellipse fill="#fdb462" stroke="black" cx="925" cy="-248" rx="65.38" ry="18"/>
<text text-anchor="middle" x="925" y="-243.8" font-family="Times,serif" font-size="14.00">ServerService</text>
</g>
<!-- ServerService&#45;&gt;ServerModule -->
<g id="edge17" class="edge">
<title>ServerService&#45;&gt;ServerModule</title>
<path fill="none" stroke="black" d="M925,-266.22C925,-266.22 925,-287.73 925,-287.73"/>
<polygon fill="black" stroke="black" points="921.5,-287.73 925,-297.73 928.5,-287.73 921.5,-287.73"/>
</g>
<!-- TaskRepo -->
<g id="node18" class="node">
<title>TaskRepo</title>
<ellipse fill="#fdb462" stroke="black" cx="1057" cy="-172" rx="50.38" ry="18"/>
<text text-anchor="middle" x="1057" y="-167.8" font-family="Times,serif" font-size="14.00">TaskRepo</text>
</g>
<!-- TaskRepo&#45;&gt;TaskModule -->
<g id="edge18" class="edge">
<title>TaskRepo&#45;&gt;TaskModule</title>
<path fill="none" stroke="black" d="M1057,-190.01C1057,-190.01 1057,-219.85 1057,-219.85"/>
<polygon fill="black" stroke="black" points="1053.5,-219.85 1057,-229.85 1060.5,-219.85 1053.5,-219.85"/>
</g>
<!-- TaskUC -->
<g id="node19" class="node">
<title>TaskUC</title>
<ellipse fill="#fdb462" stroke="black" cx="946" cy="-172" rx="43.44" ry="18"/>
<text text-anchor="middle" x="946" y="-167.8" font-family="Times,serif" font-size="14.00">TaskUC</text>
</g>
<!-- TaskUC&#45;&gt;TaskModule -->
<g id="edge19" class="edge">
<title>TaskUC&#45;&gt;TaskModule</title>
<path fill="none" stroke="black" d="M989.36,-172C994.8,-172 998.5,-172 998.5,-172 998.5,-172 998.5,-248 998.5,-248 998.5,-248 1003.57,-248 1003.57,-248"/>
<polygon fill="black" stroke="black" points="1003.57,-251.5 1013.57,-248 1003.57,-244.5 1003.57,-251.5"/>
</g>
<!-- UsersService -->
<g id="node21" class="node">
<title>UsersService</title>
<ellipse fill="#fdb462" stroke="black" cx="640" cy="-248" rx="61.95" ry="18"/>
<text text-anchor="middle" x="640" y="-243.8" font-family="Times,serif" font-size="14.00">UsersService</text>
</g>
<!-- UsersService&#45;&gt;UsersModule -->
<g id="edge21" class="edge">
<title>UsersService&#45;&gt;UsersModule</title>
<path fill="none" stroke="black" d="M586.2,-239C552.28,-239 514.86,-239 514.86,-239 514.86,-239 514.86,-200.31 514.86,-200.31"/>
<polygon fill="black" stroke="black" points="518.36,-200.31 514.86,-190.31 511.36,-200.31 518.36,-200.31"/>
</g>
</g>
</svg>
