<?xml version="1.0" encoding="UTF-8" standalone="no"?>
<!DOCTYPE svg PUBLIC "-//W3C//DTD SVG 1.1//EN"
 "http://www.w3.org/Graphics/SVG/1.1/DTD/svg11.dtd">
<!-- Generated by graphviz version 2.47.0 (20210316.0004)
 -->
<!-- Title: dependencies Pages: 1 -->
<svg width="2394pt" height="366pt"
 viewBox="0.00 0.00 2394.00 366.00" xmlns="http://www.w3.org/2000/svg" xmlns:xlink="http://www.w3.org/1999/xlink">
<g id="graph0" class="graph" transform="scale(1 1) rotate(0) translate(4 362)">
<title>dependencies</title>
<polygon fill="white" stroke="transparent" points="-4,4 -4,-362 2390,-362 2390,4 -4,4"/>
<text text-anchor="start" x="1172.01" y="-42.4" font-family="sans-serif" font-weight="bold" font-size="14.00">Legend</text>
<polygon fill="#ffffb3" stroke="transparent" points="959,-10 959,-30 979,-30 979,-10 959,-10"/>
<text text-anchor="start" x="982.63" y="-15.4" font-family="sans-serif" font-size="14.00"> &#160;Declarations</text>
<polygon fill="#8dd3c7" stroke="transparent" points="1072,-10 1072,-30 1092,-30 1092,-10 1072,-10"/>
<text text-anchor="start" x="1095.73" y="-15.4" font-family="sans-serif" font-size="14.00"> &#160;Module</text>
<polygon fill="#80b1d3" stroke="transparent" points="1158,-10 1158,-30 1178,-30 1178,-10 1158,-10"/>
<text text-anchor="start" x="1181.78" y="-15.4" font-family="sans-serif" font-size="14.00"> &#160;Bootstrap</text>
<polygon fill="#fdb462" stroke="transparent" points="1255,-10 1255,-30 1275,-30 1275,-10 1255,-10"/>
<text text-anchor="start" x="1278.67" y="-15.4" font-family="sans-serif" font-size="14.00"> &#160;Providers</text>
<polygon fill="#fb8072" stroke="transparent" points="1351,-10 1351,-30 1371,-30 1371,-10 1351,-10"/>
<text text-anchor="start" x="1374.73" y="-15.4" font-family="sans-serif" font-size="14.00"> &#160;Exports</text>
<g id="clust1" class="cluster">
<title>cluster_AuthModule</title>
<polygon fill="none" stroke="black" stroke-dasharray="1,5" points="8,-138 8,-274 154,-274 154,-138 8,-138"/>
</g>
<g id="clust6" class="cluster">
<title>cluster_AuthModule_providers</title>
<polygon fill="none" stroke="black" points="16,-146 16,-198 146,-198 146,-146 16,-146"/>
</g>
<g id="clust7" class="cluster">
<title>cluster_AuthorizationModule</title>
<polygon fill="none" stroke="black" stroke-dasharray="1,5" points="1384,-70 1384,-282 1944,-282 1944,-70 1384,-70"/>
</g>
<g id="clust9" class="cluster">
<title>cluster_AuthorizationModule_imports</title>
<polygon fill="none" stroke="black" points="1814,-78 1814,-130 1936,-130 1936,-78 1814,-78"/>
</g>
<g id="clust10" class="cluster">
<title>cluster_AuthorizationModule_exports</title>
<polygon fill="none" stroke="black" points="1522,-222 1522,-274 1678,-274 1678,-222 1522,-222"/>
</g>
<g id="clust12" class="cluster">
<title>cluster_AuthorizationModule_providers</title>
<polygon fill="none" stroke="black" points="1392,-78 1392,-130 1806,-130 1806,-78 1392,-78"/>
</g>
<g id="clust13" class="cluster">
<title>cluster_CoreModule</title>
<polygon fill="none" stroke="black" stroke-dasharray="1,5" points="406,-138 406,-274 921,-274 921,-138 406,-138"/>
</g>
<g id="clust15" class="cluster">
<title>cluster_CoreModule_imports</title>
<polygon fill="none" stroke="black" points="414,-146 414,-198 913,-198 913,-146 414,-146"/>
</g>
<g id="clust25" class="cluster">
<title>cluster_FeathersModule</title>
<polygon fill="none" stroke="black" stroke-dasharray="1,5" points="1952,-138 1952,-206 2378,-206 2378,-138 1952,-138"/>
</g>
<g id="clust28" class="cluster">
<title>cluster_FeathersModule_exports</title>
<polygon fill="none" stroke="black" points="2196,-146 2196,-198 2370,-198 2370,-146 2196,-146"/>
</g>
<g id="clust30" class="cluster">
<title>cluster_FeathersModule_providers</title>
<polygon fill="none" stroke="black" points="1960,-146 1960,-198 2188,-198 2188,-146 1960,-146"/>
</g>
<g id="clust37" class="cluster">
<title>cluster_LoggerModule</title>
<polygon fill="none" stroke="black" stroke-dasharray="1,5" points="929,-214 929,-282 1123,-282 1123,-214 929,-214"/>
</g>
<g id="clust40" class="cluster">
<title>cluster_LoggerModule_exports</title>
<polygon fill="none" stroke="black" points="1039,-222 1039,-274 1115,-274 1115,-222 1039,-222"/>
</g>
<g id="clust42" class="cluster">
<title>cluster_LoggerModule_providers</title>
<polygon fill="none" stroke="black" points="937,-222 937,-274 1031,-274 1031,-222 937,-222"/>
</g>
<g id="clust49" class="cluster">
<title>cluster_NewsModule</title>
<polygon fill="none" stroke="black" stroke-dasharray="1,5" points="1131,-138 1131,-350 1376,-350 1376,-138 1131,-138"/>
</g>
<g id="clust52" class="cluster">
<title>cluster_NewsModule_exports</title>
<polygon fill="none" stroke="black" points="1149,-290 1149,-342 1233,-342 1233,-290 1149,-290"/>
</g>
<g id="clust54" class="cluster">
<title>cluster_NewsModule_providers</title>
<polygon fill="none" stroke="black" points="1139,-146 1139,-198 1368,-198 1368,-146 1139,-146"/>
</g>
<g id="clust55" class="cluster">
<title>cluster_ServerModule</title>
<polygon fill="none" stroke="black" stroke-dasharray="1,5" points="273,-214 273,-342 391,-342 391,-214 273,-214"/>
</g>
<g id="clust57" class="cluster">
<title>cluster_ServerModule_imports</title>
<polygon fill="none" stroke="black" points="281,-222 281,-274 383,-274 383,-222 281,-222"/>
</g>
<g id="clust61" class="cluster">
<title>cluster_TaskModule</title>
<polygon fill="none" stroke="black" stroke-dasharray="1,5" points="162,-138 162,-206 398,-206 398,-138 162,-138"/>
</g>
<g id="clust66" class="cluster">
<title>cluster_TaskModule_providers</title>
<polygon fill="none" stroke="black" points="170,-146 170,-198 390,-198 390,-146 170,-146"/>
</g>
<!-- JwtStrategy -->
<g id="node1" class="node">
<title>JwtStrategy</title>
<ellipse fill="#fdb462" stroke="black" cx="81" cy="-172" rx="56.76" ry="18"/>
<text text-anchor="middle" x="81" y="-167.8" font-family="Times,serif" font-size="14.00">JwtStrategy</text>
</g>
<!-- AuthModule -->
<g id="node2" class="node">
<title>AuthModule</title>
<polygon fill="#8dd3c7" stroke="black" points="134.55,-266 131.55,-270 110.55,-270 107.55,-266 47.45,-266 47.45,-230 134.55,-230 134.55,-266"/>
<text text-anchor="middle" x="91" y="-243.8" font-family="Times,serif" font-size="14.00">AuthModule</text>
</g>
<!-- JwtStrategy&#45;&gt;AuthModule -->
<g id="edge1" class="edge">
<title>JwtStrategy&#45;&gt;AuthModule</title>
<path fill="none" stroke="black" d="M91,-190.01C91,-190.01 91,-219.85 91,-219.85"/>
<polygon fill="black" stroke="black" points="87.5,-219.85 91,-229.85 94.5,-219.85 87.5,-219.85"/>
</g>
<!-- ServerModule -->
<g id="node22" class="node">
<title>ServerModule</title>
<polygon fill="#8dd3c7" stroke="black" points="381.08,-334 378.08,-338 357.08,-338 354.08,-334 284.92,-334 284.92,-298 381.08,-298 381.08,-334"/>
<text text-anchor="middle" x="333" y="-311.8" font-family="Times,serif" font-size="14.00">ServerModule</text>
</g>
<!-- AuthModule&#45;&gt;ServerModule -->
<g id="edge19" class="edge">
<title>AuthModule&#45;&gt;ServerModule</title>
<path fill="none" stroke="black" d="M91,-266.22C91,-286.37 91,-316 91,-316 91,-316 274.9,-316 274.9,-316"/>
<polygon fill="black" stroke="black" points="274.9,-319.5 284.9,-316 274.9,-312.5 274.9,-319.5"/>
</g>
<!-- FeathersModule -->
<g id="node3" class="node">
<title>FeathersModule</title>
<polygon fill="#8dd3c7" stroke="black" points="1928.47,-122 1925.47,-126 1904.47,-126 1901.47,-122 1821.53,-122 1821.53,-86 1928.47,-86 1928.47,-122"/>
<text text-anchor="middle" x="1875" y="-99.8" font-family="Times,serif" font-size="14.00">FeathersModule</text>
</g>
<!-- AuthorizationModule -->
<g id="node4" class="node">
<title>AuthorizationModule</title>
<polygon fill="#8dd3c7" stroke="black" points="1668.81,-190 1665.81,-194 1644.81,-194 1641.81,-190 1531.19,-190 1531.19,-154 1668.81,-154 1668.81,-190"/>
<text text-anchor="middle" x="1600" y="-167.8" font-family="Times,serif" font-size="14.00">AuthorizationModule</text>
</g>
<!-- FeathersModule&#45;&gt;AuthorizationModule -->
<g id="edge2" class="edge">
<title>FeathersModule&#45;&gt;AuthorizationModule</title>
<path fill="none" stroke="black" d="M1857.17,-122.27C1857.17,-140.56 1857.17,-166 1857.17,-166 1857.17,-166 1678.92,-166 1678.92,-166"/>
<polygon fill="black" stroke="black" points="1678.92,-162.5 1668.92,-166 1678.92,-169.5 1678.92,-162.5"/>
</g>
<!-- FeathersServiceProvider  -->
<g id="node13" class="node">
<title>FeathersServiceProvider </title>
<polygon fill="#fb8072" stroke="black" points="2361.61,-190 2204.39,-190 2204.39,-154 2361.61,-154 2361.61,-190"/>
<text text-anchor="middle" x="2283" y="-167.8" font-family="Times,serif" font-size="14.00">FeathersServiceProvider </text>
</g>
<!-- FeathersModule&#45;&gt;FeathersServiceProvider  -->
<g id="edge10" class="edge">
<title>FeathersModule&#45;&gt;FeathersServiceProvider </title>
<path fill="none" stroke="black" stroke-dasharray="5,2" d="M1928.76,-104C2039.55,-104 2283,-104 2283,-104 2283,-104 2283,-143.78 2283,-143.78"/>
<polygon fill="black" stroke="black" points="2279.5,-143.78 2283,-153.78 2286.5,-143.78 2279.5,-143.78"/>
</g>
<!-- AuthorizationService  -->
<g id="node5" class="node">
<title>AuthorizationService </title>
<polygon fill="#fb8072" stroke="black" points="1669.74,-266 1530.26,-266 1530.26,-230 1669.74,-230 1669.74,-266"/>
<text text-anchor="middle" x="1600" y="-243.8" font-family="Times,serif" font-size="14.00">AuthorizationService </text>
</g>
<!-- AuthorizationModule&#45;&gt;AuthorizationService  -->
<g id="edge3" class="edge">
<title>AuthorizationModule&#45;&gt;AuthorizationService </title>
<path fill="none" stroke="black" stroke-dasharray="5,2" d="M1600,-190.01C1600,-190.01 1600,-219.85 1600,-219.85"/>
<polygon fill="black" stroke="black" points="1596.5,-219.85 1600,-229.85 1603.5,-219.85 1596.5,-219.85"/>
</g>
<!-- NewsModule -->
<g id="node17" class="node">
<title>NewsModule</title>
<polygon fill="#8dd3c7" stroke="black" points="1236.92,-266 1233.92,-270 1212.92,-270 1209.92,-266 1145.08,-266 1145.08,-230 1236.92,-230 1236.92,-266"/>
<text text-anchor="middle" x="1191" y="-243.8" font-family="Times,serif" font-size="14.00">NewsModule</text>
</g>
<!-- AuthorizationModule&#45;&gt;NewsModule -->
<g id="edge14" class="edge">
<title>AuthorizationModule&#45;&gt;NewsModule</title>
<path fill="none" stroke="black" d="M1531.31,-172C1466.77,-172 1380.05,-172 1380.05,-172 1380.05,-172 1380.05,-254 1380.05,-254 1380.05,-254 1246.76,-254 1246.76,-254"/>
<polygon fill="black" stroke="black" points="1246.76,-250.5 1236.76,-254 1246.76,-257.5 1246.76,-250.5"/>
</g>
<!-- AuthorizationService -->
<g id="node6" class="node">
<title>AuthorizationService</title>
<ellipse fill="#fdb462" stroke="black" cx="1704" cy="-104" rx="93.76" ry="18"/>
<text text-anchor="middle" x="1704" y="-99.8" font-family="Times,serif" font-size="14.00">AuthorizationService</text>
</g>
<!-- AuthorizationService&#45;&gt;AuthorizationModule -->
<g id="edge4" class="edge">
<title>AuthorizationService&#45;&gt;AuthorizationModule</title>
<path fill="none" stroke="black" d="M1639.51,-117.11C1639.51,-117.11 1639.51,-143.79 1639.51,-143.79"/>
<polygon fill="black" stroke="black" points="1636.01,-143.79 1639.51,-153.79 1643.01,-143.79 1636.01,-143.79"/>
</g>
<!-- FeathersAuthProvider -->
<g id="node7" class="node">
<title>FeathersAuthProvider</title>
<ellipse fill="#fdb462" stroke="black" cx="1496" cy="-104" rx="96.13" ry="18"/>
<text text-anchor="middle" x="1496" y="-99.8" font-family="Times,serif" font-size="14.00">FeathersAuthProvider</text>
</g>
<!-- FeathersAuthProvider&#45;&gt;AuthorizationModule -->
<g id="edge5" class="edge">
<title>FeathersAuthProvider&#45;&gt;AuthorizationModule</title>
<path fill="none" stroke="black" d="M1561.83,-117.43C1561.83,-117.43 1561.83,-143.96 1561.83,-143.96"/>
<polygon fill="black" stroke="black" points="1558.33,-143.96 1561.83,-153.96 1565.33,-143.96 1558.33,-143.96"/>
</g>
<!-- ErrorModule -->
<g id="node8" class="node">
<title>ErrorModule</title>
<polygon fill="#8dd3c7" stroke="black" points="786.58,-190 783.58,-194 762.58,-194 759.58,-190 697.42,-190 697.42,-154 786.58,-154 786.58,-190"/>
<text text-anchor="middle" x="742" y="-167.8" font-family="Times,serif" font-size="14.00">ErrorModule</text>
</g>
<!-- CoreModule -->
<g id="node12" class="node">
<title>CoreModule</title>
<polygon fill="#8dd3c7" stroke="black" points="662.26,-266 659.26,-270 638.26,-270 635.26,-266 575.74,-266 575.74,-230 662.26,-230 662.26,-266"/>
<text text-anchor="middle" x="619" y="-243.8" font-family="Times,serif" font-size="14.00">CoreModule</text>
</g>
<!-- ErrorModule&#45;&gt;CoreModule -->
<g id="edge6" class="edge">
<title>ErrorModule&#45;&gt;CoreModule</title>
<path fill="none" stroke="black" d="M742,-190.03C742,-210.77 742,-242 742,-242 742,-242 672.37,-242 672.37,-242"/>
<polygon fill="black" stroke="black" points="672.37,-238.5 662.37,-242 672.37,-245.5 672.37,-238.5"/>
</g>
<!-- InterceptorModule -->
<g id="node9" class="node">
<title>InterceptorModule</title>
<polygon fill="#8dd3c7" stroke="black" points="679.46,-190 676.46,-194 655.46,-194 652.46,-190 558.54,-190 558.54,-154 679.46,-154 679.46,-190"/>
<text text-anchor="middle" x="619" y="-167.8" font-family="Times,serif" font-size="14.00">InterceptorModule</text>
</g>
<!-- InterceptorModule&#45;&gt;CoreModule -->
<g id="edge7" class="edge">
<title>InterceptorModule&#45;&gt;CoreModule</title>
<path fill="none" stroke="black" d="M619,-190.01C619,-190.01 619,-219.85 619,-219.85"/>
<polygon fill="black" stroke="black" points="615.5,-219.85 619,-229.85 622.5,-219.85 615.5,-219.85"/>
</g>
<!-- LoggerModule -->
<g id="node10" class="node">
<title>LoggerModule</title>
<polygon fill="#8dd3c7" stroke="black" points="904.98,-190 901.98,-194 880.98,-194 877.98,-190 805.02,-190 805.02,-154 904.98,-154 904.98,-190"/>
<text text-anchor="middle" x="855" y="-167.8" font-family="Times,serif" font-size="14.00">LoggerModule</text>
</g>
<!-- LoggerModule&#45;&gt;CoreModule -->
<g id="edge8" class="edge">
<title>LoggerModule&#45;&gt;CoreModule</title>
<path fill="none" stroke="black" d="M855,-190.2C855,-214.36 855,-254 855,-254 855,-254 672.29,-254 672.29,-254"/>
<polygon fill="black" stroke="black" points="672.29,-250.5 662.29,-254 672.29,-257.5 672.29,-250.5"/>
</g>
<!-- Logger  -->
<g id="node15" class="node">
<title>Logger </title>
<polygon fill="#fb8072" stroke="black" points="1106.93,-266 1047.07,-266 1047.07,-230 1106.93,-230 1106.93,-266"/>
<text text-anchor="middle" x="1077" y="-243.8" font-family="Times,serif" font-size="14.00">Logger </text>
</g>
<!-- LoggerModule&#45;&gt;Logger  -->
<g id="edge12" class="edge">
<title>LoggerModule&#45;&gt;Logger </title>
<path fill="none" stroke="black" stroke-dasharray="5,2" d="M905.1,-172C970.57,-172 1077,-172 1077,-172 1077,-172 1077,-219.99 1077,-219.99"/>
<polygon fill="black" stroke="black" points="1073.5,-219.99 1077,-229.99 1080.5,-219.99 1073.5,-219.99"/>
</g>
<!-- LoggerModule&#45;&gt;NewsModule -->
<g id="edge15" class="edge">
<title>LoggerModule&#45;&gt;NewsModule</title>
<path fill="none" stroke="black" d="M905.04,-163C983.39,-163 1126.13,-163 1126.13,-163 1126.13,-163 1126.13,-248 1126.13,-248 1126.13,-248 1135.24,-248 1135.24,-248"/>
<polygon fill="black" stroke="black" points="1135.24,-251.5 1145.24,-248 1135.24,-244.5 1135.24,-251.5"/>
</g>
<!-- ValidationModule -->
<g id="node11" class="node">
<title>ValidationModule</title>
<polygon fill="#8dd3c7" stroke="black" points="540.15,-190 537.15,-194 516.15,-194 513.15,-190 421.85,-190 421.85,-154 540.15,-154 540.15,-190"/>
<text text-anchor="middle" x="481" y="-167.8" font-family="Times,serif" font-size="14.00">ValidationModule</text>
</g>
<!-- ValidationModule&#45;&gt;CoreModule -->
<g id="edge9" class="edge">
<title>ValidationModule&#45;&gt;CoreModule</title>
<path fill="none" stroke="black" d="M481,-190.01C481,-212.49 481,-248 481,-248 481,-248 565.71,-248 565.71,-248"/>
<polygon fill="black" stroke="black" points="565.71,-251.5 575.71,-248 565.71,-244.5 565.71,-251.5"/>
</g>
<!-- CoreModule&#45;&gt;ServerModule -->
<g id="edge20" class="edge">
<title>CoreModule&#45;&gt;ServerModule</title>
<path fill="none" stroke="black" d="M619,-266.27C619,-284.56 619,-310 619,-310 619,-310 391.19,-310 391.19,-310"/>
<polygon fill="black" stroke="black" points="391.19,-306.5 381.19,-310 391.19,-313.5 391.19,-306.5"/>
</g>
<!-- FeathersServiceProvider -->
<g id="node14" class="node">
<title>FeathersServiceProvider</title>
<ellipse fill="#fdb462" stroke="black" cx="2074" cy="-172" rx="105.91" ry="18"/>
<text text-anchor="middle" x="2074" y="-167.8" font-family="Times,serif" font-size="14.00">FeathersServiceProvider</text>
</g>
<!-- FeathersServiceProvider&#45;&gt;FeathersModule -->
<g id="edge11" class="edge">
<title>FeathersServiceProvider&#45;&gt;FeathersModule</title>
<path fill="none" stroke="black" d="M1973.88,-178C1931.98,-178 1892.83,-178 1892.83,-178 1892.83,-178 1892.83,-132.29 1892.83,-132.29"/>
<polygon fill="black" stroke="black" points="1896.33,-132.29 1892.83,-122.29 1889.33,-132.29 1896.33,-132.29"/>
</g>
<!-- Logger -->
<g id="node16" class="node">
<title>Logger</title>
<ellipse fill="#fdb462" stroke="black" cx="984" cy="-248" rx="38.85" ry="18"/>
<text text-anchor="middle" x="984" y="-243.8" font-family="Times,serif" font-size="14.00">Logger</text>
</g>
<!-- Logger&#45;&gt;LoggerModule -->
<g id="edge13" class="edge">
<title>Logger&#45;&gt;LoggerModule</title>
<path fill="none" stroke="black" d="M984,-229.69C984,-209.85 984,-181 984,-181 984,-181 915.24,-181 915.24,-181"/>
<polygon fill="black" stroke="black" points="915.24,-177.5 905.24,-181 915.24,-184.5 915.24,-177.5"/>
</g>
<!-- NewsUc  -->
<g id="node18" class="node">
<title>NewsUc </title>
<polygon fill="#fb8072" stroke="black" points="1224.69,-334 1157.31,-334 1157.31,-298 1224.69,-298 1224.69,-334"/>
<text text-anchor="middle" x="1191" y="-311.8" font-family="Times,serif" font-size="14.00">NewsUc </text>
</g>
<!-- NewsModule&#45;&gt;NewsUc  -->
<g id="edge16" class="edge">
<title>NewsModule&#45;&gt;NewsUc </title>
<path fill="none" stroke="black" stroke-dasharray="5,2" d="M1191,-266.22C1191,-266.22 1191,-287.73 1191,-287.73"/>
<polygon fill="black" stroke="black" points="1187.5,-287.73 1191,-297.73 1194.5,-287.73 1187.5,-287.73"/>
</g>
<!-- NewsModule&#45;&gt;ServerModule -->
<g id="edge21" class="edge">
<title>NewsModule&#45;&gt;ServerModule</title>
<path fill="none" stroke="black" d="M1151.22,-266.29C1151.22,-288.21 1151.22,-322 1151.22,-322 1151.22,-322 391.13,-322 391.13,-322"/>
<polygon fill="black" stroke="black" points="391.13,-318.5 381.13,-322 391.13,-325.5 391.13,-318.5"/>
</g>
<!-- NewsRepo -->
<g id="node19" class="node">
<title>NewsRepo</title>
<ellipse fill="#fdb462" stroke="black" cx="1307" cy="-172" rx="53.31" ry="18"/>
<text text-anchor="middle" x="1307" y="-167.8" font-family="Times,serif" font-size="14.00">NewsRepo</text>
</g>
<!-- NewsRepo&#45;&gt;NewsModule -->
<g id="edge17" class="edge">
<title>NewsRepo&#45;&gt;NewsModule</title>
<path fill="none" stroke="black" d="M1307,-190.03C1307,-210.77 1307,-242 1307,-242 1307,-242 1246.85,-242 1246.85,-242"/>
<polygon fill="black" stroke="black" points="1246.85,-238.5 1236.85,-242 1246.85,-245.5 1246.85,-238.5"/>
</g>
<!-- NewsUc -->
<g id="node20" class="node">
<title>NewsUc</title>
<ellipse fill="#fdb462" stroke="black" cx="1191" cy="-172" rx="44.06" ry="18"/>
<text text-anchor="middle" x="1191" y="-167.8" font-family="Times,serif" font-size="14.00">NewsUc</text>
</g>
<!-- NewsUc&#45;&gt;NewsModule -->
<g id="edge18" class="edge">
<title>NewsUc&#45;&gt;NewsModule</title>
<path fill="none" stroke="black" d="M1191,-190.01C1191,-190.01 1191,-219.85 1191,-219.85"/>
<polygon fill="black" stroke="black" points="1187.5,-219.85 1191,-229.85 1194.5,-219.85 1187.5,-219.85"/>
</g>
<!-- TaskModule -->
<g id="node21" class="node">
<title>TaskModule</title>
<polygon fill="#8dd3c7" stroke="black" points="375.26,-266 372.26,-270 351.26,-270 348.26,-266 288.74,-266 288.74,-230 375.26,-230 375.26,-266"/>
<text text-anchor="middle" x="332" y="-243.8" font-family="Times,serif" font-size="14.00">TaskModule</text>
</g>
<!-- TaskModule&#45;&gt;ServerModule -->
<g id="edge22" class="edge">
<title>TaskModule&#45;&gt;ServerModule</title>
<path fill="none" stroke="black" d="M332,-266.22C332,-266.22 332,-287.73 332,-287.73"/>
<polygon fill="black" stroke="black" points="328.5,-287.73 332,-297.73 335.5,-287.73 328.5,-287.73"/>
</g>
<!-- TaskRepo -->
<g id="node23" class="node">
<title>TaskRepo</title>
<ellipse fill="#fdb462" stroke="black" cx="332" cy="-172" rx="50.38" ry="18"/>
<text text-anchor="middle" x="332" y="-167.8" font-family="Times,serif" font-size="14.00">TaskRepo</text>
</g>
<!-- TaskRepo&#45;&gt;TaskModule -->
<g id="edge23" class="edge">
<title>TaskRepo&#45;&gt;TaskModule</title>
<path fill="none" stroke="black" d="M332,-190.01C332,-190.01 332,-219.85 332,-219.85"/>
<polygon fill="black" stroke="black" points="328.5,-219.85 332,-229.85 335.5,-219.85 328.5,-219.85"/>
</g>
<!-- TaskUC -->
<g id="node24" class="node">
<title>TaskUC</title>
<ellipse fill="#fdb462" stroke="black" cx="221" cy="-172" rx="43.44" ry="18"/>
<text text-anchor="middle" x="221" y="-167.8" font-family="Times,serif" font-size="14.00">TaskUC</text>
</g>
<!-- TaskUC&#45;&gt;TaskModule -->
<g id="edge24" class="edge">
<title>TaskUC&#45;&gt;TaskModule</title>
<path fill="none" stroke="black" d="M221,-190.01C221,-212.49 221,-248 221,-248 221,-248 278.45,-248 278.45,-248"/>
<polygon fill="black" stroke="black" points="278.45,-251.5 288.45,-248 278.45,-244.5 278.45,-251.5"/>
</g>
</g>
</svg>
