<?xml version="1.0" encoding="UTF-8" standalone="no"?>
<!DOCTYPE svg PUBLIC "-//W3C//DTD SVG 1.1//EN"
 "http://www.w3.org/Graphics/SVG/1.1/DTD/svg11.dtd">
<!-- Generated by graphviz version 2.47.0 (20210316.0004)
 -->
<!-- Title: dependencies Pages: 1 -->
<svg width="2675pt" height="374pt"
 viewBox="0.00 0.00 2675.00 374.00" xmlns="http://www.w3.org/2000/svg" xmlns:xlink="http://www.w3.org/1999/xlink">
<g id="graph0" class="graph" transform="scale(1 1) rotate(0) translate(4 370)">
<title>dependencies</title>
<polygon fill="white" stroke="transparent" points="-4,4 -4,-370 2671,-370 2671,4 -4,4"/>
<text text-anchor="start" x="1312.51" y="-42.4" font-family="sans-serif" font-weight="bold" font-size="14.00">Legend</text>
<polygon fill="#ffffb3" stroke="transparent" points="1099.5,-10 1099.5,-30 1119.5,-30 1119.5,-10 1099.5,-10"/>
<text text-anchor="start" x="1123.13" y="-15.4" font-family="sans-serif" font-size="14.00"> &#160;Declarations</text>
<polygon fill="#8dd3c7" stroke="transparent" points="1212.5,-10 1212.5,-30 1232.5,-30 1232.5,-10 1212.5,-10"/>
<text text-anchor="start" x="1236.23" y="-15.4" font-family="sans-serif" font-size="14.00"> &#160;Module</text>
<polygon fill="#80b1d3" stroke="transparent" points="1298.5,-10 1298.5,-30 1318.5,-30 1318.5,-10 1298.5,-10"/>
<text text-anchor="start" x="1322.28" y="-15.4" font-family="sans-serif" font-size="14.00"> &#160;Bootstrap</text>
<polygon fill="#fdb462" stroke="transparent" points="1395.5,-10 1395.5,-30 1415.5,-30 1415.5,-10 1395.5,-10"/>
<text text-anchor="start" x="1419.17" y="-15.4" font-family="sans-serif" font-size="14.00"> &#160;Providers</text>
<polygon fill="#fb8072" stroke="transparent" points="1491.5,-10 1491.5,-30 1511.5,-30 1511.5,-10 1491.5,-10"/>
<text text-anchor="start" x="1515.23" y="-15.4" font-family="sans-serif" font-size="14.00"> &#160;Exports</text>
<g id="clust1" class="cluster">
<title>cluster_AuthModule</title>
<polygon fill="none" stroke="black" stroke-dasharray="1,5" points="423,-146 423,-282 679,-282 679,-146 423,-146"/>
</g>
<g id="clust3" class="cluster">
<title>cluster_AuthModule_imports</title>
<polygon fill="none" stroke="black" points="431,-154 431,-206 533,-206 533,-154 431,-154"/>
</g>
<g id="clust6" class="cluster">
<title>cluster_AuthModule_providers</title>
<polygon fill="none" stroke="black" points="541,-154 541,-206 671,-206 671,-154 541,-154"/>
</g>
<g id="clust7" class="cluster">
<title>cluster_AuthorizationModule</title>
<polygon fill="none" stroke="black" stroke-dasharray="1,5" points="1665,-70 1665,-290 2225,-290 2225,-70 1665,-70"/>
</g>
<g id="clust9" class="cluster">
<title>cluster_AuthorizationModule_imports</title>
<polygon fill="none" stroke="black" points="2095,-78 2095,-130 2217,-130 2217,-78 2095,-78"/>
</g>
<g id="clust10" class="cluster">
<title>cluster_AuthorizationModule_exports</title>
<polygon fill="none" stroke="black" points="1803,-230 1803,-282 1959,-282 1959,-230 1803,-230"/>
</g>
<g id="clust12" class="cluster">
<title>cluster_AuthorizationModule_providers</title>
<polygon fill="none" stroke="black" points="1673,-78 1673,-130 2087,-130 2087,-78 1673,-78"/>
</g>
<g id="clust13" class="cluster">
<title>cluster_CoreModule</title>
<polygon fill="none" stroke="black" stroke-dasharray="1,5" points="687,-146 687,-282 1202,-282 1202,-146 687,-146"/>
</g>
<g id="clust15" class="cluster">
<title>cluster_CoreModule_imports</title>
<polygon fill="none" stroke="black" points="695,-154 695,-206 1194,-206 1194,-154 695,-154"/>
</g>
<g id="clust25" class="cluster">
<title>cluster_FeathersModule</title>
<polygon fill="none" stroke="black" stroke-dasharray="1,5" points="2233,-146 2233,-214 2659,-214 2659,-146 2233,-146"/>
</g>
<g id="clust28" class="cluster">
<title>cluster_FeathersModule_exports</title>
<polygon fill="none" stroke="black" points="2477,-154 2477,-206 2651,-206 2651,-154 2477,-154"/>
</g>
<g id="clust30" class="cluster">
<title>cluster_FeathersModule_providers</title>
<polygon fill="none" stroke="black" points="2241,-154 2241,-206 2469,-206 2469,-154 2241,-154"/>
</g>
<g id="clust37" class="cluster">
<title>cluster_LoggerModule</title>
<polygon fill="none" stroke="black" stroke-dasharray="1,5" points="1210,-222 1210,-290 1404,-290 1404,-222 1210,-222"/>
</g>
<g id="clust40" class="cluster">
<title>cluster_LoggerModule_exports</title>
<polygon fill="none" stroke="black" points="1320,-230 1320,-282 1396,-282 1396,-230 1320,-230"/>
</g>
<g id="clust42" class="cluster">
<title>cluster_LoggerModule_providers</title>
<polygon fill="none" stroke="black" points="1218,-230 1218,-282 1312,-282 1312,-230 1218,-230"/>
</g>
<g id="clust49" class="cluster">
<title>cluster_NewsModule</title>
<polygon fill="none" stroke="black" stroke-dasharray="1,5" points="1412,-146 1412,-358 1657,-358 1657,-146 1412,-146"/>
</g>
<g id="clust52" class="cluster">
<title>cluster_NewsModule_exports</title>
<polygon fill="none" stroke="black" points="1488,-298 1488,-350 1572,-350 1572,-298 1488,-298"/>
</g>
<g id="clust54" class="cluster">
<title>cluster_NewsModule_providers</title>
<polygon fill="none" stroke="black" points="1420,-154 1420,-206 1649,-206 1649,-154 1420,-154"/>
</g>
<g id="clust55" class="cluster">
<title>cluster_ServerModule</title>
<polygon fill="none" stroke="black" stroke-dasharray="1,5" points="268,-222 268,-350 386,-350 386,-222 268,-222"/>
</g>
<g id="clust57" class="cluster">
<title>cluster_ServerModule_imports</title>
<polygon fill="none" stroke="black" points="276,-230 276,-282 378,-282 378,-230 276,-230"/>
</g>
<g id="clust61" class="cluster">
<title>cluster_TaskModule</title>
<polygon fill="none" stroke="black" stroke-dasharray="1,5" points="8,-146 8,-214 415,-214 415,-146 8,-146"/>
</g>
<g id="clust66" class="cluster">
<title>cluster_TaskModule_providers</title>
<polygon fill="none" stroke="black" points="16,-154 16,-206 407,-206 407,-154 16,-154"/>
</g>
<g id="clust67" class="cluster">
<title>cluster_UserModule</title>
<polygon fill="none" stroke="black" stroke-dasharray="1,5" points="189,-70 189,-138 782,-138 782,-70 189,-70"/>
</g>
<g id="clust70" class="cluster">
<title>cluster_UserModule_exports</title>
<polygon fill="none" stroke="black" points="672,-78 672,-130 774,-130 774,-78 672,-78"/>
</g>
<g id="clust72" class="cluster">
<title>cluster_UserModule_providers</title>
<polygon fill="none" stroke="black" points="197,-78 197,-130 664,-130 664,-78 197,-78"/>
</g>
<!-- UserModule -->
<g id="node1" class="node">
<title>UserModule</title>
<polygon fill="#8dd3c7" stroke="black" points="524.98,-198 521.98,-202 500.98,-202 497.98,-198 439.02,-198 439.02,-162 524.98,-162 524.98,-198"/>
<text text-anchor="middle" x="482" y="-175.8" font-family="Times,serif" font-size="14.00">UserModule</text>
</g>
<!-- AuthModule -->
<g id="node2" class="node">
<title>AuthModule</title>
<polygon fill="#8dd3c7" stroke="black" points="525.55,-274 522.55,-278 501.55,-278 498.55,-274 438.45,-274 438.45,-238 525.55,-238 525.55,-274"/>
<text text-anchor="middle" x="482" y="-251.8" font-family="Times,serif" font-size="14.00">AuthModule</text>
</g>
<!-- UserModule&#45;&gt;AuthModule -->
<g id="edge1" class="edge">
<title>UserModule&#45;&gt;AuthModule</title>
<path fill="none" stroke="black" d="M482,-198.01C482,-198.01 482,-227.85 482,-227.85"/>
<polygon fill="black" stroke="black" points="478.5,-227.85 482,-237.85 485.5,-227.85 478.5,-227.85"/>
</g>
<!-- ServerModule -->
<g id="node23" class="node">
<title>ServerModule</title>
<polygon fill="#8dd3c7" stroke="black" points="378.08,-342 375.08,-346 354.08,-346 351.08,-342 281.92,-342 281.92,-306 378.08,-306 378.08,-342"/>
<text text-anchor="middle" x="330" y="-319.8" font-family="Times,serif" font-size="14.00">ServerModule</text>
</g>
<!-- UserModule&#45;&gt;ServerModule -->
<g id="edge23" class="edge">
<title>UserModule&#45;&gt;ServerModule</title>
<path fill="none" stroke="black" d="M438.69,-186C426.51,-186 416.52,-186 416.52,-186 416.52,-186 416.52,-318 416.52,-318 416.52,-318 388.07,-318 388.07,-318"/>
<polygon fill="black" stroke="black" points="388.07,-314.5 378.07,-318 388.07,-321.5 388.07,-314.5"/>
</g>
<!-- UserFacade  -->
<g id="node27" class="node">
<title>UserFacade </title>
<polygon fill="#fb8072" stroke="black" points="765.57,-122 680.43,-122 680.43,-86 765.57,-86 765.57,-122"/>
<text text-anchor="middle" x="723" y="-99.8" font-family="Times,serif" font-size="14.00">UserFacade </text>
</g>
<!-- UserModule&#45;&gt;UserFacade  -->
<g id="edge27" class="edge">
<title>UserModule&#45;&gt;UserFacade </title>
<path fill="none" stroke="black" stroke-dasharray="5,2" d="M503.49,-161.85C503.49,-149.73 503.49,-136 503.49,-136 503.49,-136 691.45,-136 691.45,-136 691.45,-136 691.45,-132.24 691.45,-132.24"/>
<polygon fill="black" stroke="black" points="694.95,-132.24 691.45,-122.24 687.95,-132.24 694.95,-132.24"/>
</g>
<!-- AuthModule&#45;&gt;ServerModule -->
<g id="edge20" class="edge">
<title>AuthModule&#45;&gt;ServerModule</title>
<path fill="none" stroke="black" d="M438.16,-256C408.32,-256 374.21,-256 374.21,-256 374.21,-256 374.21,-295.78 374.21,-295.78"/>
<polygon fill="black" stroke="black" points="370.71,-295.78 374.21,-305.78 377.71,-295.78 370.71,-295.78"/>
</g>
<!-- JwtStrategy -->
<g id="node3" class="node">
<title>JwtStrategy</title>
<ellipse fill="#fdb462" stroke="black" cx="606" cy="-180" rx="56.76" ry="18"/>
<text text-anchor="middle" x="606" y="-175.8" font-family="Times,serif" font-size="14.00">JwtStrategy</text>
</g>
<!-- JwtStrategy&#45;&gt;AuthModule -->
<g id="edge2" class="edge">
<title>JwtStrategy&#45;&gt;AuthModule</title>
<path fill="none" stroke="black" d="M606,-198.2C606,-222.36 606,-262 606,-262 606,-262 535.72,-262 535.72,-262"/>
<polygon fill="black" stroke="black" points="535.72,-258.5 525.72,-262 535.72,-265.5 535.72,-258.5"/>
</g>
<!-- FeathersModule -->
<g id="node4" class="node">
<title>FeathersModule</title>
<polygon fill="#8dd3c7" stroke="black" points="2209.47,-122 2206.47,-126 2185.47,-126 2182.47,-122 2102.53,-122 2102.53,-86 2209.47,-86 2209.47,-122"/>
<text text-anchor="middle" x="2156" y="-99.8" font-family="Times,serif" font-size="14.00">FeathersModule</text>
</g>
<!-- AuthorizationModule -->
<g id="node5" class="node">
<title>AuthorizationModule</title>
<polygon fill="#8dd3c7" stroke="black" points="1949.81,-198 1946.81,-202 1925.81,-202 1922.81,-198 1812.19,-198 1812.19,-162 1949.81,-162 1949.81,-198"/>
<text text-anchor="middle" x="1881" y="-175.8" font-family="Times,serif" font-size="14.00">AuthorizationModule</text>
</g>
<!-- FeathersModule&#45;&gt;AuthorizationModule -->
<g id="edge3" class="edge">
<title>FeathersModule&#45;&gt;AuthorizationModule</title>
<path fill="none" stroke="black" d="M2138.17,-122.03C2138.17,-142.77 2138.17,-174 2138.17,-174 2138.17,-174 1959.92,-174 1959.92,-174"/>
<polygon fill="black" stroke="black" points="1959.92,-170.5 1949.92,-174 1959.92,-177.5 1959.92,-170.5"/>
</g>
<!-- FeathersServiceProvider  -->
<g id="node14" class="node">
<title>FeathersServiceProvider </title>
<polygon fill="#fb8072" stroke="black" points="2642.61,-198 2485.39,-198 2485.39,-162 2642.61,-162 2642.61,-198"/>
<text text-anchor="middle" x="2564" y="-175.8" font-family="Times,serif" font-size="14.00">FeathersServiceProvider </text>
</g>
<!-- FeathersModule&#45;&gt;FeathersServiceProvider  -->
<g id="edge11" class="edge">
<title>FeathersModule&#45;&gt;FeathersServiceProvider </title>
<path fill="none" stroke="black" stroke-dasharray="5,2" d="M2209.76,-104C2320.55,-104 2564,-104 2564,-104 2564,-104 2564,-151.99 2564,-151.99"/>
<polygon fill="black" stroke="black" points="2560.5,-151.99 2564,-161.99 2567.5,-151.99 2560.5,-151.99"/>
</g>
<!-- AuthorizationService  -->
<g id="node6" class="node">
<title>AuthorizationService </title>
<polygon fill="#fb8072" stroke="black" points="1950.74,-274 1811.26,-274 1811.26,-238 1950.74,-238 1950.74,-274"/>
<text text-anchor="middle" x="1881" y="-251.8" font-family="Times,serif" font-size="14.00">AuthorizationService </text>
</g>
<!-- AuthorizationModule&#45;&gt;AuthorizationService  -->
<g id="edge4" class="edge">
<title>AuthorizationModule&#45;&gt;AuthorizationService </title>
<path fill="none" stroke="black" stroke-dasharray="5,2" d="M1881,-198.01C1881,-198.01 1881,-227.85 1881,-227.85"/>
<polygon fill="black" stroke="black" points="1877.5,-227.85 1881,-237.85 1884.5,-227.85 1877.5,-227.85"/>
</g>
<!-- NewsModule -->
<g id="node18" class="node">
<title>NewsModule</title>
<polygon fill="#8dd3c7" stroke="black" points="1575.92,-274 1572.92,-278 1551.92,-278 1548.92,-274 1484.08,-274 1484.08,-238 1575.92,-238 1575.92,-274"/>
<text text-anchor="middle" x="1530" y="-251.8" font-family="Times,serif" font-size="14.00">NewsModule</text>
</g>
<!-- AuthorizationModule&#45;&gt;NewsModule -->
<g id="edge15" class="edge">
<title>AuthorizationModule&#45;&gt;NewsModule</title>
<path fill="none" stroke="black" d="M1812.31,-180C1747.77,-180 1661.05,-180 1661.05,-180 1661.05,-180 1661.05,-256 1661.05,-256 1661.05,-256 1585.83,-256 1585.83,-256"/>
<polygon fill="black" stroke="black" points="1585.83,-252.5 1575.83,-256 1585.83,-259.5 1585.83,-252.5"/>
</g>
<!-- AuthorizationService -->
<g id="node7" class="node">
<title>AuthorizationService</title>
<ellipse fill="#fdb462" stroke="black" cx="1985" cy="-104" rx="93.76" ry="18"/>
<text text-anchor="middle" x="1985" y="-99.8" font-family="Times,serif" font-size="14.00">AuthorizationService</text>
</g>
<!-- AuthorizationService&#45;&gt;AuthorizationModule -->
<g id="edge5" class="edge">
<title>AuthorizationService&#45;&gt;AuthorizationModule</title>
<path fill="none" stroke="black" d="M1920.51,-117.24C1920.51,-117.24 1920.51,-151.79 1920.51,-151.79"/>
<polygon fill="black" stroke="black" points="1917.01,-151.79 1920.51,-161.79 1924.01,-151.79 1917.01,-151.79"/>
</g>
<!-- FeathersAuthProvider -->
<g id="node8" class="node">
<title>FeathersAuthProvider</title>
<ellipse fill="#fdb462" stroke="black" cx="1777" cy="-104" rx="96.13" ry="18"/>
<text text-anchor="middle" x="1777" y="-99.8" font-family="Times,serif" font-size="14.00">FeathersAuthProvider</text>
</g>
<!-- FeathersAuthProvider&#45;&gt;AuthorizationModule -->
<g id="edge6" class="edge">
<title>FeathersAuthProvider&#45;&gt;AuthorizationModule</title>
<path fill="none" stroke="black" d="M1842.83,-117.24C1842.83,-117.24 1842.83,-151.79 1842.83,-151.79"/>
<polygon fill="black" stroke="black" points="1839.33,-151.79 1842.83,-161.79 1846.33,-151.79 1839.33,-151.79"/>
</g>
<!-- ErrorModule -->
<g id="node9" class="node">
<title>ErrorModule</title>
<polygon fill="#8dd3c7" stroke="black" points="1067.58,-198 1064.58,-202 1043.58,-202 1040.58,-198 978.42,-198 978.42,-162 1067.58,-162 1067.58,-198"/>
<text text-anchor="middle" x="1023" y="-175.8" font-family="Times,serif" font-size="14.00">ErrorModule</text>
</g>
<!-- CoreModule -->
<g id="node13" class="node">
<title>CoreModule</title>
<polygon fill="#8dd3c7" stroke="black" points="943.26,-274 940.26,-278 919.26,-278 916.26,-274 856.74,-274 856.74,-238 943.26,-238 943.26,-274"/>
<text text-anchor="middle" x="900" y="-251.8" font-family="Times,serif" font-size="14.00">CoreModule</text>
</g>
<!-- ErrorModule&#45;&gt;CoreModule -->
<g id="edge7" class="edge">
<title>ErrorModule&#45;&gt;CoreModule</title>
<path fill="none" stroke="black" d="M1023,-198.03C1023,-218.77 1023,-250 1023,-250 1023,-250 953.37,-250 953.37,-250"/>
<polygon fill="black" stroke="black" points="953.37,-246.5 943.37,-250 953.37,-253.5 953.37,-246.5"/>
</g>
<!-- InterceptorModule -->
<g id="node10" class="node">
<title>InterceptorModule</title>
<polygon fill="#8dd3c7" stroke="black" points="960.46,-198 957.46,-202 936.46,-202 933.46,-198 839.54,-198 839.54,-162 960.46,-162 960.46,-198"/>
<text text-anchor="middle" x="900" y="-175.8" font-family="Times,serif" font-size="14.00">InterceptorModule</text>
</g>
<!-- InterceptorModule&#45;&gt;CoreModule -->
<g id="edge8" class="edge">
<title>InterceptorModule&#45;&gt;CoreModule</title>
<path fill="none" stroke="black" d="M900,-198.01C900,-198.01 900,-227.85 900,-227.85"/>
<polygon fill="black" stroke="black" points="896.5,-227.85 900,-237.85 903.5,-227.85 896.5,-227.85"/>
</g>
<!-- LoggerModule -->
<g id="node11" class="node">
<title>LoggerModule</title>
<polygon fill="#8dd3c7" stroke="black" points="1185.98,-198 1182.98,-202 1161.98,-202 1158.98,-198 1086.02,-198 1086.02,-162 1185.98,-162 1185.98,-198"/>
<text text-anchor="middle" x="1136" y="-175.8" font-family="Times,serif" font-size="14.00">LoggerModule</text>
</g>
<!-- LoggerModule&#45;&gt;CoreModule -->
<g id="edge9" class="edge">
<title>LoggerModule&#45;&gt;CoreModule</title>
<path fill="none" stroke="black" d="M1136,-198.2C1136,-222.36 1136,-262 1136,-262 1136,-262 953.29,-262 953.29,-262"/>
<polygon fill="black" stroke="black" points="953.29,-258.5 943.29,-262 953.29,-265.5 953.29,-258.5"/>
</g>
<!-- Logger  -->
<g id="node16" class="node">
<title>Logger </title>
<polygon fill="#fb8072" stroke="black" points="1387.93,-274 1328.07,-274 1328.07,-238 1387.93,-238 1387.93,-274"/>
<text text-anchor="middle" x="1358" y="-251.8" font-family="Times,serif" font-size="14.00">Logger </text>
</g>
<!-- LoggerModule&#45;&gt;Logger  -->
<g id="edge13" class="edge">
<title>LoggerModule&#45;&gt;Logger </title>
<path fill="none" stroke="black" stroke-dasharray="5,2" d="M1186.1,-180C1251.57,-180 1358,-180 1358,-180 1358,-180 1358,-227.99 1358,-227.99"/>
<polygon fill="black" stroke="black" points="1354.5,-227.99 1358,-237.99 1361.5,-227.99 1354.5,-227.99"/>
</g>
<!-- LoggerModule&#45;&gt;NewsModule -->
<g id="edge16" class="edge">
<title>LoggerModule&#45;&gt;NewsModule</title>
<path fill="none" stroke="black" d="M1186.18,-171C1264.72,-171 1407.84,-171 1407.84,-171 1407.84,-171 1407.84,-256 1407.84,-256 1407.84,-256 1474.17,-256 1474.17,-256"/>
<polygon fill="black" stroke="black" points="1474.17,-259.5 1484.17,-256 1474.17,-252.5 1474.17,-259.5"/>
</g>
<!-- ValidationModule -->
<g id="node12" class="node">
<title>ValidationModule</title>
<polygon fill="#8dd3c7" stroke="black" points="821.15,-198 818.15,-202 797.15,-202 794.15,-198 702.85,-198 702.85,-162 821.15,-162 821.15,-198"/>
<text text-anchor="middle" x="762" y="-175.8" font-family="Times,serif" font-size="14.00">ValidationModule</text>
</g>
<!-- ValidationModule&#45;&gt;CoreModule -->
<g id="edge10" class="edge">
<title>ValidationModule&#45;&gt;CoreModule</title>
<path fill="none" stroke="black" d="M762,-198.03C762,-218.77 762,-250 762,-250 762,-250 846.71,-250 846.71,-250"/>
<polygon fill="black" stroke="black" points="846.71,-253.5 856.71,-250 846.71,-246.5 846.71,-253.5"/>
</g>
<!-- CoreModule&#45;&gt;ServerModule -->
<g id="edge21" class="edge">
<title>CoreModule&#45;&gt;ServerModule</title>
<path fill="none" stroke="black" d="M900,-274.29C900,-296.21 900,-330 900,-330 900,-330 388.11,-330 388.11,-330"/>
<polygon fill="black" stroke="black" points="388.11,-326.5 378.11,-330 388.11,-333.5 388.11,-326.5"/>
</g>
<!-- FeathersServiceProvider -->
<g id="node15" class="node">
<title>FeathersServiceProvider</title>
<ellipse fill="#fdb462" stroke="black" cx="2355" cy="-180" rx="105.91" ry="18"/>
<text text-anchor="middle" x="2355" y="-175.8" font-family="Times,serif" font-size="14.00">FeathersServiceProvider</text>
</g>
<!-- FeathersServiceProvider&#45;&gt;FeathersModule -->
<g id="edge12" class="edge">
<title>FeathersServiceProvider&#45;&gt;FeathersModule</title>
<path fill="none" stroke="black" d="M2254.88,-186C2212.98,-186 2173.83,-186 2173.83,-186 2173.83,-186 2173.83,-132.2 2173.83,-132.2"/>
<polygon fill="black" stroke="black" points="2177.33,-132.2 2173.83,-122.2 2170.33,-132.2 2177.33,-132.2"/>
</g>
<!-- Logger -->
<g id="node17" class="node">
<title>Logger</title>
<ellipse fill="#fdb462" stroke="black" cx="1265" cy="-256" rx="38.85" ry="18"/>
<text text-anchor="middle" x="1265" y="-251.8" font-family="Times,serif" font-size="14.00">Logger</text>
</g>
<!-- Logger&#45;&gt;LoggerModule -->
<g id="edge14" class="edge">
<title>Logger&#45;&gt;LoggerModule</title>
<path fill="none" stroke="black" d="M1265,-237.69C1265,-217.85 1265,-189 1265,-189 1265,-189 1196.24,-189 1196.24,-189"/>
<polygon fill="black" stroke="black" points="1196.24,-185.5 1186.24,-189 1196.24,-192.5 1196.24,-185.5"/>
</g>
<!-- NewsUc  -->
<g id="node19" class="node">
<title>NewsUc </title>
<polygon fill="#fb8072" stroke="black" points="1563.69,-342 1496.31,-342 1496.31,-306 1563.69,-306 1563.69,-342"/>
<text text-anchor="middle" x="1530" y="-319.8" font-family="Times,serif" font-size="14.00">NewsUc </text>
</g>
<!-- NewsModule&#45;&gt;NewsUc  -->
<g id="edge17" class="edge">
<title>NewsModule&#45;&gt;NewsUc </title>
<path fill="none" stroke="black" stroke-dasharray="5,2" d="M1530,-274.22C1530,-274.22 1530,-295.73 1530,-295.73"/>
<polygon fill="black" stroke="black" points="1526.5,-295.73 1530,-305.73 1533.5,-295.73 1526.5,-295.73"/>
</g>
<!-- NewsRepo -->
<g id="node20" class="node">
<title>NewsRepo</title>
<ellipse fill="#fdb462" stroke="black" cx="1588" cy="-180" rx="53.31" ry="18"/>
<text text-anchor="middle" x="1588" y="-175.8" font-family="Times,serif" font-size="14.00">NewsRepo</text>
</g>
<!-- NewsRepo&#45;&gt;NewsModule -->
<g id="edge18" class="edge">
<title>NewsRepo&#45;&gt;NewsModule</title>
<path fill="none" stroke="black" d="M1555.15,-194.3C1555.15,-194.3 1555.15,-227.73 1555.15,-227.73"/>
<polygon fill="black" stroke="black" points="1551.65,-227.73 1555.15,-237.73 1558.65,-227.73 1551.65,-227.73"/>
</g>
<!-- NewsUc -->
<g id="node21" class="node">
<title>NewsUc</title>
<ellipse fill="#fdb462" stroke="black" cx="1472" cy="-180" rx="44.06" ry="18"/>
<text text-anchor="middle" x="1472" y="-175.8" font-family="Times,serif" font-size="14.00">NewsUc</text>
</g>
<!-- NewsUc&#45;&gt;NewsModule -->
<g id="edge19" class="edge">
<title>NewsUc&#45;&gt;NewsModule</title>
<path fill="none" stroke="black" d="M1500.28,-193.94C1500.28,-193.94 1500.28,-227.84 1500.28,-227.84"/>
<polygon fill="black" stroke="black" points="1496.78,-227.84 1500.28,-237.84 1503.78,-227.84 1496.78,-227.84"/>
</g>
<!-- TaskModule -->
<g id="node22" class="node">
<title>TaskModule</title>
<polygon fill="#8dd3c7" stroke="black" points="370.26,-274 367.26,-278 346.26,-278 343.26,-274 283.74,-274 283.74,-238 370.26,-238 370.26,-274"/>
<text text-anchor="middle" x="327" y="-251.8" font-family="Times,serif" font-size="14.00">TaskModule</text>
</g>
<!-- TaskModule&#45;&gt;ServerModule -->
<g id="edge22" class="edge">
<title>TaskModule&#45;&gt;ServerModule</title>
<path fill="none" stroke="black" d="M327,-274.22C327,-274.22 327,-295.73 327,-295.73"/>
<polygon fill="black" stroke="black" points="323.5,-295.73 327,-305.73 330.5,-295.73 323.5,-295.73"/>
</g>
<!-- SubmissionRepo -->
<g id="node24" class="node">
<title>SubmissionRepo</title>
<ellipse fill="#fdb462" stroke="black" cx="323" cy="-180" rx="76.49" ry="18"/>
<text text-anchor="middle" x="323" y="-175.8" font-family="Times,serif" font-size="14.00">SubmissionRepo</text>
</g>
<!-- SubmissionRepo&#45;&gt;TaskModule -->
<g id="edge24" class="edge">
<title>SubmissionRepo&#45;&gt;TaskModule</title>
<path fill="none" stroke="black" d="M327,-198.01C327,-198.01 327,-227.85 327,-227.85"/>
<polygon fill="black" stroke="black" points="323.5,-227.85 327,-237.85 330.5,-227.85 323.5,-227.85"/>
</g>
<!-- TaskRepo -->
<g id="node25" class="node">
<title>TaskRepo</title>
<ellipse fill="#fdb462" stroke="black" cx="178" cy="-180" rx="50.38" ry="18"/>
<text text-anchor="middle" x="178" y="-175.8" font-family="Times,serif" font-size="14.00">TaskRepo</text>
</g>
<!-- TaskRepo&#45;&gt;TaskModule -->
<g id="edge25" class="edge">
<title>TaskRepo&#45;&gt;TaskModule</title>
<path fill="none" stroke="black" d="M178,-198.03C178,-218.77 178,-250 178,-250 178,-250 273.5,-250 273.5,-250"/>
<polygon fill="black" stroke="black" points="273.5,-253.5 283.5,-250 273.5,-246.5 273.5,-253.5"/>
</g>
<!-- TaskUC -->
<g id="node26" class="node">
<title>TaskUC</title>
<ellipse fill="#fdb462" stroke="black" cx="67" cy="-180" rx="43.44" ry="18"/>
<text text-anchor="middle" x="67" y="-175.8" font-family="Times,serif" font-size="14.00">TaskUC</text>
</g>
<!-- TaskUC&#45;&gt;TaskModule -->
<g id="edge26" class="edge">
<title>TaskUC&#45;&gt;TaskModule</title>
<path fill="none" stroke="black" d="M67,-198.2C67,-222.36 67,-262 67,-262 67,-262 273.48,-262 273.48,-262"/>
<polygon fill="black" stroke="black" points="273.48,-265.5 283.48,-262 273.48,-258.5 273.48,-265.5"/>
</g>
<!-- RoleRepo -->
<g id="node28" class="node">
<title>RoleRepo</title>
<ellipse fill="#fdb462" stroke="black" cx="606" cy="-104" rx="49.82" ry="18"/>
<text text-anchor="middle" x="606" y="-99.8" font-family="Times,serif" font-size="14.00">RoleRepo</text>
</g>
<!-- RoleRepo&#45;&gt;UserModule -->
<g id="edge28" class="edge">
<title>RoleRepo&#45;&gt;UserModule</title>
<path fill="none" stroke="black" d="M556.24,-104C549.03,-104 543.99,-104 543.99,-104 543.99,-104 543.99,-180 543.99,-180 543.99,-180 535.05,-180 535.05,-180"/>
<polygon fill="black" stroke="black" points="535.05,-176.5 525.05,-180 535.05,-183.5 535.05,-176.5"/>
</g>
<!-- UserFacade -->
<g id="node29" class="node">
<title>UserFacade</title>
<ellipse fill="#fdb462" stroke="black" cx="482" cy="-104" rx="56.72" ry="18"/>
<text text-anchor="middle" x="482" y="-99.8" font-family="Times,serif" font-size="14.00">UserFacade</text>
</g>
<!-- UserFacade&#45;&gt;UserModule -->
<g id="edge29" class="edge">
<title>UserFacade&#45;&gt;UserModule</title>
<path fill="none" stroke="black" d="M482,-122.01C482,-122.01 482,-151.85 482,-151.85"/>
<polygon fill="black" stroke="black" points="478.5,-151.85 482,-161.85 485.5,-151.85 478.5,-151.85"/>
</g>
<!-- UserRepo -->
<g id="node30" class="node">
<title>UserRepo</title>
<ellipse fill="#fdb462" stroke="black" cx="358" cy="-104" rx="49.8" ry="18"/>
<text text-anchor="middle" x="358" y="-99.8" font-family="Times,serif" font-size="14.00">UserRepo</text>
</g>
<!-- UserRepo&#45;&gt;UserModule -->
<g id="edge30" class="edge">
<title>UserRepo&#45;&gt;UserModule</title>
<path fill="none" stroke="black" d="M403.57,-111.23C403.57,-129.11 403.57,-174 403.57,-174 403.57,-174 428.66,-174 428.66,-174"/>
<polygon fill="black" stroke="black" points="428.66,-177.5 438.66,-174 428.66,-170.5 428.66,-177.5"/>
</g>
<!-- UserUC -->
<g id="node31" class="node">
<title>UserUC</title>
<ellipse fill="#fdb462" stroke="black" cx="248" cy="-104" rx="42.85" ry="18"/>
<text text-anchor="middle" x="248" y="-99.8" font-family="Times,serif" font-size="14.00">UserUC</text>
</g>
<!-- UserUC&#45;&gt;UserModule -->
<g id="edge31" class="edge">
<title>UserUC&#45;&gt;UserModule</title>
<path fill="none" stroke="black" d="M268.59,-119.99C268.59,-132.93 268.59,-149 268.59,-149 268.59,-149 460.51,-149 460.51,-149 460.51,-149 460.51,-151.97 460.51,-151.97"/>
<polygon fill="black" stroke="black" points="457.01,-151.97 460.51,-161.97 464.01,-151.97 457.01,-151.97"/>
</g>
</g>
</svg>
