<?xml version="1.0" encoding="UTF-8" standalone="no"?>
<!DOCTYPE svg PUBLIC "-//W3C//DTD SVG 1.1//EN"
 "http://www.w3.org/Graphics/SVG/1.1/DTD/svg11.dtd">
<!-- Generated by graphviz version 2.47.0 (20210316.0004)
 -->
<!-- Title: dependencies Pages: 1 -->
<svg width="2565pt" height="366pt"
 viewBox="0.00 0.00 2565.00 366.00" xmlns="http://www.w3.org/2000/svg" xmlns:xlink="http://www.w3.org/1999/xlink">
<g id="graph0" class="graph" transform="scale(1 1) rotate(0) translate(4 362)">
<title>dependencies</title>
<polygon fill="white" stroke="transparent" points="-4,4 -4,-362 2561,-362 2561,4 -4,4"/>
<text text-anchor="start" x="1257.51" y="-42.4" font-family="sans-serif" font-weight="bold" font-size="14.00">Legend</text>
<polygon fill="#ffffb3" stroke="transparent" points="1044.5,-10 1044.5,-30 1064.5,-30 1064.5,-10 1044.5,-10"/>
<text text-anchor="start" x="1068.13" y="-15.4" font-family="sans-serif" font-size="14.00"> &#160;Declarations</text>
<polygon fill="#8dd3c7" stroke="transparent" points="1157.5,-10 1157.5,-30 1177.5,-30 1177.5,-10 1157.5,-10"/>
<text text-anchor="start" x="1181.23" y="-15.4" font-family="sans-serif" font-size="14.00"> &#160;Module</text>
<polygon fill="#80b1d3" stroke="transparent" points="1243.5,-10 1243.5,-30 1263.5,-30 1263.5,-10 1243.5,-10"/>
<text text-anchor="start" x="1267.28" y="-15.4" font-family="sans-serif" font-size="14.00"> &#160;Bootstrap</text>
<polygon fill="#fdb462" stroke="transparent" points="1340.5,-10 1340.5,-30 1360.5,-30 1360.5,-10 1340.5,-10"/>
<text text-anchor="start" x="1364.17" y="-15.4" font-family="sans-serif" font-size="14.00"> &#160;Providers</text>
<polygon fill="#fb8072" stroke="transparent" points="1436.5,-10 1436.5,-30 1456.5,-30 1456.5,-10 1436.5,-10"/>
<text text-anchor="start" x="1460.23" y="-15.4" font-family="sans-serif" font-size="14.00"> &#160;Exports</text>
<g id="clust1" class="cluster">
<title>cluster_AuthModule</title>
<polygon fill="none" stroke="black" stroke-dasharray="1,5" points="8,-138 8,-274 154,-274 154,-138 8,-138"/>
</g>
<g id="clust6" class="cluster">
<title>cluster_AuthModule_providers</title>
<polygon fill="none" stroke="black" points="16,-146 16,-198 146,-198 146,-146 16,-146"/>
</g>
<g id="clust7" class="cluster">
<title>cluster_AuthorizationModule</title>
<polygon fill="none" stroke="black" stroke-dasharray="1,5" points="1555,-70 1555,-282 2115,-282 2115,-70 1555,-70"/>
</g>
<g id="clust9" class="cluster">
<title>cluster_AuthorizationModule_imports</title>
<polygon fill="none" stroke="black" points="1985,-78 1985,-130 2107,-130 2107,-78 1985,-78"/>
</g>
<g id="clust10" class="cluster">
<title>cluster_AuthorizationModule_exports</title>
<polygon fill="none" stroke="black" points="1693,-222 1693,-274 1849,-274 1849,-222 1693,-222"/>
</g>
<g id="clust12" class="cluster">
<title>cluster_AuthorizationModule_providers</title>
<polygon fill="none" stroke="black" points="1563,-78 1563,-130 1977,-130 1977,-78 1563,-78"/>
</g>
<g id="clust13" class="cluster">
<title>cluster_CoreModule</title>
<polygon fill="none" stroke="black" stroke-dasharray="1,5" points="577,-138 577,-274 1092,-274 1092,-138 577,-138"/>
</g>
<g id="clust15" class="cluster">
<title>cluster_CoreModule_imports</title>
<polygon fill="none" stroke="black" points="585,-146 585,-198 1084,-198 1084,-146 585,-146"/>
</g>
<g id="clust25" class="cluster">
<title>cluster_FeathersModule</title>
<polygon fill="none" stroke="black" stroke-dasharray="1,5" points="2123,-138 2123,-206 2549,-206 2549,-138 2123,-138"/>
</g>
<g id="clust28" class="cluster">
<title>cluster_FeathersModule_exports</title>
<polygon fill="none" stroke="black" points="2367,-146 2367,-198 2541,-198 2541,-146 2367,-146"/>
</g>
<g id="clust30" class="cluster">
<title>cluster_FeathersModule_providers</title>
<polygon fill="none" stroke="black" points="2131,-146 2131,-198 2359,-198 2359,-146 2131,-146"/>
</g>
<g id="clust37" class="cluster">
<title>cluster_LoggerModule</title>
<polygon fill="none" stroke="black" stroke-dasharray="1,5" points="1100,-214 1100,-282 1294,-282 1294,-214 1100,-214"/>
</g>
<g id="clust40" class="cluster">
<title>cluster_LoggerModule_exports</title>
<polygon fill="none" stroke="black" points="1210,-222 1210,-274 1286,-274 1286,-222 1210,-222"/>
</g>
<g id="clust42" class="cluster">
<title>cluster_LoggerModule_providers</title>
<polygon fill="none" stroke="black" points="1108,-222 1108,-274 1202,-274 1202,-222 1108,-222"/>
</g>
<g id="clust49" class="cluster">
<title>cluster_NewsModule</title>
<polygon fill="none" stroke="black" stroke-dasharray="1,5" points="1302,-138 1302,-350 1547,-350 1547,-138 1302,-138"/>
</g>
<g id="clust52" class="cluster">
<title>cluster_NewsModule_exports</title>
<polygon fill="none" stroke="black" points="1378,-290 1378,-342 1462,-342 1462,-290 1378,-290"/>
</g>
<g id="clust54" class="cluster">
<title>cluster_NewsModule_providers</title>
<polygon fill="none" stroke="black" points="1310,-146 1310,-198 1539,-198 1539,-146 1310,-146"/>
</g>
<g id="clust55" class="cluster">
<title>cluster_ServerModule</title>
<polygon fill="none" stroke="black" stroke-dasharray="1,5" points="273,-214 273,-342 391,-342 391,-214 273,-214"/>
</g>
<g id="clust57" class="cluster">
<title>cluster_ServerModule_imports</title>
<polygon fill="none" stroke="black" points="281,-222 281,-274 383,-274 383,-222 281,-222"/>
</g>
<g id="clust61" class="cluster">
<title>cluster_TaskModule</title>
<polygon fill="none" stroke="black" stroke-dasharray="1,5" points="162,-138 162,-206 569,-206 569,-138 162,-138"/>
</g>
<g id="clust66" class="cluster">
<title>cluster_TaskModule_providers</title>
<polygon fill="none" stroke="black" points="170,-146 170,-198 561,-198 561,-146 170,-146"/>
</g>
<!-- JwtStrategy -->
<g id="node1" class="node">
<title>JwtStrategy</title>
<ellipse fill="#fdb462" stroke="black" cx="81" cy="-172" rx="56.76" ry="18"/>
<text text-anchor="middle" x="81" y="-167.8" font-family="Times,serif" font-size="14.00">JwtStrategy</text>
</g>
<!-- AuthModule -->
<g id="node2" class="node">
<title>AuthModule</title>
<polygon fill="#8dd3c7" stroke="black" points="134.55,-266 131.55,-270 110.55,-270 107.55,-266 47.45,-266 47.45,-230 134.55,-230 134.55,-266"/>
<text text-anchor="middle" x="91" y="-243.8" font-family="Times,serif" font-size="14.00">AuthModule</text>
</g>
<!-- JwtStrategy&#45;&gt;AuthModule -->
<g id="edge1" class="edge">
<title>JwtStrategy&#45;&gt;AuthModule</title>
<path fill="none" stroke="black" d="M91,-190.01C91,-190.01 91,-219.85 91,-219.85"/>
<polygon fill="black" stroke="black" points="87.5,-219.85 91,-229.85 94.5,-219.85 87.5,-219.85"/>
</g>
<!-- ServerModule -->
<g id="node22" class="node">
<title>ServerModule</title>
<polygon fill="#8dd3c7" stroke="black" points="380.08,-334 377.08,-338 356.08,-338 353.08,-334 283.92,-334 283.92,-298 380.08,-298 380.08,-334"/>
<text text-anchor="middle" x="332" y="-311.8" font-family="Times,serif" font-size="14.00">ServerModule</text>
</g>
<!-- AuthModule&#45;&gt;ServerModule -->
<g id="edge19" class="edge">
<title>AuthModule&#45;&gt;ServerModule</title>
<path fill="none" stroke="black" d="M91,-266.22C91,-286.37 91,-316 91,-316 91,-316 273.81,-316 273.81,-316"/>
<polygon fill="black" stroke="black" points="273.81,-319.5 283.81,-316 273.81,-312.5 273.81,-319.5"/>
</g>
<!-- FeathersModule -->
<g id="node3" class="node">
<title>FeathersModule</title>
<polygon fill="#8dd3c7" stroke="black" points="2099.47,-122 2096.47,-126 2075.47,-126 2072.47,-122 1992.53,-122 1992.53,-86 2099.47,-86 2099.47,-122"/>
<text text-anchor="middle" x="2046" y="-99.8" font-family="Times,serif" font-size="14.00">FeathersModule</text>
</g>
<!-- AuthorizationModule -->
<g id="node4" class="node">
<title>AuthorizationModule</title>
<polygon fill="#8dd3c7" stroke="black" points="1839.81,-190 1836.81,-194 1815.81,-194 1812.81,-190 1702.19,-190 1702.19,-154 1839.81,-154 1839.81,-190"/>
<text text-anchor="middle" x="1771" y="-167.8" font-family="Times,serif" font-size="14.00">AuthorizationModule</text>
</g>
<!-- FeathersModule&#45;&gt;AuthorizationModule -->
<g id="edge2" class="edge">
<title>FeathersModule&#45;&gt;AuthorizationModule</title>
<path fill="none" stroke="black" d="M2028.17,-122.27C2028.17,-140.56 2028.17,-166 2028.17,-166 2028.17,-166 1849.92,-166 1849.92,-166"/>
<polygon fill="black" stroke="black" points="1849.92,-162.5 1839.92,-166 1849.92,-169.5 1849.92,-162.5"/>
</g>
<!-- FeathersServiceProvider  -->
<g id="node13" class="node">
<title>FeathersServiceProvider </title>
<polygon fill="#fb8072" stroke="black" points="2532.61,-190 2375.39,-190 2375.39,-154 2532.61,-154 2532.61,-190"/>
<text text-anchor="middle" x="2454" y="-167.8" font-family="Times,serif" font-size="14.00">FeathersServiceProvider </text>
</g>
<!-- FeathersModule&#45;&gt;FeathersServiceProvider  -->
<g id="edge10" class="edge">
<title>FeathersModule&#45;&gt;FeathersServiceProvider </title>
<path fill="none" stroke="black" stroke-dasharray="5,2" d="M2099.76,-104C2210.55,-104 2454,-104 2454,-104 2454,-104 2454,-143.78 2454,-143.78"/>
<polygon fill="black" stroke="black" points="2450.5,-143.78 2454,-153.78 2457.5,-143.78 2450.5,-143.78"/>
</g>
<!-- AuthorizationService  -->
<g id="node5" class="node">
<title>AuthorizationService </title>
<polygon fill="#fb8072" stroke="black" points="1840.74,-266 1701.26,-266 1701.26,-230 1840.74,-230 1840.74,-266"/>
<text text-anchor="middle" x="1771" y="-243.8" font-family="Times,serif" font-size="14.00">AuthorizationService </text>
</g>
<!-- AuthorizationModule&#45;&gt;AuthorizationService  -->
<g id="edge3" class="edge">
<title>AuthorizationModule&#45;&gt;AuthorizationService </title>
<path fill="none" stroke="black" stroke-dasharray="5,2" d="M1771,-190.01C1771,-190.01 1771,-219.85 1771,-219.85"/>
<polygon fill="black" stroke="black" points="1767.5,-219.85 1771,-229.85 1774.5,-219.85 1767.5,-219.85"/>
</g>
<!-- NewsModule -->
<g id="node17" class="node">
<title>NewsModule</title>
<polygon fill="#8dd3c7" stroke="black" points="1465.92,-266 1462.92,-270 1441.92,-270 1438.92,-266 1374.08,-266 1374.08,-230 1465.92,-230 1465.92,-266"/>
<text text-anchor="middle" x="1420" y="-243.8" font-family="Times,serif" font-size="14.00">NewsModule</text>
</g>
<!-- AuthorizationModule&#45;&gt;NewsModule -->
<g id="edge14" class="edge">
<title>AuthorizationModule&#45;&gt;NewsModule</title>
<path fill="none" stroke="black" d="M1702.31,-172C1637.77,-172 1551.05,-172 1551.05,-172 1551.05,-172 1551.05,-248 1551.05,-248 1551.05,-248 1475.83,-248 1475.83,-248"/>
<polygon fill="black" stroke="black" points="1475.83,-244.5 1465.83,-248 1475.83,-251.5 1475.83,-244.5"/>
</g>
<!-- AuthorizationService -->
<g id="node6" class="node">
<title>AuthorizationService</title>
<ellipse fill="#fdb462" stroke="black" cx="1875" cy="-104" rx="93.76" ry="18"/>
<text text-anchor="middle" x="1875" y="-99.8" font-family="Times,serif" font-size="14.00">AuthorizationService</text>
</g>
<!-- AuthorizationService&#45;&gt;AuthorizationModule -->
<g id="edge4" class="edge">
<title>AuthorizationService&#45;&gt;AuthorizationModule</title>
<path fill="none" stroke="black" d="M1810.51,-117.11C1810.51,-117.11 1810.51,-143.79 1810.51,-143.79"/>
<polygon fill="black" stroke="black" points="1807.01,-143.79 1810.51,-153.79 1814.01,-143.79 1807.01,-143.79"/>
</g>
<!-- FeathersAuthProvider -->
<g id="node7" class="node">
<title>FeathersAuthProvider</title>
<ellipse fill="#fdb462" stroke="black" cx="1667" cy="-104" rx="96.13" ry="18"/>
<text text-anchor="middle" x="1667" y="-99.8" font-family="Times,serif" font-size="14.00">FeathersAuthProvider</text>
</g>
<!-- FeathersAuthProvider&#45;&gt;AuthorizationModule -->
<g id="edge5" class="edge">
<title>FeathersAuthProvider&#45;&gt;AuthorizationModule</title>
<path fill="none" stroke="black" d="M1732.83,-117.43C1732.83,-117.43 1732.83,-143.96 1732.83,-143.96"/>
<polygon fill="black" stroke="black" points="1729.33,-143.96 1732.83,-153.96 1736.33,-143.96 1729.33,-143.96"/>
</g>
<!-- ErrorModule -->
<g id="node8" class="node">
<title>ErrorModule</title>
<polygon fill="#8dd3c7" stroke="black" points="957.58,-190 954.58,-194 933.58,-194 930.58,-190 868.42,-190 868.42,-154 957.58,-154 957.58,-190"/>
<text text-anchor="middle" x="913" y="-167.8" font-family="Times,serif" font-size="14.00">ErrorModule</text>
</g>
<!-- CoreModule -->
<g id="node12" class="node">
<title>CoreModule</title>
<polygon fill="#8dd3c7" stroke="black" points="833.26,-266 830.26,-270 809.26,-270 806.26,-266 746.74,-266 746.74,-230 833.26,-230 833.26,-266"/>
<text text-anchor="middle" x="790" y="-243.8" font-family="Times,serif" font-size="14.00">CoreModule</text>
</g>
<!-- ErrorModule&#45;&gt;CoreModule -->
<g id="edge6" class="edge">
<title>ErrorModule&#45;&gt;CoreModule</title>
<path fill="none" stroke="black" d="M913,-190.03C913,-210.77 913,-242 913,-242 913,-242 843.37,-242 843.37,-242"/>
<polygon fill="black" stroke="black" points="843.37,-238.5 833.37,-242 843.37,-245.5 843.37,-238.5"/>
</g>
<!-- InterceptorModule -->
<g id="node9" class="node">
<title>InterceptorModule</title>
<polygon fill="#8dd3c7" stroke="black" points="850.46,-190 847.46,-194 826.46,-194 823.46,-190 729.54,-190 729.54,-154 850.46,-154 850.46,-190"/>
<text text-anchor="middle" x="790" y="-167.8" font-family="Times,serif" font-size="14.00">InterceptorModule</text>
</g>
<!-- InterceptorModule&#45;&gt;CoreModule -->
<g id="edge7" class="edge">
<title>InterceptorModule&#45;&gt;CoreModule</title>
<path fill="none" stroke="black" d="M790,-190.01C790,-190.01 790,-219.85 790,-219.85"/>
<polygon fill="black" stroke="black" points="786.5,-219.85 790,-229.85 793.5,-219.85 786.5,-219.85"/>
</g>
<!-- LoggerModule -->
<g id="node10" class="node">
<title>LoggerModule</title>
<polygon fill="#8dd3c7" stroke="black" points="1075.98,-190 1072.98,-194 1051.98,-194 1048.98,-190 976.02,-190 976.02,-154 1075.98,-154 1075.98,-190"/>
<text text-anchor="middle" x="1026" y="-167.8" font-family="Times,serif" font-size="14.00">LoggerModule</text>
</g>
<!-- LoggerModule&#45;&gt;CoreModule -->
<g id="edge8" class="edge">
<title>LoggerModule&#45;&gt;CoreModule</title>
<path fill="none" stroke="black" d="M1026,-190.2C1026,-214.36 1026,-254 1026,-254 1026,-254 843.29,-254 843.29,-254"/>
<polygon fill="black" stroke="black" points="843.29,-250.5 833.29,-254 843.29,-257.5 843.29,-250.5"/>
</g>
<!-- Logger  -->
<g id="node15" class="node">
<title>Logger </title>
<polygon fill="#fb8072" stroke="black" points="1277.93,-266 1218.07,-266 1218.07,-230 1277.93,-230 1277.93,-266"/>
<text text-anchor="middle" x="1248" y="-243.8" font-family="Times,serif" font-size="14.00">Logger </text>
</g>
<!-- LoggerModule&#45;&gt;Logger  -->
<g id="edge12" class="edge">
<title>LoggerModule&#45;&gt;Logger </title>
<path fill="none" stroke="black" stroke-dasharray="5,2" d="M1076.1,-172C1141.57,-172 1248,-172 1248,-172 1248,-172 1248,-219.99 1248,-219.99"/>
<polygon fill="black" stroke="black" points="1244.5,-219.99 1248,-229.99 1251.5,-219.99 1244.5,-219.99"/>
</g>
<!-- LoggerModule&#45;&gt;NewsModule -->
<g id="edge15" class="edge">
<title>LoggerModule&#45;&gt;NewsModule</title>
<path fill="none" stroke="black" d="M1076.18,-163C1154.72,-163 1297.84,-163 1297.84,-163 1297.84,-163 1297.84,-248 1297.84,-248 1297.84,-248 1364.17,-248 1364.17,-248"/>
<polygon fill="black" stroke="black" points="1364.17,-251.5 1374.17,-248 1364.17,-244.5 1364.17,-251.5"/>
</g>
<!-- ValidationModule -->
<g id="node11" class="node">
<title>ValidationModule</title>
<polygon fill="#8dd3c7" stroke="black" points="711.15,-190 708.15,-194 687.15,-194 684.15,-190 592.85,-190 592.85,-154 711.15,-154 711.15,-190"/>
<text text-anchor="middle" x="652" y="-167.8" font-family="Times,serif" font-size="14.00">ValidationModule</text>
</g>
<!-- ValidationModule&#45;&gt;CoreModule -->
<g id="edge9" class="edge">
<title>ValidationModule&#45;&gt;CoreModule</title>
<path fill="none" stroke="black" d="M652,-190.2C652,-214.36 652,-254 652,-254 652,-254 736.71,-254 736.71,-254"/>
<polygon fill="black" stroke="black" points="736.71,-257.5 746.71,-254 736.71,-250.5 736.71,-257.5"/>
</g>
<!-- CoreModule&#45;&gt;ServerModule -->
<g id="edge20" class="edge">
<title>CoreModule&#45;&gt;ServerModule</title>
<path fill="none" stroke="black" d="M790,-266.22C790,-286.37 790,-316 790,-316 790,-316 390.15,-316 390.15,-316"/>
<polygon fill="black" stroke="black" points="390.15,-312.5 380.15,-316 390.15,-319.5 390.15,-312.5"/>
</g>
<!-- FeathersServiceProvider -->
<g id="node14" class="node">
<title>FeathersServiceProvider</title>
<ellipse fill="#fdb462" stroke="black" cx="2245" cy="-172" rx="105.91" ry="18"/>
<text text-anchor="middle" x="2245" y="-167.8" font-family="Times,serif" font-size="14.00">FeathersServiceProvider</text>
</g>
<!-- FeathersServiceProvider&#45;&gt;FeathersModule -->
<g id="edge11" class="edge">
<title>FeathersServiceProvider&#45;&gt;FeathersModule</title>
<path fill="none" stroke="black" d="M2144.88,-178C2102.98,-178 2063.83,-178 2063.83,-178 2063.83,-178 2063.83,-132.29 2063.83,-132.29"/>
<polygon fill="black" stroke="black" points="2067.33,-132.29 2063.83,-122.29 2060.33,-132.29 2067.33,-132.29"/>
</g>
<!-- Logger -->
<g id="node16" class="node">
<title>Logger</title>
<ellipse fill="#fdb462" stroke="black" cx="1155" cy="-248" rx="38.85" ry="18"/>
<text text-anchor="middle" x="1155" y="-243.8" font-family="Times,serif" font-size="14.00">Logger</text>
</g>
<!-- Logger&#45;&gt;LoggerModule -->
<g id="edge13" class="edge">
<title>Logger&#45;&gt;LoggerModule</title>
<path fill="none" stroke="black" d="M1155,-229.69C1155,-209.85 1155,-181 1155,-181 1155,-181 1086.24,-181 1086.24,-181"/>
<polygon fill="black" stroke="black" points="1086.24,-177.5 1076.24,-181 1086.24,-184.5 1086.24,-177.5"/>
</g>
<!-- NewsUc  -->
<g id="node18" class="node">
<title>NewsUc </title>
<polygon fill="#fb8072" stroke="black" points="1453.69,-334 1386.31,-334 1386.31,-298 1453.69,-298 1453.69,-334"/>
<text text-anchor="middle" x="1420" y="-311.8" font-family="Times,serif" font-size="14.00">NewsUc </text>
</g>
<!-- NewsModule&#45;&gt;NewsUc  -->
<g id="edge16" class="edge">
<title>NewsModule&#45;&gt;NewsUc </title>
<path fill="none" stroke="black" stroke-dasharray="5,2" d="M1420,-266.22C1420,-266.22 1420,-287.73 1420,-287.73"/>
<polygon fill="black" stroke="black" points="1416.5,-287.73 1420,-297.73 1423.5,-287.73 1416.5,-287.73"/>
</g>
<!-- NewsRepo -->
<g id="node19" class="node">
<title>NewsRepo</title>
<ellipse fill="#fdb462" stroke="black" cx="1478" cy="-172" rx="53.31" ry="18"/>
<text text-anchor="middle" x="1478" y="-167.8" font-family="Times,serif" font-size="14.00">NewsRepo</text>
</g>
<!-- NewsRepo&#45;&gt;NewsModule -->
<g id="edge17" class="edge">
<title>NewsRepo&#45;&gt;NewsModule</title>
<path fill="none" stroke="black" d="M1445.15,-186.3C1445.15,-186.3 1445.15,-219.73 1445.15,-219.73"/>
<polygon fill="black" stroke="black" points="1441.65,-219.73 1445.15,-229.73 1448.65,-219.73 1441.65,-219.73"/>
</g>
<!-- NewsUc -->
<g id="node20" class="node">
<title>NewsUc</title>
<ellipse fill="#fdb462" stroke="black" cx="1362" cy="-172" rx="44.06" ry="18"/>
<text text-anchor="middle" x="1362" y="-167.8" font-family="Times,serif" font-size="14.00">NewsUc</text>
</g>
<!-- NewsUc&#45;&gt;NewsModule -->
<g id="edge18" class="edge">
<title>NewsUc&#45;&gt;NewsModule</title>
<path fill="none" stroke="black" d="M1390.28,-185.94C1390.28,-185.94 1390.28,-219.84 1390.28,-219.84"/>
<polygon fill="black" stroke="black" points="1386.78,-219.84 1390.28,-229.84 1393.78,-219.84 1386.78,-219.84"/>
</g>
<!-- TaskModule -->
<g id="node21" class="node">
<title>TaskModule</title>
<polygon fill="#8dd3c7" stroke="black" points="375.26,-266 372.26,-270 351.26,-270 348.26,-266 288.74,-266 288.74,-230 375.26,-230 375.26,-266"/>
<text text-anchor="middle" x="332" y="-243.8" font-family="Times,serif" font-size="14.00">TaskModule</text>
</g>
<!-- TaskModule&#45;&gt;ServerModule -->
<g id="edge21" class="edge">
<title>TaskModule&#45;&gt;ServerModule</title>
<path fill="none" stroke="black" d="M332,-266.22C332,-266.22 332,-287.73 332,-287.73"/>
<polygon fill="black" stroke="black" points="328.5,-287.73 332,-297.73 335.5,-287.73 328.5,-287.73"/>
</g>
<!-- SubmissionRepo -->
<g id="node23" class="node">
<title>SubmissionRepo</title>
<ellipse fill="#fdb462" stroke="black" cx="477" cy="-172" rx="76.49" ry="18"/>
<text text-anchor="middle" x="477" y="-167.8" font-family="Times,serif" font-size="14.00">SubmissionRepo</text>
</g>
<!-- SubmissionRepo&#45;&gt;TaskModule -->
<g id="edge22" class="edge">
<title>SubmissionRepo&#45;&gt;TaskModule</title>
<path fill="none" stroke="black" d="M477,-190.03C477,-210.77 477,-242 477,-242 477,-242 385.5,-242 385.5,-242"/>
<polygon fill="black" stroke="black" points="385.5,-238.5 375.5,-242 385.5,-245.5 385.5,-238.5"/>
</g>
<!-- TaskRepo -->
<g id="node24" class="node">
<title>TaskRepo</title>
<ellipse fill="#fdb462" stroke="black" cx="332" cy="-172" rx="50.38" ry="18"/>
<text text-anchor="middle" x="332" y="-167.8" font-family="Times,serif" font-size="14.00">TaskRepo</text>
</g>
<!-- TaskRepo&#45;&gt;TaskModule -->
<g id="edge23" class="edge">
<title>TaskRepo&#45;&gt;TaskModule</title>
<path fill="none" stroke="black" d="M332,-190.01C332,-190.01 332,-219.85 332,-219.85"/>
<polygon fill="black" stroke="black" points="328.5,-219.85 332,-229.85 335.5,-219.85 328.5,-219.85"/>
</g>
<!-- TaskUC -->
<g id="node25" class="node">
<title>TaskUC</title>
<ellipse fill="#fdb462" stroke="black" cx="221" cy="-172" rx="43.44" ry="18"/>
<text text-anchor="middle" x="221" y="-167.8" font-family="Times,serif" font-size="14.00">TaskUC</text>
</g>
<!-- TaskUC&#45;&gt;TaskModule -->
<g id="edge24" class="edge">
<title>TaskUC&#45;&gt;TaskModule</title>
<path fill="none" stroke="black" d="M221,-190.01C221,-212.49 221,-248 221,-248 221,-248 278.45,-248 278.45,-248"/>
<polygon fill="black" stroke="black" points="278.45,-251.5 288.45,-248 278.45,-244.5 278.45,-251.5"/>
</g>
</g>
</svg>
