<?xml version="1.0" encoding="UTF-8" standalone="no"?>
<!DOCTYPE svg PUBLIC "-//W3C//DTD SVG 1.1//EN"
 "http://www.w3.org/Graphics/SVG/1.1/DTD/svg11.dtd">
<!-- Generated by graphviz version 2.47.0 (20210316.0004)
 -->
<!-- Title: dependencies Pages: 1 -->
<svg width="2925pt" height="366pt"
 viewBox="0.00 0.00 2925.00 366.00" xmlns="http://www.w3.org/2000/svg" xmlns:xlink="http://www.w3.org/1999/xlink">
<g id="graph0" class="graph" transform="scale(1 1) rotate(0) translate(4 362)">
<title>dependencies</title>
<polygon fill="white" stroke="transparent" points="-4,4 -4,-362 2921,-362 2921,4 -4,4"/>
<text text-anchor="start" x="1437.51" y="-42.4" font-family="sans-serif" font-weight="bold" font-size="14.00">Legend</text>
<polygon fill="#ffffb3" stroke="transparent" points="1224.5,-10 1224.5,-30 1244.5,-30 1244.5,-10 1224.5,-10"/>
<text text-anchor="start" x="1248.13" y="-15.4" font-family="sans-serif" font-size="14.00"> &#160;Declarations</text>
<polygon fill="#8dd3c7" stroke="transparent" points="1337.5,-10 1337.5,-30 1357.5,-30 1357.5,-10 1337.5,-10"/>
<text text-anchor="start" x="1361.23" y="-15.4" font-family="sans-serif" font-size="14.00"> &#160;Module</text>
<polygon fill="#80b1d3" stroke="transparent" points="1423.5,-10 1423.5,-30 1443.5,-30 1443.5,-10 1423.5,-10"/>
<text text-anchor="start" x="1447.28" y="-15.4" font-family="sans-serif" font-size="14.00"> &#160;Bootstrap</text>
<polygon fill="#fdb462" stroke="transparent" points="1520.5,-10 1520.5,-30 1540.5,-30 1540.5,-10 1520.5,-10"/>
<text text-anchor="start" x="1544.17" y="-15.4" font-family="sans-serif" font-size="14.00"> &#160;Providers</text>
<polygon fill="#fb8072" stroke="transparent" points="1616.5,-10 1616.5,-30 1636.5,-30 1636.5,-10 1616.5,-10"/>
<text text-anchor="start" x="1640.23" y="-15.4" font-family="sans-serif" font-size="14.00"> &#160;Exports</text>
<g id="clust1" class="cluster">
<title>cluster_AuthModule</title>
<polygon fill="none" stroke="black" stroke-dasharray="1,5" points="8,-138 8,-274 154,-274 154,-138 8,-138"/>
</g>
<g id="clust6" class="cluster">
<title>cluster_AuthModule_providers</title>
<polygon fill="none" stroke="black" points="16,-146 16,-198 146,-198 146,-146 16,-146"/>
</g>
<g id="clust7" class="cluster">
<title>cluster_AuthorizationModule</title>
<polygon fill="none" stroke="black" stroke-dasharray="1,5" points="1915,-70 1915,-282 2475,-282 2475,-70 1915,-70"/>
</g>
<g id="clust9" class="cluster">
<title>cluster_AuthorizationModule_imports</title>
<polygon fill="none" stroke="black" points="2345,-78 2345,-130 2467,-130 2467,-78 2345,-78"/>
</g>
<g id="clust10" class="cluster">
<title>cluster_AuthorizationModule_exports</title>
<polygon fill="none" stroke="black" points="2053,-222 2053,-274 2209,-274 2209,-222 2053,-222"/>
</g>
<g id="clust12" class="cluster">
<title>cluster_AuthorizationModule_providers</title>
<polygon fill="none" stroke="black" points="1923,-78 1923,-130 2337,-130 2337,-78 1923,-78"/>
</g>
<g id="clust13" class="cluster">
<title>cluster_CoreModule</title>
<polygon fill="none" stroke="black" stroke-dasharray="1,5" points="937,-138 937,-274 1452,-274 1452,-138 937,-138"/>
</g>
<g id="clust15" class="cluster">
<title>cluster_CoreModule_imports</title>
<polygon fill="none" stroke="black" points="945,-146 945,-198 1444,-198 1444,-146 945,-146"/>
</g>
<g id="clust25" class="cluster">
<title>cluster_FeathersModule</title>
<polygon fill="none" stroke="black" stroke-dasharray="1,5" points="2483,-138 2483,-206 2909,-206 2909,-138 2483,-138"/>
</g>
<g id="clust28" class="cluster">
<title>cluster_FeathersModule_exports</title>
<polygon fill="none" stroke="black" points="2727,-146 2727,-198 2901,-198 2901,-146 2727,-146"/>
</g>
<g id="clust30" class="cluster">
<title>cluster_FeathersModule_providers</title>
<polygon fill="none" stroke="black" points="2491,-146 2491,-198 2719,-198 2719,-146 2491,-146"/>
</g>
<g id="clust37" class="cluster">
<title>cluster_LoggerModule</title>
<polygon fill="none" stroke="black" stroke-dasharray="1,5" points="1460,-214 1460,-282 1654,-282 1654,-214 1460,-214"/>
</g>
<g id="clust40" class="cluster">
<title>cluster_LoggerModule_exports</title>
<polygon fill="none" stroke="black" points="1570,-222 1570,-274 1646,-274 1646,-222 1570,-222"/>
</g>
<g id="clust42" class="cluster">
<title>cluster_LoggerModule_providers</title>
<polygon fill="none" stroke="black" points="1468,-222 1468,-274 1562,-274 1562,-222 1468,-222"/>
</g>
<g id="clust49" class="cluster">
<title>cluster_NewsModule</title>
<polygon fill="none" stroke="black" stroke-dasharray="1,5" points="1662,-138 1662,-350 1907,-350 1907,-138 1662,-138"/>
</g>
<g id="clust52" class="cluster">
<title>cluster_NewsModule_exports</title>
<polygon fill="none" stroke="black" points="1738,-290 1738,-342 1822,-342 1822,-290 1738,-290"/>
</g>
<g id="clust54" class="cluster">
<title>cluster_NewsModule_providers</title>
<polygon fill="none" stroke="black" points="1670,-146 1670,-198 1899,-198 1899,-146 1670,-146"/>
</g>
<g id="clust55" class="cluster">
<title>cluster_ServerModule</title>
<polygon fill="none" stroke="black" stroke-dasharray="1,5" points="445,-214 445,-342 667,-342 667,-214 445,-214"/>
</g>
<g id="clust57" class="cluster">
<title>cluster_ServerModule_imports</title>
<polygon fill="none" stroke="black" points="453,-222 453,-274 659,-274 659,-222 453,-222"/>
</g>
<g id="clust61" class="cluster">
<title>cluster_TaskModule</title>
<polygon fill="none" stroke="black" stroke-dasharray="1,5" points="162,-138 162,-206 569,-206 569,-138 162,-138"/>
</g>
<g id="clust66" class="cluster">
<title>cluster_TaskModule_providers</title>
<polygon fill="none" stroke="black" points="170,-146 170,-198 561,-198 561,-146 170,-146"/>
</g>
<g id="clust67" class="cluster">
<title>cluster_UserModule</title>
<polygon fill="none" stroke="black" stroke-dasharray="1,5" points="577,-138 577,-206 929,-206 929,-138 577,-138"/>
</g>
<g id="clust72" class="cluster">
<title>cluster_UserModule_providers</title>
<polygon fill="none" stroke="black" points="585,-146 585,-198 921,-198 921,-146 585,-146"/>
</g>
<!-- JwtStrategy -->
<g id="node1" class="node">
<title>JwtStrategy</title>
<ellipse fill="#fdb462" stroke="black" cx="81" cy="-172" rx="56.76" ry="18"/>
<text text-anchor="middle" x="81" y="-167.8" font-family="Times,serif" font-size="14.00">JwtStrategy</text>
</g>
<!-- AuthModule -->
<g id="node2" class="node">
<title>AuthModule</title>
<polygon fill="#8dd3c7" stroke="black" points="134.55,-266 131.55,-270 110.55,-270 107.55,-266 47.45,-266 47.45,-230 134.55,-230 134.55,-266"/>
<text text-anchor="middle" x="91" y="-243.8" font-family="Times,serif" font-size="14.00">AuthModule</text>
</g>
<!-- JwtStrategy&#45;&gt;AuthModule -->
<g id="edge1" class="edge">
<title>JwtStrategy&#45;&gt;AuthModule</title>
<path fill="none" stroke="black" d="M91,-190.01C91,-190.01 91,-219.85 91,-219.85"/>
<polygon fill="black" stroke="black" points="87.5,-219.85 91,-229.85 94.5,-219.85 87.5,-219.85"/>
</g>
<!-- ServerModule -->
<g id="node23" class="node">
<title>ServerModule</title>
<polygon fill="#8dd3c7" stroke="black" points="604.08,-334 601.08,-338 580.08,-338 577.08,-334 507.92,-334 507.92,-298 604.08,-298 604.08,-334"/>
<text text-anchor="middle" x="556" y="-311.8" font-family="Times,serif" font-size="14.00">ServerModule</text>
</g>
<!-- AuthModule&#45;&gt;ServerModule -->
<g id="edge19" class="edge">
<title>AuthModule&#45;&gt;ServerModule</title>
<path fill="none" stroke="black" d="M91,-266.22C91,-286.37 91,-316 91,-316 91,-316 497.55,-316 497.55,-316"/>
<polygon fill="black" stroke="black" points="497.55,-319.5 507.55,-316 497.55,-312.5 497.55,-319.5"/>
</g>
<!-- FeathersModule -->
<g id="node3" class="node">
<title>FeathersModule</title>
<polygon fill="#8dd3c7" stroke="black" points="2459.47,-122 2456.47,-126 2435.47,-126 2432.47,-122 2352.53,-122 2352.53,-86 2459.47,-86 2459.47,-122"/>
<text text-anchor="middle" x="2406" y="-99.8" font-family="Times,serif" font-size="14.00">FeathersModule</text>
</g>
<!-- AuthorizationModule -->
<g id="node4" class="node">
<title>AuthorizationModule</title>
<polygon fill="#8dd3c7" stroke="black" points="2199.81,-190 2196.81,-194 2175.81,-194 2172.81,-190 2062.19,-190 2062.19,-154 2199.81,-154 2199.81,-190"/>
<text text-anchor="middle" x="2131" y="-167.8" font-family="Times,serif" font-size="14.00">AuthorizationModule</text>
</g>
<!-- FeathersModule&#45;&gt;AuthorizationModule -->
<g id="edge2" class="edge">
<title>FeathersModule&#45;&gt;AuthorizationModule</title>
<path fill="none" stroke="black" d="M2388.17,-122.27C2388.17,-140.56 2388.17,-166 2388.17,-166 2388.17,-166 2209.92,-166 2209.92,-166"/>
<polygon fill="black" stroke="black" points="2209.92,-162.5 2199.92,-166 2209.92,-169.5 2209.92,-162.5"/>
</g>
<!-- FeathersServiceProvider  -->
<g id="node13" class="node">
<title>FeathersServiceProvider </title>
<polygon fill="#fb8072" stroke="black" points="2892.61,-190 2735.39,-190 2735.39,-154 2892.61,-154 2892.61,-190"/>
<text text-anchor="middle" x="2814" y="-167.8" font-family="Times,serif" font-size="14.00">FeathersServiceProvider </text>
</g>
<!-- FeathersModule&#45;&gt;FeathersServiceProvider  -->
<g id="edge10" class="edge">
<title>FeathersModule&#45;&gt;FeathersServiceProvider </title>
<path fill="none" stroke="black" stroke-dasharray="5,2" d="M2459.76,-104C2570.55,-104 2814,-104 2814,-104 2814,-104 2814,-143.78 2814,-143.78"/>
<polygon fill="black" stroke="black" points="2810.5,-143.78 2814,-153.78 2817.5,-143.78 2810.5,-143.78"/>
</g>
<!-- AuthorizationService  -->
<g id="node5" class="node">
<title>AuthorizationService </title>
<polygon fill="#fb8072" stroke="black" points="2200.74,-266 2061.26,-266 2061.26,-230 2200.74,-230 2200.74,-266"/>
<text text-anchor="middle" x="2131" y="-243.8" font-family="Times,serif" font-size="14.00">AuthorizationService </text>
</g>
<!-- AuthorizationModule&#45;&gt;AuthorizationService  -->
<g id="edge3" class="edge">
<title>AuthorizationModule&#45;&gt;AuthorizationService </title>
<path fill="none" stroke="black" stroke-dasharray="5,2" d="M2131,-190.01C2131,-190.01 2131,-219.85 2131,-219.85"/>
<polygon fill="black" stroke="black" points="2127.5,-219.85 2131,-229.85 2134.5,-219.85 2127.5,-219.85"/>
</g>
<!-- NewsModule -->
<g id="node17" class="node">
<title>NewsModule</title>
<polygon fill="#8dd3c7" stroke="black" points="1825.92,-266 1822.92,-270 1801.92,-270 1798.92,-266 1734.08,-266 1734.08,-230 1825.92,-230 1825.92,-266"/>
<text text-anchor="middle" x="1780" y="-243.8" font-family="Times,serif" font-size="14.00">NewsModule</text>
</g>
<!-- AuthorizationModule&#45;&gt;NewsModule -->
<g id="edge14" class="edge">
<title>AuthorizationModule&#45;&gt;NewsModule</title>
<path fill="none" stroke="black" d="M2062.31,-172C1997.77,-172 1911.05,-172 1911.05,-172 1911.05,-172 1911.05,-248 1911.05,-248 1911.05,-248 1835.83,-248 1835.83,-248"/>
<polygon fill="black" stroke="black" points="1835.83,-244.5 1825.83,-248 1835.83,-251.5 1835.83,-244.5"/>
</g>
<!-- AuthorizationService -->
<g id="node6" class="node">
<title>AuthorizationService</title>
<ellipse fill="#fdb462" stroke="black" cx="2235" cy="-104" rx="93.76" ry="18"/>
<text text-anchor="middle" x="2235" y="-99.8" font-family="Times,serif" font-size="14.00">AuthorizationService</text>
</g>
<!-- AuthorizationService&#45;&gt;AuthorizationModule -->
<g id="edge4" class="edge">
<title>AuthorizationService&#45;&gt;AuthorizationModule</title>
<path fill="none" stroke="black" d="M2170.51,-117.11C2170.51,-117.11 2170.51,-143.79 2170.51,-143.79"/>
<polygon fill="black" stroke="black" points="2167.01,-143.79 2170.51,-153.79 2174.01,-143.79 2167.01,-143.79"/>
</g>
<!-- FeathersAuthProvider -->
<g id="node7" class="node">
<title>FeathersAuthProvider</title>
<ellipse fill="#fdb462" stroke="black" cx="2027" cy="-104" rx="96.13" ry="18"/>
<text text-anchor="middle" x="2027" y="-99.8" font-family="Times,serif" font-size="14.00">FeathersAuthProvider</text>
</g>
<!-- FeathersAuthProvider&#45;&gt;AuthorizationModule -->
<g id="edge5" class="edge">
<title>FeathersAuthProvider&#45;&gt;AuthorizationModule</title>
<path fill="none" stroke="black" d="M2092.83,-117.43C2092.83,-117.43 2092.83,-143.96 2092.83,-143.96"/>
<polygon fill="black" stroke="black" points="2089.33,-143.96 2092.83,-153.96 2096.33,-143.96 2089.33,-143.96"/>
</g>
<!-- ErrorModule -->
<g id="node8" class="node">
<title>ErrorModule</title>
<polygon fill="#8dd3c7" stroke="black" points="1317.58,-190 1314.58,-194 1293.58,-194 1290.58,-190 1228.42,-190 1228.42,-154 1317.58,-154 1317.58,-190"/>
<text text-anchor="middle" x="1273" y="-167.8" font-family="Times,serif" font-size="14.00">ErrorModule</text>
</g>
<!-- CoreModule -->
<g id="node12" class="node">
<title>CoreModule</title>
<polygon fill="#8dd3c7" stroke="black" points="1193.26,-266 1190.26,-270 1169.26,-270 1166.26,-266 1106.74,-266 1106.74,-230 1193.26,-230 1193.26,-266"/>
<text text-anchor="middle" x="1150" y="-243.8" font-family="Times,serif" font-size="14.00">CoreModule</text>
</g>
<!-- ErrorModule&#45;&gt;CoreModule -->
<g id="edge6" class="edge">
<title>ErrorModule&#45;&gt;CoreModule</title>
<path fill="none" stroke="black" d="M1273,-190.03C1273,-210.77 1273,-242 1273,-242 1273,-242 1203.37,-242 1203.37,-242"/>
<polygon fill="black" stroke="black" points="1203.37,-238.5 1193.37,-242 1203.37,-245.5 1203.37,-238.5"/>
</g>
<!-- InterceptorModule -->
<g id="node9" class="node">
<title>InterceptorModule</title>
<polygon fill="#8dd3c7" stroke="black" points="1210.46,-190 1207.46,-194 1186.46,-194 1183.46,-190 1089.54,-190 1089.54,-154 1210.46,-154 1210.46,-190"/>
<text text-anchor="middle" x="1150" y="-167.8" font-family="Times,serif" font-size="14.00">InterceptorModule</text>
</g>
<!-- InterceptorModule&#45;&gt;CoreModule -->
<g id="edge7" class="edge">
<title>InterceptorModule&#45;&gt;CoreModule</title>
<path fill="none" stroke="black" d="M1150,-190.01C1150,-190.01 1150,-219.85 1150,-219.85"/>
<polygon fill="black" stroke="black" points="1146.5,-219.85 1150,-229.85 1153.5,-219.85 1146.5,-219.85"/>
</g>
<!-- LoggerModule -->
<g id="node10" class="node">
<title>LoggerModule</title>
<polygon fill="#8dd3c7" stroke="black" points="1435.98,-190 1432.98,-194 1411.98,-194 1408.98,-190 1336.02,-190 1336.02,-154 1435.98,-154 1435.98,-190"/>
<text text-anchor="middle" x="1386" y="-167.8" font-family="Times,serif" font-size="14.00">LoggerModule</text>
</g>
<!-- LoggerModule&#45;&gt;CoreModule -->
<g id="edge8" class="edge">
<title>LoggerModule&#45;&gt;CoreModule</title>
<path fill="none" stroke="black" d="M1386,-190.2C1386,-214.36 1386,-254 1386,-254 1386,-254 1203.29,-254 1203.29,-254"/>
<polygon fill="black" stroke="black" points="1203.29,-250.5 1193.29,-254 1203.29,-257.5 1203.29,-250.5"/>
</g>
<!-- Logger  -->
<g id="node15" class="node">
<title>Logger </title>
<polygon fill="#fb8072" stroke="black" points="1637.93,-266 1578.07,-266 1578.07,-230 1637.93,-230 1637.93,-266"/>
<text text-anchor="middle" x="1608" y="-243.8" font-family="Times,serif" font-size="14.00">Logger </text>
</g>
<!-- LoggerModule&#45;&gt;Logger  -->
<g id="edge12" class="edge">
<title>LoggerModule&#45;&gt;Logger </title>
<path fill="none" stroke="black" stroke-dasharray="5,2" d="M1436.1,-172C1501.57,-172 1608,-172 1608,-172 1608,-172 1608,-219.99 1608,-219.99"/>
<polygon fill="black" stroke="black" points="1604.5,-219.99 1608,-229.99 1611.5,-219.99 1604.5,-219.99"/>
</g>
<!-- LoggerModule&#45;&gt;NewsModule -->
<g id="edge15" class="edge">
<title>LoggerModule&#45;&gt;NewsModule</title>
<path fill="none" stroke="black" d="M1436.18,-163C1514.72,-163 1657.84,-163 1657.84,-163 1657.84,-163 1657.84,-248 1657.84,-248 1657.84,-248 1724.17,-248 1724.17,-248"/>
<polygon fill="black" stroke="black" points="1724.17,-251.5 1734.17,-248 1724.17,-244.5 1724.17,-251.5"/>
</g>
<!-- ValidationModule -->
<g id="node11" class="node">
<title>ValidationModule</title>
<polygon fill="#8dd3c7" stroke="black" points="1071.15,-190 1068.15,-194 1047.15,-194 1044.15,-190 952.85,-190 952.85,-154 1071.15,-154 1071.15,-190"/>
<text text-anchor="middle" x="1012" y="-167.8" font-family="Times,serif" font-size="14.00">ValidationModule</text>
</g>
<!-- ValidationModule&#45;&gt;CoreModule -->
<g id="edge9" class="edge">
<title>ValidationModule&#45;&gt;CoreModule</title>
<path fill="none" stroke="black" d="M1012,-190.03C1012,-214.98 1012,-257 1012,-257 1012,-257 1096.71,-257 1096.71,-257"/>
<polygon fill="black" stroke="black" points="1096.71,-260.5 1106.71,-257 1096.71,-253.5 1096.71,-260.5"/>
</g>
<!-- CoreModule&#45;&gt;ServerModule -->
<g id="edge20" class="edge">
<title>CoreModule&#45;&gt;ServerModule</title>
<path fill="none" stroke="black" d="M1150,-266.22C1150,-286.37 1150,-316 1150,-316 1150,-316 614.11,-316 614.11,-316"/>
<polygon fill="black" stroke="black" points="614.11,-312.5 604.11,-316 614.11,-319.5 614.11,-312.5"/>
</g>
<!-- FeathersServiceProvider -->
<g id="node14" class="node">
<title>FeathersServiceProvider</title>
<ellipse fill="#fdb462" stroke="black" cx="2605" cy="-172" rx="105.91" ry="18"/>
<text text-anchor="middle" x="2605" y="-167.8" font-family="Times,serif" font-size="14.00">FeathersServiceProvider</text>
</g>
<!-- FeathersServiceProvider&#45;&gt;FeathersModule -->
<g id="edge11" class="edge">
<title>FeathersServiceProvider&#45;&gt;FeathersModule</title>
<path fill="none" stroke="black" d="M2504.88,-178C2462.98,-178 2423.83,-178 2423.83,-178 2423.83,-178 2423.83,-132.29 2423.83,-132.29"/>
<polygon fill="black" stroke="black" points="2427.33,-132.29 2423.83,-122.29 2420.33,-132.29 2427.33,-132.29"/>
</g>
<!-- Logger -->
<g id="node16" class="node">
<title>Logger</title>
<ellipse fill="#fdb462" stroke="black" cx="1515" cy="-248" rx="38.85" ry="18"/>
<text text-anchor="middle" x="1515" y="-243.8" font-family="Times,serif" font-size="14.00">Logger</text>
</g>
<!-- Logger&#45;&gt;LoggerModule -->
<g id="edge13" class="edge">
<title>Logger&#45;&gt;LoggerModule</title>
<path fill="none" stroke="black" d="M1515,-229.69C1515,-209.85 1515,-181 1515,-181 1515,-181 1446.24,-181 1446.24,-181"/>
<polygon fill="black" stroke="black" points="1446.24,-177.5 1436.24,-181 1446.24,-184.5 1446.24,-177.5"/>
</g>
<!-- NewsUc  -->
<g id="node18" class="node">
<title>NewsUc </title>
<polygon fill="#fb8072" stroke="black" points="1813.69,-334 1746.31,-334 1746.31,-298 1813.69,-298 1813.69,-334"/>
<text text-anchor="middle" x="1780" y="-311.8" font-family="Times,serif" font-size="14.00">NewsUc </text>
</g>
<!-- NewsModule&#45;&gt;NewsUc  -->
<g id="edge16" class="edge">
<title>NewsModule&#45;&gt;NewsUc </title>
<path fill="none" stroke="black" stroke-dasharray="5,2" d="M1780,-266.22C1780,-266.22 1780,-287.73 1780,-287.73"/>
<polygon fill="black" stroke="black" points="1776.5,-287.73 1780,-297.73 1783.5,-287.73 1776.5,-287.73"/>
</g>
<!-- NewsRepo -->
<g id="node19" class="node">
<title>NewsRepo</title>
<ellipse fill="#fdb462" stroke="black" cx="1838" cy="-172" rx="53.31" ry="18"/>
<text text-anchor="middle" x="1838" y="-167.8" font-family="Times,serif" font-size="14.00">NewsRepo</text>
</g>
<!-- NewsRepo&#45;&gt;NewsModule -->
<g id="edge17" class="edge">
<title>NewsRepo&#45;&gt;NewsModule</title>
<path fill="none" stroke="black" d="M1805.15,-186.3C1805.15,-186.3 1805.15,-219.73 1805.15,-219.73"/>
<polygon fill="black" stroke="black" points="1801.65,-219.73 1805.15,-229.73 1808.65,-219.73 1801.65,-219.73"/>
</g>
<!-- NewsUc -->
<g id="node20" class="node">
<title>NewsUc</title>
<ellipse fill="#fdb462" stroke="black" cx="1722" cy="-172" rx="44.06" ry="18"/>
<text text-anchor="middle" x="1722" y="-167.8" font-family="Times,serif" font-size="14.00">NewsUc</text>
</g>
<!-- NewsUc&#45;&gt;NewsModule -->
<g id="edge18" class="edge">
<title>NewsUc&#45;&gt;NewsModule</title>
<path fill="none" stroke="black" d="M1750.28,-185.94C1750.28,-185.94 1750.28,-219.84 1750.28,-219.84"/>
<polygon fill="black" stroke="black" points="1746.78,-219.84 1750.28,-229.84 1753.78,-219.84 1746.78,-219.84"/>
</g>
<!-- TaskModule -->
<g id="node21" class="node">
<title>TaskModule</title>
<polygon fill="#8dd3c7" stroke="black" points="547.26,-266 544.26,-270 523.26,-270 520.26,-266 460.74,-266 460.74,-230 547.26,-230 547.26,-266"/>
<text text-anchor="middle" x="504" y="-243.8" font-family="Times,serif" font-size="14.00">TaskModule</text>
</g>
<!-- TaskModule&#45;&gt;ServerModule -->
<g id="edge21" class="edge">
<title>TaskModule&#45;&gt;ServerModule</title>
<path fill="none" stroke="black" d="M527.67,-266.22C527.67,-266.22 527.67,-287.73 527.67,-287.73"/>
<polygon fill="black" stroke="black" points="524.17,-287.73 527.67,-297.73 531.17,-287.73 524.17,-287.73"/>
</g>
<!-- UserModule -->
<g id="node22" class="node">
<title>UserModule</title>
<polygon fill="#8dd3c7" stroke="black" points="650.98,-266 647.98,-270 626.98,-270 623.98,-266 565.02,-266 565.02,-230 650.98,-230 650.98,-266"/>
<text text-anchor="middle" x="608" y="-243.8" font-family="Times,serif" font-size="14.00">UserModule</text>
</g>
<!-- UserModule&#45;&gt;ServerModule -->
<g id="edge22" class="edge">
<title>UserModule&#45;&gt;ServerModule</title>
<path fill="none" stroke="black" d="M584.53,-266.22C584.53,-266.22 584.53,-287.73 584.53,-287.73"/>
<polygon fill="black" stroke="black" points="581.03,-287.73 584.53,-297.73 588.03,-287.73 581.03,-287.73"/>
</g>
<!-- SubmissionRepo -->
<g id="node24" class="node">
<title>SubmissionRepo</title>
<ellipse fill="#fdb462" stroke="black" cx="477" cy="-172" rx="76.49" ry="18"/>
<text text-anchor="middle" x="477" y="-167.8" font-family="Times,serif" font-size="14.00">SubmissionRepo</text>
</g>
<!-- SubmissionRepo&#45;&gt;TaskModule -->
<g id="edge23" class="edge">
<title>SubmissionRepo&#45;&gt;TaskModule</title>
<path fill="none" stroke="black" d="M504,-188.87C504,-188.87 504,-219.85 504,-219.85"/>
<polygon fill="black" stroke="black" points="500.5,-219.85 504,-229.85 507.5,-219.85 500.5,-219.85"/>
</g>
<!-- TaskRepo -->
<g id="node25" class="node">
<title>TaskRepo</title>
<ellipse fill="#fdb462" stroke="black" cx="332" cy="-172" rx="50.38" ry="18"/>
<text text-anchor="middle" x="332" y="-167.8" font-family="Times,serif" font-size="14.00">TaskRepo</text>
</g>
<!-- TaskRepo&#45;&gt;TaskModule -->
<g id="edge24" class="edge">
<title>TaskRepo&#45;&gt;TaskModule</title>
<path fill="none" stroke="black" d="M332,-190.03C332,-210.77 332,-242 332,-242 332,-242 450.6,-242 450.6,-242"/>
<polygon fill="black" stroke="black" points="450.6,-245.5 460.6,-242 450.6,-238.5 450.6,-245.5"/>
</g>
<!-- TaskUC -->
<g id="node26" class="node">
<title>TaskUC</title>
<ellipse fill="#fdb462" stroke="black" cx="221" cy="-172" rx="43.44" ry="18"/>
<text text-anchor="middle" x="221" y="-167.8" font-family="Times,serif" font-size="14.00">TaskUC</text>
</g>
<!-- TaskUC&#45;&gt;TaskModule -->
<g id="edge25" class="edge">
<title>TaskUC&#45;&gt;TaskModule</title>
<path fill="none" stroke="black" d="M221,-190.2C221,-214.36 221,-254 221,-254 221,-254 450.71,-254 450.71,-254"/>
<polygon fill="black" stroke="black" points="450.71,-257.5 460.71,-254 450.71,-250.5 450.71,-257.5"/>
</g>
<!-- RoleRepo -->
<g id="node27" class="node">
<title>RoleRepo</title>
<ellipse fill="#fdb462" stroke="black" cx="863" cy="-172" rx="49.82" ry="18"/>
<text text-anchor="middle" x="863" y="-167.8" font-family="Times,serif" font-size="14.00">RoleRepo</text>
</g>
<!-- RoleRepo&#45;&gt;UserModule -->
<g id="edge26" class="edge">
<title>RoleRepo&#45;&gt;UserModule</title>
<path fill="none" stroke="black" d="M863,-190.01C863,-212.49 863,-248 863,-248 863,-248 661.26,-248 661.26,-248"/>
<polygon fill="black" stroke="black" points="661.26,-244.5 651.26,-248 661.26,-251.5 661.26,-244.5"/>
</g>
<!-- UserRepo -->
<g id="node28" class="node">
<title>UserRepo</title>
<ellipse fill="#fdb462" stroke="black" cx="746" cy="-172" rx="49.8" ry="18"/>
<text text-anchor="middle" x="746" y="-167.8" font-family="Times,serif" font-size="14.00">UserRepo</text>
</g>
<!-- UserRepo&#45;&gt;UserModule -->
<g id="edge27" class="edge">
<title>UserRepo&#45;&gt;UserModule</title>
<path fill="none" stroke="black" d="M746,-190.31C746,-210.15 746,-239 746,-239 746,-239 661.29,-239 661.29,-239"/>
<polygon fill="black" stroke="black" points="661.29,-235.5 651.29,-239 661.29,-242.5 661.29,-235.5"/>
</g>
<!-- UserUC -->
<g id="node29" class="node">
<title>UserUC</title>
<ellipse fill="#fdb462" stroke="black" cx="636" cy="-172" rx="42.85" ry="18"/>
<text text-anchor="middle" x="636" y="-167.8" font-family="Times,serif" font-size="14.00">UserUC</text>
</g>
<!-- UserUC&#45;&gt;UserModule -->
<g id="edge28" class="edge">
<title>UserUC&#45;&gt;UserModule</title>
<path fill="none" stroke="black" d="M622.16,-189.25C622.16,-189.25 622.16,-219.76 622.16,-219.76"/>
<polygon fill="black" stroke="black" points="618.66,-219.76 622.16,-229.76 625.66,-219.76 618.66,-219.76"/>
</g>
</g>
</svg>
