<?xml version="1.0" encoding="UTF-8" standalone="no"?>
<!DOCTYPE svg PUBLIC "-//W3C//DTD SVG 1.1//EN"
 "http://www.w3.org/Graphics/SVG/1.1/DTD/svg11.dtd">
<!-- Generated by graphviz version 2.47.0 (20210316.0004)
 -->
<!-- Title: dependencies Pages: 1 -->
<svg width="726pt" height="211pt"
 viewBox="0.00 0.00 726.00 211.00" xmlns="http://www.w3.org/2000/svg" xmlns:xlink="http://www.w3.org/1999/xlink">
<g id="graph0" class="graph" transform="scale(1 1) rotate(0) translate(4 207)">
<title>dependencies</title>
<polygon fill="white" stroke="transparent" points="-4,4 -4,-207 722,-207 722,4 -4,4"/>
<text text-anchor="start" x="338.01" y="-42.4" font-family="sans-serif" font-weight="bold" font-size="14.00">Legend</text>
<polygon fill="#ffffb3" stroke="transparent" points="125,-10 125,-30 145,-30 145,-10 125,-10"/>
<text text-anchor="start" x="148.63" y="-15.4" font-family="sans-serif" font-size="14.00"> &#160;Declarations</text>
<polygon fill="#8dd3c7" stroke="transparent" points="238,-10 238,-30 258,-30 258,-10 238,-10"/>
<text text-anchor="start" x="261.73" y="-15.4" font-family="sans-serif" font-size="14.00"> &#160;Module</text>
<polygon fill="#80b1d3" stroke="transparent" points="324,-10 324,-30 344,-30 344,-10 324,-10"/>
<text text-anchor="start" x="347.78" y="-15.4" font-family="sans-serif" font-size="14.00"> &#160;Bootstrap</text>
<polygon fill="#fdb462" stroke="transparent" points="421,-10 421,-30 441,-30 441,-10 421,-10"/>
<text text-anchor="start" x="444.67" y="-15.4" font-family="sans-serif" font-size="14.00"> &#160;Providers</text>
<polygon fill="#fb8072" stroke="transparent" points="517,-10 517,-30 537,-30 537,-10 517,-10"/>
<text text-anchor="start" x="540.73" y="-15.4" font-family="sans-serif" font-size="14.00"> &#160;Exports</text>
<g id="clust1" class="cluster">
<title>cluster_ServerModule</title>
<polygon fill="none" stroke="black" stroke-dasharray="1,5" points="8,-70 8,-195 710,-195 710,-70 8,-70"/>
</g>
<g id="clust3" class="cluster">
<title>cluster_ServerModule_imports</title>
<polygon fill="none" stroke="black" points="170,-78 170,-130 702,-130 702,-78 170,-78"/>
</g>
<g id="clust6" class="cluster">
<title>cluster_ServerModule_providers</title>
<polygon fill="none" stroke="black" points="16,-78 16,-130 162,-130 162,-78 16,-78"/>
</g>
<!-- AuthModule -->
<g id="node1" class="node">
<title>AuthModule</title>
<polygon fill="#8dd3c7" stroke="black" points="693.55,-122 690.55,-126 669.55,-126 666.55,-122 606.45,-122 606.45,-86 693.55,-86 693.55,-122"/>
<text text-anchor="middle" x="650" y="-99.8" font-family="Times,serif" font-size="14.00">AuthModule</text>
</g>
<!-- ServerModule -->
<g id="node6" class="node">
<title>ServerModule</title>
<polygon fill="#8dd3c7" stroke="black" points="432.08,-187 429.08,-191 408.08,-191 405.08,-187 335.92,-187 335.92,-151 432.08,-151 432.08,-187"/>
<text text-anchor="middle" x="384" y="-164.8" font-family="Times,serif" font-size="14.00">ServerModule</text>
</g>
<!-- AuthModule&#45;&gt;ServerModule -->
<g id="edge1" class="edge">
<title>AuthModule&#45;&gt;ServerModule</title>
<path fill="none" stroke="black" d="M650,-122.28C650,-143.32 650,-175 650,-175 650,-175 442.17,-175 442.17,-175"/>
<polygon fill="black" stroke="black" points="442.17,-171.5 432.17,-175 442.17,-178.5 442.17,-171.5"/>
</g>
<!-- CoreModule -->
<g id="node2" class="node">
<title>CoreModule</title>
<polygon fill="#8dd3c7" stroke="black" points="588.26,-122 585.26,-126 564.26,-126 561.26,-122 501.74,-122 501.74,-86 588.26,-86 588.26,-122"/>
<text text-anchor="middle" x="545" y="-99.8" font-family="Times,serif" font-size="14.00">CoreModule</text>
</g>
<!-- CoreModule&#45;&gt;ServerModule -->
<g id="edge2" class="edge">
<title>CoreModule&#45;&gt;ServerModule</title>
<path fill="none" stroke="black" d="M545,-122.02C545,-139.37 545,-163 545,-163 545,-163 442.31,-163 442.31,-163"/>
<polygon fill="black" stroke="black" points="442.31,-159.5 432.31,-163 442.31,-166.5 442.31,-159.5"/>
</g>
<!-- NewsModule -->
<g id="node3" class="node">
<title>NewsModule</title>
<polygon fill="#8dd3c7" stroke="black" points="483.92,-122 480.92,-126 459.92,-126 456.92,-122 392.08,-122 392.08,-86 483.92,-86 483.92,-122"/>
<text text-anchor="middle" x="438" y="-99.8" font-family="Times,serif" font-size="14.00">NewsModule</text>
</g>
<!-- NewsModule&#45;&gt;ServerModule -->
<g id="edge3" class="edge">
<title>NewsModule&#45;&gt;ServerModule</title>
<path fill="none" stroke="black" d="M412.17,-122.11C412.17,-122.11 412.17,-140.99 412.17,-140.99"/>
<polygon fill="black" stroke="black" points="408.67,-140.99 412.17,-150.99 415.67,-140.99 408.67,-140.99"/>
</g>
<!-- TaskModule -->
<g id="node4" class="node">
<title>TaskModule</title>
<polygon fill="#8dd3c7" stroke="black" points="374.26,-122 371.26,-126 350.26,-126 347.26,-122 287.74,-122 287.74,-86 374.26,-86 374.26,-122"/>
<text text-anchor="middle" x="331" y="-99.8" font-family="Times,serif" font-size="14.00">TaskModule</text>
</g>
<!-- TaskModule&#45;&gt;ServerModule -->
<g id="edge4" class="edge">
<title>TaskModule&#45;&gt;ServerModule</title>
<path fill="none" stroke="black" d="M355.17,-122.11C355.17,-122.11 355.17,-140.99 355.17,-140.99"/>
<polygon fill="black" stroke="black" points="351.67,-140.99 355.17,-150.99 358.67,-140.99 351.67,-140.99"/>
</g>
<!-- UsersModule -->
<g id="node5" class="node">
<title>UsersModule</title>
<polygon fill="#8dd3c7" stroke="black" points="269.92,-122 266.92,-126 245.92,-126 242.92,-122 178.08,-122 178.08,-86 269.92,-86 269.92,-122"/>
<text text-anchor="middle" x="224" y="-99.8" font-family="Times,serif" font-size="14.00">UsersModule</text>
</g>
<!-- UsersModule&#45;&gt;ServerModule -->
<g id="edge5" class="edge">
<title>UsersModule&#45;&gt;ServerModule</title>
<path fill="none" stroke="black" d="M224,-122.02C224,-139.37 224,-163 224,-163 224,-163 325.56,-163 325.56,-163"/>
<polygon fill="black" stroke="black" points="325.56,-166.5 335.56,-163 325.56,-159.5 325.56,-166.5"/>
</g>
<!-- ServerService -->
<g id="node7" class="node">
<title>ServerService</title>
<ellipse fill="#fdb462" stroke="black" cx="89" cy="-104" rx="65.38" ry="18"/>
<text text-anchor="middle" x="89" y="-99.8" font-family="Times,serif" font-size="14.00">ServerService</text>
</g>
<!-- ServerService&#45;&gt;ServerModule -->
<g id="edge6" class="edge">
<title>ServerService&#45;&gt;ServerModule</title>
<path fill="none" stroke="black" d="M89,-122.28C89,-143.32 89,-175 89,-175 89,-175 325.95,-175 325.95,-175"/>
<polygon fill="black" stroke="black" points="325.95,-178.5 335.95,-175 325.95,-171.5 325.95,-178.5"/>
</g>
</g>
</svg>
