<?xml version="1.0" encoding="UTF-8" standalone="no"?>
<!DOCTYPE svg PUBLIC "-//W3C//DTD SVG 1.1//EN"
 "http://www.w3.org/Graphics/SVG/1.1/DTD/svg11.dtd">
<!-- Generated by graphviz version 2.47.3 (20210619.1520)
 -->
<!-- Title: dependencies Pages: 1 -->
<svg width="566pt" height="174pt"
 viewBox="0.00 0.00 566.00 173.80" xmlns="http://www.w3.org/2000/svg" xmlns:xlink="http://www.w3.org/1999/xlink">
<g id="graph0" class="graph" transform="scale(1 1) rotate(0) translate(4 169.8)">
<title>dependencies</title>
<polygon fill="white" stroke="transparent" points="-4,4 -4,-169.8 562,-169.8 562,4 -4,4"/>
<text text-anchor="middle" x="279" y="-8.2" font-family="sans-serif" font-size="14.00">dependencies</text>
<g id="clust1" class="cluster">
<title>cluster_ServerModule</title>
<polygon fill="none" stroke="black" stroke-dasharray="1,5" points="8,-32.8 8,-157.8 550,-157.8 550,-32.8 8,-32.8"/>
</g>
<g id="clust3" class="cluster">
<title>cluster_ServerModule_imports</title>
<polygon fill="none" stroke="black" points="16,-40.8 16,-92.8 542,-92.8 542,-40.8 16,-40.8"/>
</g>
<!-- AuthModule -->
<g id="node1" class="node">
<title>AuthModule</title>
<polygon fill="#8dd3c7" stroke="black" points="533.55,-84.8 530.55,-88.8 509.55,-88.8 506.55,-84.8 446.45,-84.8 446.45,-48.8 533.55,-48.8 533.55,-84.8"/>
<text text-anchor="middle" x="490" y="-62.6" font-family="Times,serif" font-size="14.00">AuthModule</text>
</g>
<!-- ServerModule -->
<g id="node6" class="node">
<title>ServerModule</title>
<polygon fill="#8dd3c7" stroke="black" points="326.08,-149.8 323.08,-153.8 302.08,-153.8 299.08,-149.8 229.92,-149.8 229.92,-113.8 326.08,-113.8 326.08,-149.8"/>
<text text-anchor="middle" x="278" y="-127.6" font-family="Times,serif" font-size="14.00">ServerModule</text>
</g>
<!-- AuthModule&#45;&gt;ServerModule -->
<g id="edge1" class="edge">
<title>AuthModule&#45;&gt;ServerModule</title>
<path fill="none" stroke="black" d="M490,-85.08C490,-106.12 490,-137.8 490,-137.8 490,-137.8 336.11,-137.8 336.11,-137.8"/>
<polygon fill="black" stroke="black" points="336.11,-134.3 326.11,-137.8 336.11,-141.3 336.11,-134.3"/>
</g>
<!-- CoreModule -->
<g id="node2" class="node">
<title>CoreModule</title>
<polygon fill="#8dd3c7" stroke="black" points="428.26,-84.8 425.26,-88.8 404.26,-88.8 401.26,-84.8 341.74,-84.8 341.74,-48.8 428.26,-48.8 428.26,-84.8"/>
<text text-anchor="middle" x="385" y="-62.6" font-family="Times,serif" font-size="14.00">CoreModule</text>
</g>
<!-- CoreModule&#45;&gt;ServerModule -->
<g id="edge2" class="edge">
<title>CoreModule&#45;&gt;ServerModule</title>
<path fill="none" stroke="black" d="M385,-84.82C385,-102.17 385,-125.8 385,-125.8 385,-125.8 336.18,-125.8 336.18,-125.8"/>
<polygon fill="black" stroke="black" points="336.18,-122.3 326.18,-125.8 336.18,-129.3 336.18,-122.3"/>
</g>
<!-- NewsModule -->
<g id="node3" class="node">
<title>NewsModule</title>
<polygon fill="#8dd3c7" stroke="black" points="323.92,-84.8 320.92,-88.8 299.92,-88.8 296.92,-84.8 232.08,-84.8 232.08,-48.8 323.92,-48.8 323.92,-84.8"/>
<text text-anchor="middle" x="278" y="-62.6" font-family="Times,serif" font-size="14.00">NewsModule</text>
</g>
<!-- NewsModule&#45;&gt;ServerModule -->
<g id="edge3" class="edge">
<title>NewsModule&#45;&gt;ServerModule</title>
<path fill="none" stroke="black" d="M278,-84.91C278,-84.91 278,-103.79 278,-103.79"/>
<polygon fill="black" stroke="black" points="274.5,-103.79 278,-113.79 281.5,-103.79 274.5,-103.79"/>
</g>
<!-- TaskModule -->
<g id="node4" class="node">
<title>TaskModule</title>
<polygon fill="#8dd3c7" stroke="black" points="214.26,-84.8 211.26,-88.8 190.26,-88.8 187.26,-84.8 127.74,-84.8 127.74,-48.8 214.26,-48.8 214.26,-84.8"/>
<text text-anchor="middle" x="171" y="-62.6" font-family="Times,serif" font-size="14.00">TaskModule</text>
</g>
<!-- TaskModule&#45;&gt;ServerModule -->
<g id="edge4" class="edge">
<title>TaskModule&#45;&gt;ServerModule</title>
<path fill="none" stroke="black" d="M171,-84.82C171,-102.17 171,-125.8 171,-125.8 171,-125.8 219.82,-125.8 219.82,-125.8"/>
<polygon fill="black" stroke="black" points="219.82,-129.3 229.82,-125.8 219.82,-122.3 219.82,-129.3"/>
</g>
<!-- UserModule -->
<g id="node5" class="node">
<title>UserModule</title>
<polygon fill="#8dd3c7" stroke="black" points="109.98,-84.8 106.98,-88.8 85.98,-88.8 82.98,-84.8 24.02,-84.8 24.02,-48.8 109.98,-48.8 109.98,-84.8"/>
<text text-anchor="middle" x="67" y="-62.6" font-family="Times,serif" font-size="14.00">UserModule</text>
</g>
<!-- UserModule&#45;&gt;ServerModule -->
<g id="edge5" class="edge">
<title>UserModule&#45;&gt;ServerModule</title>
<path fill="none" stroke="black" d="M67,-85.08C67,-106.12 67,-137.8 67,-137.8 67,-137.8 219.86,-137.8 219.86,-137.8"/>
<polygon fill="black" stroke="black" points="219.86,-141.3 229.86,-137.8 219.86,-134.3 219.86,-141.3"/>
</g>
</g>
</svg>
