<?xml version="1.0" encoding="UTF-8" standalone="no"?>
<!DOCTYPE svg PUBLIC "-//W3C//DTD SVG 1.1//EN"
 "http://www.w3.org/Graphics/SVG/1.1/DTD/svg11.dtd">
<!-- Generated by graphviz version 2.47.0 (20210316.0004)
 -->
<!-- Title: dependencies Pages: 1 -->
<svg width="616pt" height="211pt"
 viewBox="0.00 0.00 616.00 211.00" xmlns="http://www.w3.org/2000/svg" xmlns:xlink="http://www.w3.org/1999/xlink">
<g id="graph0" class="graph" transform="scale(1 1) rotate(0) translate(4 207)">
<title>dependencies</title>
<polygon fill="white" stroke="transparent" points="-4,4 -4,-207 612,-207 612,4 -4,4"/>
<text text-anchor="start" x="283.01" y="-42.4" font-family="sans-serif" font-weight="bold" font-size="14.00">Legend</text>
<polygon fill="#ffffb3" stroke="transparent" points="70,-10 70,-30 90,-30 90,-10 70,-10"/>
<text text-anchor="start" x="93.63" y="-15.4" font-family="sans-serif" font-size="14.00"> &#160;Declarations</text>
<polygon fill="#8dd3c7" stroke="transparent" points="183,-10 183,-30 203,-30 203,-10 183,-10"/>
<text text-anchor="start" x="206.73" y="-15.4" font-family="sans-serif" font-size="14.00"> &#160;Module</text>
<polygon fill="#80b1d3" stroke="transparent" points="269,-10 269,-30 289,-30 289,-10 269,-10"/>
<text text-anchor="start" x="292.78" y="-15.4" font-family="sans-serif" font-size="14.00"> &#160;Bootstrap</text>
<polygon fill="#fdb462" stroke="transparent" points="366,-10 366,-30 386,-30 386,-10 366,-10"/>
<text text-anchor="start" x="389.67" y="-15.4" font-family="sans-serif" font-size="14.00"> &#160;Providers</text>
<polygon fill="#fb8072" stroke="transparent" points="462,-10 462,-30 482,-30 482,-10 462,-10"/>
<text text-anchor="start" x="485.73" y="-15.4" font-family="sans-serif" font-size="14.00"> &#160;Exports</text>
<g id="clust1" class="cluster">
<title>cluster_ServerModule</title>
<polygon fill="none" stroke="black" stroke-dasharray="1,5" points="8,-70 8,-195 600,-195 600,-70 8,-70"/>
</g>
<g id="clust6" class="cluster">
<title>cluster_ServerModule_providers</title>
<polygon fill="none" stroke="black" points="446,-78 446,-130 592,-130 592,-78 446,-78"/>
</g>
<g id="clust3" class="cluster">
<title>cluster_ServerModule_imports</title>
<polygon fill="none" stroke="black" points="16,-78 16,-130 438,-130 438,-78 16,-78"/>
</g>
<!-- AuthModule -->
<g id="node1" class="node">
<title>AuthModule</title>
<polygon fill="#8dd3c7" stroke="black" points="429.55,-122 426.55,-126 405.55,-126 402.55,-122 342.45,-122 342.45,-86 429.55,-86 429.55,-122"/>
<text text-anchor="middle" x="386" y="-99.8" font-family="Times,serif" font-size="14.00">AuthModule</text>
</g>
<!-- ServerModule -->
<g id="node5" class="node">
<title>ServerModule</title>
<polygon fill="#8dd3c7" stroke="black" points="329.08,-187 326.08,-191 305.08,-191 302.08,-187 232.92,-187 232.92,-151 329.08,-151 329.08,-187"/>
<text text-anchor="middle" x="281" y="-164.8" font-family="Times,serif" font-size="14.00">ServerModule</text>
</g>
<!-- AuthModule&#45;&gt;ServerModule -->
<g id="edge1" class="edge">
<title>AuthModule&#45;&gt;ServerModule</title>
<path fill="none" stroke="black" d="M386,-122.02C386,-139.37 386,-163 386,-163 386,-163 339.2,-163 339.2,-163"/>
<polygon fill="black" stroke="black" points="339.2,-159.5 329.2,-163 339.2,-166.5 339.2,-159.5"/>
</g>
<!-- CoreModule -->
<g id="node2" class="node">
<title>CoreModule</title>
<polygon fill="#8dd3c7" stroke="black" points="324.26,-122 321.26,-126 300.26,-126 297.26,-122 237.74,-122 237.74,-86 324.26,-86 324.26,-122"/>
<text text-anchor="middle" x="281" y="-99.8" font-family="Times,serif" font-size="14.00">CoreModule</text>
</g>
<!-- CoreModule&#45;&gt;ServerModule -->
<g id="edge2" class="edge">
<title>CoreModule&#45;&gt;ServerModule</title>
<path fill="none" stroke="black" d="M281,-122.11C281,-122.11 281,-140.99 281,-140.99"/>
<polygon fill="black" stroke="black" points="277.5,-140.99 281,-150.99 284.5,-140.99 277.5,-140.99"/>
</g>
<!-- NewsModule -->
<g id="node3" class="node">
<title>NewsModule</title>
<polygon fill="#8dd3c7" stroke="black" points="219.92,-122 216.92,-126 195.92,-126 192.92,-122 128.08,-122 128.08,-86 219.92,-86 219.92,-122"/>
<text text-anchor="middle" x="174" y="-99.8" font-family="Times,serif" font-size="14.00">NewsModule</text>
</g>
<!-- NewsModule&#45;&gt;ServerModule -->
<g id="edge3" class="edge">
<title>NewsModule&#45;&gt;ServerModule</title>
<path fill="none" stroke="black" d="M174,-122.02C174,-139.37 174,-163 174,-163 174,-163 222.82,-163 222.82,-163"/>
<polygon fill="black" stroke="black" points="222.82,-166.5 232.82,-163 222.82,-159.5 222.82,-166.5"/>
</g>
<!-- TaskModule -->
<g id="node4" class="node">
<title>TaskModule</title>
<polygon fill="#8dd3c7" stroke="black" points="110.26,-122 107.26,-126 86.26,-126 83.26,-122 23.74,-122 23.74,-86 110.26,-86 110.26,-122"/>
<text text-anchor="middle" x="67" y="-99.8" font-family="Times,serif" font-size="14.00">TaskModule</text>
</g>
<!-- TaskModule&#45;&gt;ServerModule -->
<g id="edge4" class="edge">
<title>TaskModule&#45;&gt;ServerModule</title>
<path fill="none" stroke="black" d="M67,-122.28C67,-143.32 67,-175 67,-175 67,-175 222.71,-175 222.71,-175"/>
<polygon fill="black" stroke="black" points="222.71,-178.5 232.71,-175 222.71,-171.5 222.71,-178.5"/>
</g>
<!-- ServerService -->
<g id="node6" class="node">
<title>ServerService</title>
<ellipse fill="#fdb462" stroke="black" cx="519" cy="-104" rx="65.38" ry="18"/>
<text text-anchor="middle" x="519" y="-99.8" font-family="Times,serif" font-size="14.00">ServerService</text>
</g>
<!-- ServerService&#45;&gt;ServerModule -->
<g id="edge5" class="edge">
<title>ServerService&#45;&gt;ServerModule</title>
<path fill="none" stroke="black" d="M519,-122.28C519,-143.32 519,-175 519,-175 519,-175 339.16,-175 339.16,-175"/>
<polygon fill="black" stroke="black" points="339.16,-171.5 329.16,-175 339.16,-178.5 339.16,-171.5"/>
</g>
</g>
</svg>
