<?xml version="1.0" encoding="UTF-8" standalone="no"?>
<!DOCTYPE svg PUBLIC "-//W3C//DTD SVG 1.1//EN"
 "http://www.w3.org/Graphics/SVG/1.1/DTD/svg11.dtd">
<!-- Generated by graphviz version 2.47.0 (20210316.0004)
 -->
<!-- Title: dependencies Pages: 1 -->
<svg width="616pt" height="211pt"
 viewBox="0.00 0.00 616.00 211.00" xmlns="http://www.w3.org/2000/svg" xmlns:xlink="http://www.w3.org/1999/xlink">
<g id="graph0" class="graph" transform="scale(1 1) rotate(0) translate(4 207)">
<title>dependencies</title>
<polygon fill="white" stroke="transparent" points="-4,4 -4,-207 612,-207 612,4 -4,4"/>
<text text-anchor="start" x="283.01" y="-42.4" font-family="sans-serif" font-weight="bold" font-size="14.00">Legend</text>
<polygon fill="#ffffb3" stroke="transparent" points="70,-10 70,-30 90,-30 90,-10 70,-10"/>
<text text-anchor="start" x="93.63" y="-15.4" font-family="sans-serif" font-size="14.00"> &#160;Declarations</text>
<polygon fill="#8dd3c7" stroke="transparent" points="183,-10 183,-30 203,-30 203,-10 183,-10"/>
<text text-anchor="start" x="206.73" y="-15.4" font-family="sans-serif" font-size="14.00"> &#160;Module</text>
<polygon fill="#80b1d3" stroke="transparent" points="269,-10 269,-30 289,-30 289,-10 269,-10"/>
<text text-anchor="start" x="292.78" y="-15.4" font-family="sans-serif" font-size="14.00"> &#160;Bootstrap</text>
<polygon fill="#fdb462" stroke="transparent" points="366,-10 366,-30 386,-30 386,-10 366,-10"/>
<text text-anchor="start" x="389.67" y="-15.4" font-family="sans-serif" font-size="14.00"> &#160;Providers</text>
<polygon fill="#fb8072" stroke="transparent" points="462,-10 462,-30 482,-30 482,-10 462,-10"/>
<text text-anchor="start" x="485.73" y="-15.4" font-family="sans-serif" font-size="14.00"> &#160;Exports</text>
<g id="clust1" class="cluster">
<title>cluster_ServerModule</title>
<polygon fill="none" stroke="black" stroke-dasharray="1,5" points="8,-70 8,-195 600,-195 600,-70 8,-70"/>
</g>
<g id="clust3" class="cluster">
<title>cluster_ServerModule_imports</title>
<polygon fill="none" stroke="black" points="170,-78 170,-130 592,-130 592,-78 170,-78"/>
</g>
<g id="clust6" class="cluster">
<title>cluster_ServerModule_providers</title>
<polygon fill="none" stroke="black" points="16,-78 16,-130 162,-130 162,-78 16,-78"/>
</g>
<!-- AuthModule -->
<g id="node1" class="node">
<title>AuthModule</title>
<polygon fill="#8dd3c7" stroke="black" points="583.55,-122 580.55,-126 559.55,-126 556.55,-122 496.45,-122 496.45,-86 583.55,-86 583.55,-122"/>
<text text-anchor="middle" x="540" y="-99.8" font-family="Times,serif" font-size="14.00">AuthModule</text>
</g>
<!-- ServerModule -->
<g id="node5" class="node">
<title>ServerModule</title>
<polygon fill="#8dd3c7" stroke="black" points="376.08,-187 373.08,-191 352.08,-191 349.08,-187 279.92,-187 279.92,-151 376.08,-151 376.08,-187"/>
<text text-anchor="middle" x="328" y="-164.8" font-family="Times,serif" font-size="14.00">ServerModule</text>
</g>
<!-- AuthModule&#45;&gt;ServerModule -->
<g id="edge1" class="edge">
<title>AuthModule&#45;&gt;ServerModule</title>
<path fill="none" stroke="black" d="M540,-122.28C540,-143.32 540,-175 540,-175 540,-175 386.11,-175 386.11,-175"/>
<polygon fill="black" stroke="black" points="386.11,-171.5 376.11,-175 386.11,-178.5 386.11,-171.5"/>
</g>
<!-- CoreModule -->
<g id="node2" class="node">
<title>CoreModule</title>
<polygon fill="#8dd3c7" stroke="black" points="478.26,-122 475.26,-126 454.26,-126 451.26,-122 391.74,-122 391.74,-86 478.26,-86 478.26,-122"/>
<text text-anchor="middle" x="435" y="-99.8" font-family="Times,serif" font-size="14.00">CoreModule</text>
</g>
<!-- CoreModule&#45;&gt;ServerModule -->
<g id="edge2" class="edge">
<title>CoreModule&#45;&gt;ServerModule</title>
<path fill="none" stroke="black" d="M435,-122.02C435,-139.37 435,-163 435,-163 435,-163 386.18,-163 386.18,-163"/>
<polygon fill="black" stroke="black" points="386.18,-159.5 376.18,-163 386.18,-166.5 386.18,-159.5"/>
</g>
<!-- NewsModule -->
<g id="node3" class="node">
<title>NewsModule</title>
<polygon fill="#8dd3c7" stroke="black" points="373.92,-122 370.92,-126 349.92,-126 346.92,-122 282.08,-122 282.08,-86 373.92,-86 373.92,-122"/>
<text text-anchor="middle" x="328" y="-99.8" font-family="Times,serif" font-size="14.00">NewsModule</text>
</g>
<!-- NewsModule&#45;&gt;ServerModule -->
<g id="edge3" class="edge">
<title>NewsModule&#45;&gt;ServerModule</title>
<path fill="none" stroke="black" d="M328,-122.11C328,-122.11 328,-140.99 328,-140.99"/>
<polygon fill="black" stroke="black" points="324.5,-140.99 328,-150.99 331.5,-140.99 324.5,-140.99"/>
</g>
<!-- TaskModule -->
<g id="node4" class="node">
<title>TaskModule</title>
<polygon fill="#8dd3c7" stroke="black" points="264.26,-122 261.26,-126 240.26,-126 237.26,-122 177.74,-122 177.74,-86 264.26,-86 264.26,-122"/>
<text text-anchor="middle" x="221" y="-99.8" font-family="Times,serif" font-size="14.00">TaskModule</text>
</g>
<!-- TaskModule&#45;&gt;ServerModule -->
<g id="edge4" class="edge">
<title>TaskModule&#45;&gt;ServerModule</title>
<path fill="none" stroke="black" d="M221,-122.02C221,-139.37 221,-163 221,-163 221,-163 269.82,-163 269.82,-163"/>
<polygon fill="black" stroke="black" points="269.82,-166.5 279.82,-163 269.82,-159.5 269.82,-166.5"/>
</g>
<!-- ServerService -->
<g id="node6" class="node">
<title>ServerService</title>
<ellipse fill="#fdb462" stroke="black" cx="89" cy="-104" rx="65.38" ry="18"/>
<text text-anchor="middle" x="89" y="-99.8" font-family="Times,serif" font-size="14.00">ServerService</text>
</g>
<!-- ServerService&#45;&gt;ServerModule -->
<g id="edge5" class="edge">
<title>ServerService&#45;&gt;ServerModule</title>
<path fill="none" stroke="black" d="M89,-122.28C89,-143.32 89,-175 89,-175 89,-175 269.92,-175 269.92,-175"/>
<polygon fill="black" stroke="black" points="269.92,-178.5 279.92,-175 269.92,-171.5 269.92,-178.5"/>
</g>
</g>
</svg>
