<?xml version="1.0" encoding="UTF-8" standalone="no"?>
<!DOCTYPE svg PUBLIC "-//W3C//DTD SVG 1.1//EN"
 "http://www.w3.org/Graphics/SVG/1.1/DTD/svg11.dtd">
<!-- Generated by graphviz version 2.47.0 (20210316.0004)
 -->
<!-- Title: dependencies Pages: 1 -->
<svg width="621pt" height="211pt"
 viewBox="0.00 0.00 621.00 211.00" xmlns="http://www.w3.org/2000/svg" xmlns:xlink="http://www.w3.org/1999/xlink">
<g id="graph0" class="graph" transform="scale(1 1) rotate(0) translate(4 207)">
<title>dependencies</title>
<polygon fill="white" stroke="transparent" points="-4,4 -4,-207 617,-207 617,4 -4,4"/>
<text text-anchor="start" x="285.51" y="-42.4" font-family="sans-serif" font-weight="bold" font-size="14.00">Legend</text>
<polygon fill="#ffffb3" stroke="transparent" points="72.5,-10 72.5,-30 92.5,-30 92.5,-10 72.5,-10"/>
<text text-anchor="start" x="96.13" y="-15.4" font-family="sans-serif" font-size="14.00"> &#160;Declarations</text>
<polygon fill="#8dd3c7" stroke="transparent" points="185.5,-10 185.5,-30 205.5,-30 205.5,-10 185.5,-10"/>
<text text-anchor="start" x="209.23" y="-15.4" font-family="sans-serif" font-size="14.00"> &#160;Module</text>
<polygon fill="#80b1d3" stroke="transparent" points="271.5,-10 271.5,-30 291.5,-30 291.5,-10 271.5,-10"/>
<text text-anchor="start" x="295.28" y="-15.4" font-family="sans-serif" font-size="14.00"> &#160;Bootstrap</text>
<polygon fill="#fdb462" stroke="transparent" points="368.5,-10 368.5,-30 388.5,-30 388.5,-10 368.5,-10"/>
<text text-anchor="start" x="392.17" y="-15.4" font-family="sans-serif" font-size="14.00"> &#160;Providers</text>
<polygon fill="#fb8072" stroke="transparent" points="464.5,-10 464.5,-30 484.5,-30 484.5,-10 464.5,-10"/>
<text text-anchor="start" x="488.23" y="-15.4" font-family="sans-serif" font-size="14.00"> &#160;Exports</text>
<g id="clust1" class="cluster">
<title>cluster_ServerModule</title>
<polygon fill="none" stroke="black" stroke-dasharray="1,5" points="8,-70 8,-195 605,-195 605,-70 8,-70"/>
</g>
<g id="clust3" class="cluster">
<title>cluster_ServerModule_imports</title>
<polygon fill="none" stroke="black" points="170,-78 170,-130 597,-130 597,-78 170,-78"/>
</g>
<g id="clust6" class="cluster">
<title>cluster_ServerModule_providers</title>
<polygon fill="none" stroke="black" points="16,-78 16,-130 162,-130 162,-78 16,-78"/>
</g>
<!-- AuthModule -->
<g id="node1" class="node">
<title>AuthModule</title>
<polygon fill="#8dd3c7" stroke="black" points="588.55,-122 585.55,-126 564.55,-126 561.55,-122 501.45,-122 501.45,-86 588.55,-86 588.55,-122"/>
<text text-anchor="middle" x="545" y="-99.8" font-family="Times,serif" font-size="14.00">AuthModule</text>
</g>
<!-- ServerModule -->
<g id="node5" class="node">
<title>ServerModule</title>
<polygon fill="#8dd3c7" stroke="black" points="379.08,-187 376.08,-191 355.08,-191 352.08,-187 282.92,-187 282.92,-151 379.08,-151 379.08,-187"/>
<text text-anchor="middle" x="331" y="-164.8" font-family="Times,serif" font-size="14.00">ServerModule</text>
</g>
<!-- AuthModule&#45;&gt;ServerModule -->
<g id="edge1" class="edge">
<title>AuthModule&#45;&gt;ServerModule</title>
<path fill="none" stroke="black" d="M545,-122.28C545,-143.32 545,-175 545,-175 545,-175 389.29,-175 389.29,-175"/>
<polygon fill="black" stroke="black" points="389.29,-171.5 379.29,-175 389.29,-178.5 389.29,-171.5"/>
</g>
<!-- NewsModule -->
<g id="node2" class="node">
<title>NewsModule</title>
<polygon fill="#8dd3c7" stroke="black" points="483.92,-122 480.92,-126 459.92,-126 456.92,-122 392.08,-122 392.08,-86 483.92,-86 483.92,-122"/>
<text text-anchor="middle" x="438" y="-99.8" font-family="Times,serif" font-size="14.00">NewsModule</text>
</g>
<!-- NewsModule&#45;&gt;ServerModule -->
<g id="edge2" class="edge">
<title>NewsModule&#45;&gt;ServerModule</title>
<path fill="none" stroke="black" d="M438,-122.02C438,-139.37 438,-163 438,-163 438,-163 389.18,-163 389.18,-163"/>
<polygon fill="black" stroke="black" points="389.18,-159.5 379.18,-163 389.18,-166.5 389.18,-159.5"/>
</g>
<!-- TaskModule -->
<g id="node3" class="node">
<title>TaskModule</title>
<polygon fill="#8dd3c7" stroke="black" points="374.26,-122 371.26,-126 350.26,-126 347.26,-122 287.74,-122 287.74,-86 374.26,-86 374.26,-122"/>
<text text-anchor="middle" x="331" y="-99.8" font-family="Times,serif" font-size="14.00">TaskModule</text>
</g>
<!-- TaskModule&#45;&gt;ServerModule -->
<g id="edge3" class="edge">
<title>TaskModule&#45;&gt;ServerModule</title>
<path fill="none" stroke="black" d="M331,-122.11C331,-122.11 331,-140.99 331,-140.99"/>
<polygon fill="black" stroke="black" points="327.5,-140.99 331,-150.99 334.5,-140.99 327.5,-140.99"/>
</g>
<!-- UsersModule -->
<g id="node4" class="node">
<title>UsersModule</title>
<polygon fill="#8dd3c7" stroke="black" points="269.92,-122 266.92,-126 245.92,-126 242.92,-122 178.08,-122 178.08,-86 269.92,-86 269.92,-122"/>
<text text-anchor="middle" x="224" y="-99.8" font-family="Times,serif" font-size="14.00">UsersModule</text>
</g>
<!-- UsersModule&#45;&gt;ServerModule -->
<g id="edge4" class="edge">
<title>UsersModule&#45;&gt;ServerModule</title>
<path fill="none" stroke="black" d="M224,-122.02C224,-139.37 224,-163 224,-163 224,-163 272.82,-163 272.82,-163"/>
<polygon fill="black" stroke="black" points="272.82,-166.5 282.82,-163 272.82,-159.5 272.82,-166.5"/>
</g>
<!-- ServerService -->
<g id="node6" class="node">
<title>ServerService</title>
<ellipse fill="#fdb462" stroke="black" cx="89" cy="-104" rx="65.38" ry="18"/>
<text text-anchor="middle" x="89" y="-99.8" font-family="Times,serif" font-size="14.00">ServerService</text>
</g>
<!-- ServerService&#45;&gt;ServerModule -->
<g id="edge5" class="edge">
<title>ServerService&#45;&gt;ServerModule</title>
<path fill="none" stroke="black" d="M89,-122.28C89,-143.32 89,-175 89,-175 89,-175 272.9,-175 272.9,-175"/>
<polygon fill="black" stroke="black" points="272.9,-178.5 282.9,-175 272.9,-171.5 272.9,-178.5"/>
</g>
</g>
</svg>
