<?xml version="1.0" encoding="UTF-8" standalone="no"?>
<!DOCTYPE svg PUBLIC "-//W3C//DTD SVG 1.1//EN"
 "http://www.w3.org/Graphics/SVG/1.1/DTD/svg11.dtd">
<!-- Generated by graphviz version 2.47.3 (20210619.1520)
 -->
<!-- Title: dependencies Pages: 1 -->
<svg width="670pt" height="174pt"
 viewBox="0.00 0.00 670.00 173.80" xmlns="http://www.w3.org/2000/svg" xmlns:xlink="http://www.w3.org/1999/xlink">
<g id="graph0" class="graph" transform="scale(1 1) rotate(0) translate(4 169.8)">
<title>dependencies</title>
<polygon fill="white" stroke="transparent" points="-4,4 -4,-169.8 666,-169.8 666,4 -4,4"/>
<text text-anchor="middle" x="331" y="-8.2" font-family="sans-serif" font-size="14.00">dependencies</text>
<g id="clust1" class="cluster">
<title>cluster_ServerModule</title>
<polygon fill="none" stroke="black" stroke-dasharray="1,5" points="8,-32.8 8,-157.8 654,-157.8 654,-32.8 8,-32.8"/>
</g>
<g id="clust3" class="cluster">
<title>cluster_ServerModule_imports</title>
<polygon fill="none" stroke="black" points="16,-40.8 16,-92.8 646,-92.8 646,-40.8 16,-40.8"/>
</g>
<!-- AuthModule -->
<g id="node1" class="node">
<title>AuthModule</title>
<polygon fill="#8dd3c7" stroke="black" points="637.55,-84.8 634.55,-88.8 613.55,-88.8 610.55,-84.8 550.45,-84.8 550.45,-48.8 637.55,-48.8 637.55,-84.8"/>
<text text-anchor="middle" x="594" y="-62.6" font-family="Times,serif" font-size="14.00">AuthModule</text>
</g>
<!-- ServerModule -->
<g id="node7" class="node">
<title>ServerModule</title>
<polygon fill="#8dd3c7" stroke="black" points="379.08,-149.8 376.08,-153.8 355.08,-153.8 352.08,-149.8 282.92,-149.8 282.92,-113.8 379.08,-113.8 379.08,-149.8"/>
<text text-anchor="middle" x="331" y="-127.6" font-family="Times,serif" font-size="14.00">ServerModule</text>
</g>
<!-- AuthModule&#45;&gt;ServerModule -->
<g id="edge1" class="edge">
<title>AuthModule&#45;&gt;ServerModule</title>
<path fill="none" stroke="black" d="M594,-85.08C594,-106.12 594,-137.8 594,-137.8 594,-137.8 389.24,-137.8 389.24,-137.8"/>
<polygon fill="black" stroke="black" points="389.24,-134.3 379.24,-137.8 389.24,-141.3 389.24,-134.3"/>
</g>
<!-- CoreModule -->
<g id="node2" class="node">
<title>CoreModule</title>
<polygon fill="#8dd3c7" stroke="black" points="532.26,-84.8 529.26,-88.8 508.26,-88.8 505.26,-84.8 445.74,-84.8 445.74,-48.8 532.26,-48.8 532.26,-84.8"/>
<text text-anchor="middle" x="489" y="-62.6" font-family="Times,serif" font-size="14.00">CoreModule</text>
</g>
<!-- CoreModule&#45;&gt;ServerModule -->
<g id="edge2" class="edge">
<title>CoreModule&#45;&gt;ServerModule</title>
<path fill="none" stroke="black" d="M489,-84.82C489,-102.17 489,-125.8 489,-125.8 489,-125.8 389.26,-125.8 389.26,-125.8"/>
<polygon fill="black" stroke="black" points="389.26,-122.3 379.26,-125.8 389.26,-129.3 389.26,-122.3"/>
</g>
<!-- MailModule -->
<g id="node3" class="node">
<title>MailModule</title>
<polygon fill="#8dd3c7" stroke="black" points="427.99,-84.8 424.99,-88.8 403.99,-88.8 400.99,-84.8 342.01,-84.8 342.01,-48.8 427.99,-48.8 427.99,-84.8"/>
<text text-anchor="middle" x="385" y="-62.6" font-family="Times,serif" font-size="14.00">MailModule</text>
</g>
<!-- MailModule&#45;&gt;ServerModule -->
<g id="edge3" class="edge">
<title>MailModule&#45;&gt;ServerModule</title>
<path fill="none" stroke="black" d="M360.52,-84.91C360.52,-84.91 360.52,-103.79 360.52,-103.79"/>
<polygon fill="black" stroke="black" points="357.02,-103.79 360.52,-113.79 364.02,-103.79 357.02,-103.79"/>
</g>
<!-- NewsModule -->
<g id="node4" class="node">
<title>NewsModule</title>
<polygon fill="#8dd3c7" stroke="black" points="323.92,-84.8 320.92,-88.8 299.92,-88.8 296.92,-84.8 232.08,-84.8 232.08,-48.8 323.92,-48.8 323.92,-84.8"/>
<text text-anchor="middle" x="278" y="-62.6" font-family="Times,serif" font-size="14.00">NewsModule</text>
</g>
<!-- NewsModule&#45;&gt;ServerModule -->
<g id="edge4" class="edge">
<title>NewsModule&#45;&gt;ServerModule</title>
<path fill="none" stroke="black" d="M303.33,-84.91C303.33,-84.91 303.33,-103.79 303.33,-103.79"/>
<polygon fill="black" stroke="black" points="299.83,-103.79 303.33,-113.79 306.83,-103.79 299.83,-103.79"/>
</g>
<!-- TaskModule -->
<g id="node5" class="node">
<title>TaskModule</title>
<polygon fill="#8dd3c7" stroke="black" points="214.26,-84.8 211.26,-88.8 190.26,-88.8 187.26,-84.8 127.74,-84.8 127.74,-48.8 214.26,-48.8 214.26,-84.8"/>
<text text-anchor="middle" x="171" y="-62.6" font-family="Times,serif" font-size="14.00">TaskModule</text>
</g>
<!-- TaskModule&#45;&gt;ServerModule -->
<g id="edge5" class="edge">
<title>TaskModule&#45;&gt;ServerModule</title>
<path fill="none" stroke="black" d="M171,-84.82C171,-102.17 171,-125.8 171,-125.8 171,-125.8 272.56,-125.8 272.56,-125.8"/>
<polygon fill="black" stroke="black" points="272.56,-129.3 282.56,-125.8 272.56,-122.3 272.56,-129.3"/>
</g>
<!-- UserModule -->
<g id="node6" class="node">
<title>UserModule</title>
<polygon fill="#8dd3c7" stroke="black" points="109.98,-84.8 106.98,-88.8 85.98,-88.8 82.98,-84.8 24.02,-84.8 24.02,-48.8 109.98,-48.8 109.98,-84.8"/>
<text text-anchor="middle" x="67" y="-62.6" font-family="Times,serif" font-size="14.00">UserModule</text>
</g>
<!-- UserModule&#45;&gt;ServerModule -->
<g id="edge6" class="edge">
<title>UserModule&#45;&gt;ServerModule</title>
<path fill="none" stroke="black" d="M67,-85.08C67,-106.12 67,-137.8 67,-137.8 67,-137.8 272.89,-137.8 272.89,-137.8"/>
<polygon fill="black" stroke="black" points="272.89,-141.3 282.89,-137.8 272.89,-134.3 272.89,-141.3"/>
</g>
</g>
</svg>
