<?xml version="1.0" encoding="UTF-8" standalone="no"?>
<!DOCTYPE svg PUBLIC "-//W3C//DTD SVG 1.1//EN"
 "http://www.w3.org/Graphics/SVG/1.1/DTD/svg11.dtd">
<!-- Generated by graphviz version 2.47.0 (20210316.0004)
 -->
<!-- Title: dependencies Pages: 1 -->
<svg width="726pt" height="211pt"
 viewBox="0.00 0.00 726.00 211.00" xmlns="http://www.w3.org/2000/svg" xmlns:xlink="http://www.w3.org/1999/xlink">
<g id="graph0" class="graph" transform="scale(1 1) rotate(0) translate(4 207)">
<title>dependencies</title>
<polygon fill="white" stroke="transparent" points="-4,4 -4,-207 722,-207 722,4 -4,4"/>
<text text-anchor="start" x="338.01" y="-42.4" font-family="sans-serif" font-weight="bold" font-size="14.00">Legend</text>
<polygon fill="#ffffb3" stroke="transparent" points="125,-10 125,-30 145,-30 145,-10 125,-10"/>
<text text-anchor="start" x="148.63" y="-15.4" font-family="sans-serif" font-size="14.00"> &#160;Declarations</text>
<polygon fill="#8dd3c7" stroke="transparent" points="238,-10 238,-30 258,-30 258,-10 238,-10"/>
<text text-anchor="start" x="261.73" y="-15.4" font-family="sans-serif" font-size="14.00"> &#160;Module</text>
<polygon fill="#80b1d3" stroke="transparent" points="324,-10 324,-30 344,-30 344,-10 324,-10"/>
<text text-anchor="start" x="347.78" y="-15.4" font-family="sans-serif" font-size="14.00"> &#160;Bootstrap</text>
<polygon fill="#fdb462" stroke="transparent" points="421,-10 421,-30 441,-30 441,-10 421,-10"/>
<text text-anchor="start" x="444.67" y="-15.4" font-family="sans-serif" font-size="14.00"> &#160;Providers</text>
<polygon fill="#fb8072" stroke="transparent" points="517,-10 517,-30 537,-30 537,-10 517,-10"/>
<text text-anchor="start" x="540.73" y="-15.4" font-family="sans-serif" font-size="14.00"> &#160;Exports</text>
<g id="clust1" class="cluster">
<title>cluster_ServerModule</title>
<polygon fill="none" stroke="black" stroke-dasharray="1,5" points="8,-70 8,-195 710,-195 710,-70 8,-70"/>
</g>
<g id="clust6" class="cluster">
<title>cluster_ServerModule_providers</title>
<polygon fill="none" stroke="black" points="556,-78 556,-130 702,-130 702,-78 556,-78"/>
</g>
<g id="clust3" class="cluster">
<title>cluster_ServerModule_imports</title>
<polygon fill="none" stroke="black" points="16,-78 16,-130 548,-130 548,-78 16,-78"/>
</g>
<!-- AuthModule -->
<g id="node1" class="node">
<title>AuthModule</title>
<polygon fill="#8dd3c7" stroke="black" points="539.55,-122 536.55,-126 515.55,-126 512.55,-122 452.45,-122 452.45,-86 539.55,-86 539.55,-122"/>
<text text-anchor="middle" x="496" y="-99.8" font-family="Times,serif" font-size="14.00">AuthModule</text>
</g>
<!-- ServerModule -->
<g id="node6" class="node">
<title>ServerModule</title>
<polygon fill="#8dd3c7" stroke="black" points="385.08,-187 382.08,-191 361.08,-191 358.08,-187 288.92,-187 288.92,-151 385.08,-151 385.08,-187"/>
<text text-anchor="middle" x="337" y="-164.8" font-family="Times,serif" font-size="14.00">ServerModule</text>
</g>
<!-- AuthModule&#45;&gt;ServerModule -->
<g id="edge1" class="edge">
<title>AuthModule&#45;&gt;ServerModule</title>
<path fill="none" stroke="black" d="M496,-122.02C496,-139.37 496,-163 496,-163 496,-163 395.14,-163 395.14,-163"/>
<polygon fill="black" stroke="black" points="395.14,-159.5 385.14,-163 395.14,-166.5 395.14,-159.5"/>
</g>
<!-- CoreModule -->
<g id="node2" class="node">
<title>CoreModule</title>
<polygon fill="#8dd3c7" stroke="black" points="434.26,-122 431.26,-126 410.26,-126 407.26,-122 347.74,-122 347.74,-86 434.26,-86 434.26,-122"/>
<text text-anchor="middle" x="391" y="-99.8" font-family="Times,serif" font-size="14.00">CoreModule</text>
</g>
<!-- CoreModule&#45;&gt;ServerModule -->
<g id="edge2" class="edge">
<title>CoreModule&#45;&gt;ServerModule</title>
<path fill="none" stroke="black" d="M366.33,-122.11C366.33,-122.11 366.33,-140.99 366.33,-140.99"/>
<polygon fill="black" stroke="black" points="362.83,-140.99 366.33,-150.99 369.83,-140.99 362.83,-140.99"/>
</g>
<!-- NewsModule -->
<g id="node3" class="node">
<title>NewsModule</title>
<polygon fill="#8dd3c7" stroke="black" points="329.92,-122 326.92,-126 305.92,-126 302.92,-122 238.08,-122 238.08,-86 329.92,-86 329.92,-122"/>
<text text-anchor="middle" x="284" y="-99.8" font-family="Times,serif" font-size="14.00">NewsModule</text>
</g>
<!-- NewsModule&#45;&gt;ServerModule -->
<g id="edge3" class="edge">
<title>NewsModule&#45;&gt;ServerModule</title>
<path fill="none" stroke="black" d="M309.33,-122.11C309.33,-122.11 309.33,-140.99 309.33,-140.99"/>
<polygon fill="black" stroke="black" points="305.83,-140.99 309.33,-150.99 312.83,-140.99 305.83,-140.99"/>
</g>
<!-- TaskModule -->
<g id="node4" class="node">
<title>TaskModule</title>
<polygon fill="#8dd3c7" stroke="black" points="220.26,-122 217.26,-126 196.26,-126 193.26,-122 133.74,-122 133.74,-86 220.26,-86 220.26,-122"/>
<text text-anchor="middle" x="177" y="-99.8" font-family="Times,serif" font-size="14.00">TaskModule</text>
</g>
<!-- TaskModule&#45;&gt;ServerModule -->
<g id="edge4" class="edge">
<title>TaskModule&#45;&gt;ServerModule</title>
<path fill="none" stroke="black" d="M177,-122.02C177,-139.37 177,-163 177,-163 177,-163 278.56,-163 278.56,-163"/>
<polygon fill="black" stroke="black" points="278.56,-166.5 288.56,-163 278.56,-159.5 278.56,-166.5"/>
</g>
<!-- UsersModule -->
<g id="node5" class="node">
<title>UsersModule</title>
<polygon fill="#8dd3c7" stroke="black" points="115.92,-122 112.92,-126 91.92,-126 88.92,-122 24.08,-122 24.08,-86 115.92,-86 115.92,-122"/>
<text text-anchor="middle" x="70" y="-99.8" font-family="Times,serif" font-size="14.00">UsersModule</text>
</g>
<!-- UsersModule&#45;&gt;ServerModule -->
<g id="edge5" class="edge">
<title>UsersModule&#45;&gt;ServerModule</title>
<path fill="none" stroke="black" d="M70,-122.28C70,-143.32 70,-175 70,-175 70,-175 278.96,-175 278.96,-175"/>
<polygon fill="black" stroke="black" points="278.96,-178.5 288.96,-175 278.96,-171.5 278.96,-178.5"/>
</g>
<!-- ServerService -->
<g id="node7" class="node">
<title>ServerService</title>
<ellipse fill="#fdb462" stroke="black" cx="629" cy="-104" rx="65.38" ry="18"/>
<text text-anchor="middle" x="629" y="-99.8" font-family="Times,serif" font-size="14.00">ServerService</text>
</g>
<!-- ServerService&#45;&gt;ServerModule -->
<g id="edge6" class="edge">
<title>ServerService&#45;&gt;ServerModule</title>
<path fill="none" stroke="black" d="M629,-122.28C629,-143.32 629,-175 629,-175 629,-175 395.22,-175 395.22,-175"/>
<polygon fill="black" stroke="black" points="395.22,-171.5 385.22,-175 395.22,-178.5 395.22,-171.5"/>
</g>
</g>
</svg>
