<?xml version="1.0" encoding="UTF-8" standalone="no"?>
<!DOCTYPE svg PUBLIC "-//W3C//DTD SVG 1.1//EN"
 "http://www.w3.org/Graphics/SVG/1.1/DTD/svg11.dtd">
<!-- Generated by graphviz version 2.47.3 (20210619.1520)
 -->
<!-- Title: dependencies Pages: 1 -->
<svg width="457pt" height="174pt"
 viewBox="0.00 0.00 457.00 173.80" xmlns="http://www.w3.org/2000/svg" xmlns:xlink="http://www.w3.org/1999/xlink">
<g id="graph0" class="graph" transform="scale(1 1) rotate(0) translate(4 169.8)">
<title>dependencies</title>
<polygon fill="white" stroke="transparent" points="-4,4 -4,-169.8 453,-169.8 453,4 -4,4"/>
<text text-anchor="middle" x="224.5" y="-8.2" font-family="sans-serif" font-size="14.00">dependencies</text>
<g id="clust1" class="cluster">
<title>cluster_ServerModule</title>
<polygon fill="none" stroke="black" stroke-dasharray="1,5" points="8,-32.8 8,-157.8 441,-157.8 441,-32.8 8,-32.8"/>
</g>
<g id="clust3" class="cluster">
<title>cluster_ServerModule_imports</title>
<polygon fill="none" stroke="black" points="16,-40.8 16,-92.8 433,-92.8 433,-40.8 16,-40.8"/>
</g>
<!-- AuthModule -->
<g id="node1" class="node">
<title>AuthModule</title>
<polygon fill="#8dd3c7" stroke="black" points="424.55,-84.8 421.55,-88.8 400.55,-88.8 397.55,-84.8 337.45,-84.8 337.45,-48.8 424.55,-48.8 424.55,-84.8"/>
<text text-anchor="middle" x="381" y="-62.6" font-family="Times,serif" font-size="14.00">AuthModule</text>
</g>
<!-- ServerModule -->
<g id="node5" class="node">
<title>ServerModule</title>
<polygon fill="#8dd3c7" stroke="black" points="271.08,-149.8 268.08,-153.8 247.08,-153.8 244.08,-149.8 174.92,-149.8 174.92,-113.8 271.08,-113.8 271.08,-149.8"/>
<text text-anchor="middle" x="223" y="-127.6" font-family="Times,serif" font-size="14.00">ServerModule</text>
</g>
<!-- AuthModule&#45;&gt;ServerModule -->
<g id="edge1" class="edge">
<title>AuthModule&#45;&gt;ServerModule</title>
<path fill="none" stroke="black" d="M381,-84.91C381,-104.14 381,-131.8 381,-131.8 381,-131.8 281.26,-131.8 281.26,-131.8"/>
<polygon fill="black" stroke="black" points="281.26,-128.3 271.26,-131.8 281.26,-135.3 281.26,-128.3"/>
</g>
<!-- CoreModule -->
<g id="node2" class="node">
<title>CoreModule</title>
<polygon fill="#8dd3c7" stroke="black" points="319.26,-84.8 316.26,-88.8 295.26,-88.8 292.26,-84.8 232.74,-84.8 232.74,-48.8 319.26,-48.8 319.26,-84.8"/>
<text text-anchor="middle" x="276" y="-62.6" font-family="Times,serif" font-size="14.00">CoreModule</text>
</g>
<!-- CoreModule&#45;&gt;ServerModule -->
<g id="edge2" class="edge">
<title>CoreModule&#45;&gt;ServerModule</title>
<path fill="none" stroke="black" d="M251.83,-84.91C251.83,-84.91 251.83,-103.79 251.83,-103.79"/>
<polygon fill="black" stroke="black" points="248.33,-103.79 251.83,-113.79 255.33,-103.79 248.33,-103.79"/>
</g>
<!-- TaskModule -->
<g id="node3" class="node">
<title>TaskModule</title>
<polygon fill="#8dd3c7" stroke="black" points="214.26,-84.8 211.26,-88.8 190.26,-88.8 187.26,-84.8 127.74,-84.8 127.74,-48.8 214.26,-48.8 214.26,-84.8"/>
<text text-anchor="middle" x="171" y="-62.6" font-family="Times,serif" font-size="14.00">TaskModule</text>
</g>
<!-- TaskModule&#45;&gt;ServerModule -->
<g id="edge3" class="edge">
<title>TaskModule&#45;&gt;ServerModule</title>
<path fill="none" stroke="black" d="M194.67,-84.91C194.67,-84.91 194.67,-103.79 194.67,-103.79"/>
<polygon fill="black" stroke="black" points="191.17,-103.79 194.67,-113.79 198.17,-103.79 191.17,-103.79"/>
</g>
<!-- UserModule -->
<g id="node4" class="node">
<title>UserModule</title>
<polygon fill="#8dd3c7" stroke="black" points="109.98,-84.8 106.98,-88.8 85.98,-88.8 82.98,-84.8 24.02,-84.8 24.02,-48.8 109.98,-48.8 109.98,-84.8"/>
<text text-anchor="middle" x="67" y="-62.6" font-family="Times,serif" font-size="14.00">UserModule</text>
</g>
<!-- UserModule&#45;&gt;ServerModule -->
<g id="edge4" class="edge">
<title>UserModule&#45;&gt;ServerModule</title>
<path fill="none" stroke="black" d="M67,-84.91C67,-104.14 67,-131.8 67,-131.8 67,-131.8 164.92,-131.8 164.92,-131.8"/>
<polygon fill="black" stroke="black" points="164.92,-135.3 174.92,-131.8 164.92,-128.3 164.92,-135.3"/>
</g>
</g>
</svg>
