<?xml version="1.0" encoding="UTF-8" standalone="no"?>
<!DOCTYPE svg PUBLIC "-//W3C//DTD SVG 1.1//EN"
 "http://www.w3.org/Graphics/SVG/1.1/DTD/svg11.dtd">
<!-- Generated by graphviz version 2.47.3 (20210619.1520)
 -->
<!-- Title: dependencies Pages: 1 -->
<svg width="431pt" height="174pt"
 viewBox="0.00 0.00 431.00 173.80" xmlns="http://www.w3.org/2000/svg" xmlns:xlink="http://www.w3.org/1999/xlink">
<g id="graph0" class="graph" transform="scale(1 1) rotate(0) translate(4 169.8)">
<title>dependencies</title>
<polygon fill="white" stroke="transparent" points="-4,4 -4,-169.8 427,-169.8 427,4 -4,4"/>
<text text-anchor="middle" x="211.5" y="-8.2" font-family="sans-serif" font-size="14.00">dependencies</text>
<g id="clust1" class="cluster">
<title>cluster_TaskModule</title>
<polygon fill="none" stroke="black" stroke-dasharray="1,5" points="8,-32.8 8,-157.8 415,-157.8 415,-32.8 8,-32.8"/>
</g>
<g id="clust6" class="cluster">
<title>cluster_TaskModule_providers</title>
<polygon fill="none" stroke="black" points="16,-40.8 16,-92.8 407,-92.8 407,-40.8 16,-40.8"/>
</g>
<!-- SubmissionRepo -->
<g id="node1" class="node">
<title>SubmissionRepo</title>
<ellipse fill="#fdb462" stroke="black" cx="323" cy="-66.8" rx="76.49" ry="18"/>
<text text-anchor="middle" x="323" y="-62.6" font-family="Times,serif" font-size="14.00">SubmissionRepo</text>
</g>
<!-- TaskModule -->
<g id="node4" class="node">
<title>TaskModule</title>
<polygon fill="#8dd3c7" stroke="black" points="221.26,-149.8 218.26,-153.8 197.26,-153.8 194.26,-149.8 134.74,-149.8 134.74,-113.8 221.26,-113.8 221.26,-149.8"/>
<text text-anchor="middle" x="178" y="-127.6" font-family="Times,serif" font-size="14.00">TaskModule</text>
</g>
<!-- SubmissionRepo&#45;&gt;TaskModule -->
<g id="edge1" class="edge">
<title>SubmissionRepo&#45;&gt;TaskModule</title>
<path fill="none" stroke="black" d="M323,-84.91C323,-104.14 323,-131.8 323,-131.8 323,-131.8 231.5,-131.8 231.5,-131.8"/>
<polygon fill="black" stroke="black" points="231.5,-128.3 221.5,-131.8 231.5,-135.3 231.5,-128.3"/>
</g>
<!-- TaskRepo -->
<g id="node2" class="node">
<title>TaskRepo</title>
<ellipse fill="#fdb462" stroke="black" cx="178" cy="-66.8" rx="50.38" ry="18"/>
<text text-anchor="middle" x="178" y="-62.6" font-family="Times,serif" font-size="14.00">TaskRepo</text>
</g>
<!-- TaskRepo&#45;&gt;TaskModule -->
<g id="edge2" class="edge">
<title>TaskRepo&#45;&gt;TaskModule</title>
<path fill="none" stroke="black" d="M178,-84.91C178,-84.91 178,-103.79 178,-103.79"/>
<polygon fill="black" stroke="black" points="174.5,-103.79 178,-113.79 181.5,-103.79 174.5,-103.79"/>
</g>
<!-- TaskUC -->
<g id="node3" class="node">
<title>TaskUC</title>
<ellipse fill="#fdb462" stroke="black" cx="67" cy="-66.8" rx="43.44" ry="18"/>
<text text-anchor="middle" x="67" y="-62.6" font-family="Times,serif" font-size="14.00">TaskUC</text>
</g>
<!-- TaskUC&#45;&gt;TaskModule -->
<g id="edge3" class="edge">
<title>TaskUC&#45;&gt;TaskModule</title>
<path fill="none" stroke="black" d="M67,-84.91C67,-104.14 67,-131.8 67,-131.8 67,-131.8 124.45,-131.8 124.45,-131.8"/>
<polygon fill="black" stroke="black" points="124.45,-135.3 134.45,-131.8 124.45,-128.3 124.45,-135.3"/>
</g>
</g>
</svg>
