<?xml version="1.0" encoding="UTF-8" standalone="no"?>
<!DOCTYPE svg PUBLIC "-//W3C//DTD SVG 1.1//EN"
 "http://www.w3.org/Graphics/SVG/1.1/DTD/svg11.dtd">
<!-- Generated by graphviz version 2.47.3 (20210619.1520)
 -->
<!-- Title: dependencies Pages: 1 -->
<svg width="673pt" height="174pt"
 viewBox="0.00 0.00 673.00 173.80" xmlns="http://www.w3.org/2000/svg" xmlns:xlink="http://www.w3.org/1999/xlink">
<g id="graph0" class="graph" transform="scale(1 1) rotate(0) translate(4 169.8)">
<title>dependencies</title>
<polygon fill="white" stroke="transparent" points="-4,4 -4,-169.8 669,-169.8 669,4 -4,4"/>
<text text-anchor="middle" x="332.5" y="-8.2" font-family="sans-serif" font-size="14.00">dependencies</text>
<g id="clust1" class="cluster">
<title>cluster_TaskModule</title>
<polygon fill="none" stroke="black" stroke-dasharray="1,5" points="8,-32.8 8,-157.8 657,-157.8 657,-32.8 8,-32.8"/>
</g>
<g id="clust6" class="cluster">
<title>cluster_TaskModule_providers</title>
<polygon fill="none" stroke="black" points="122,-40.8 122,-92.8 649,-92.8 649,-40.8 122,-40.8"/>
</g>
<g id="clust3" class="cluster">
<title>cluster_TaskModule_imports</title>
<polygon fill="none" stroke="black" points="16,-40.8 16,-92.8 114,-92.8 114,-40.8 16,-40.8"/>
</g>
<!-- UserFacade -->
<g id="node1" class="node">
<title>UserFacade</title>
<polygon fill="#8dd3c7" stroke="black" points="106.07,-84.8 103.07,-88.8 82.07,-88.8 79.07,-84.8 23.93,-84.8 23.93,-48.8 106.07,-48.8 106.07,-84.8"/>
<text text-anchor="middle" x="65" y="-62.6" font-family="Times,serif" font-size="14.00">UserFacade</text>
</g>
<!-- TaskModule -->
<g id="node2" class="node">
<title>TaskModule</title>
<polygon fill="#8dd3c7" stroke="black" points="327.26,-149.8 324.26,-153.8 303.26,-153.8 300.26,-149.8 240.74,-149.8 240.74,-113.8 327.26,-113.8 327.26,-149.8"/>
<text text-anchor="middle" x="284" y="-127.6" font-family="Times,serif" font-size="14.00">TaskModule</text>
</g>
<!-- UserFacade&#45;&gt;TaskModule -->
<g id="edge1" class="edge">
<title>UserFacade&#45;&gt;TaskModule</title>
<path fill="none" stroke="black" d="M65,-85.08C65,-106.12 65,-137.8 65,-137.8 65,-137.8 230.73,-137.8 230.73,-137.8"/>
<polygon fill="black" stroke="black" points="230.73,-141.3 240.73,-137.8 230.73,-134.3 230.73,-141.3"/>
</g>
<!-- LessonRepo -->
<g id="node3" class="node">
<title>LessonRepo</title>
<ellipse fill="#fdb462" stroke="black" cx="582" cy="-66.8" rx="58.55" ry="18"/>
<text text-anchor="middle" x="582" y="-62.6" font-family="Times,serif" font-size="14.00">LessonRepo</text>
</g>
<!-- LessonRepo&#45;&gt;TaskModule -->
<g id="edge2" class="edge">
<title>LessonRepo&#45;&gt;TaskModule</title>
<path fill="none" stroke="black" d="M582,-85.08C582,-106.12 582,-137.8 582,-137.8 582,-137.8 337.33,-137.8 337.33,-137.8"/>
<polygon fill="black" stroke="black" points="337.33,-134.3 327.33,-137.8 337.33,-141.3 337.33,-134.3"/>
</g>
<!-- SubmissionRepo -->
<g id="node4" class="node">
<title>SubmissionRepo</title>
<ellipse fill="#fdb462" stroke="black" cx="429" cy="-66.8" rx="76.49" ry="18"/>
<text text-anchor="middle" x="429" y="-62.6" font-family="Times,serif" font-size="14.00">SubmissionRepo</text>
</g>
<!-- SubmissionRepo&#45;&gt;TaskModule -->
<g id="edge3" class="edge">
<title>SubmissionRepo&#45;&gt;TaskModule</title>
<path fill="none" stroke="black" d="M429,-84.82C429,-102.17 429,-125.8 429,-125.8 429,-125.8 337.5,-125.8 337.5,-125.8"/>
<polygon fill="black" stroke="black" points="337.5,-122.3 327.5,-125.8 337.5,-129.3 337.5,-122.3"/>
</g>
<!-- TaskRepo -->
<g id="node5" class="node">
<title>TaskRepo</title>
<ellipse fill="#fdb462" stroke="black" cx="284" cy="-66.8" rx="50.38" ry="18"/>
<text text-anchor="middle" x="284" y="-62.6" font-family="Times,serif" font-size="14.00">TaskRepo</text>
</g>
<!-- TaskRepo&#45;&gt;TaskModule -->
<g id="edge4" class="edge">
<title>TaskRepo&#45;&gt;TaskModule</title>
<path fill="none" stroke="black" d="M284,-84.91C284,-84.91 284,-103.79 284,-103.79"/>
<polygon fill="black" stroke="black" points="280.5,-103.79 284,-113.79 287.5,-103.79 280.5,-103.79"/>
</g>
<!-- TaskUC -->
<g id="node6" class="node">
<title>TaskUC</title>
<ellipse fill="#fdb462" stroke="black" cx="173" cy="-66.8" rx="43.44" ry="18"/>
<text text-anchor="middle" x="173" y="-62.6" font-family="Times,serif" font-size="14.00">TaskUC</text>
</g>
<!-- TaskUC&#45;&gt;TaskModule -->
<g id="edge5" class="edge">
<title>TaskUC&#45;&gt;TaskModule</title>
<path fill="none" stroke="black" d="M173,-84.82C173,-102.17 173,-125.8 173,-125.8 173,-125.8 230.45,-125.8 230.45,-125.8"/>
<polygon fill="black" stroke="black" points="230.45,-129.3 240.45,-125.8 230.45,-122.3 230.45,-129.3"/>
</g>
</g>
</svg>
