<?xml version="1.0" encoding="UTF-8" standalone="no"?>
<!DOCTYPE svg PUBLIC "-//W3C//DTD SVG 1.1//EN"
 "http://www.w3.org/Graphics/SVG/1.1/DTD/svg11.dtd">
<!-- Generated by graphviz version 2.47.0 (20210316.0004)
 -->
<!-- Title: dependencies Pages: 1 -->
<svg width="504pt" height="211pt"
 viewBox="0.00 0.00 504.00 211.00" xmlns="http://www.w3.org/2000/svg" xmlns:xlink="http://www.w3.org/1999/xlink">
<g id="graph0" class="graph" transform="scale(1 1) rotate(0) translate(4 207)">
<title>dependencies</title>
<polygon fill="white" stroke="transparent" points="-4,4 -4,-207 500,-207 500,4 -4,4"/>
<text text-anchor="start" x="227.01" y="-42.4" font-family="sans-serif" font-weight="bold" font-size="14.00">Legend</text>
<polygon fill="#ffffb3" stroke="transparent" points="14,-10 14,-30 34,-30 34,-10 14,-10"/>
<text text-anchor="start" x="37.63" y="-15.4" font-family="sans-serif" font-size="14.00"> &#160;Declarations</text>
<polygon fill="#8dd3c7" stroke="transparent" points="127,-10 127,-30 147,-30 147,-10 127,-10"/>
<text text-anchor="start" x="150.73" y="-15.4" font-family="sans-serif" font-size="14.00"> &#160;Module</text>
<polygon fill="#80b1d3" stroke="transparent" points="213,-10 213,-30 233,-30 233,-10 213,-10"/>
<text text-anchor="start" x="236.78" y="-15.4" font-family="sans-serif" font-size="14.00"> &#160;Bootstrap</text>
<polygon fill="#fdb462" stroke="transparent" points="310,-10 310,-30 330,-30 330,-10 310,-10"/>
<text text-anchor="start" x="333.67" y="-15.4" font-family="sans-serif" font-size="14.00"> &#160;Providers</text>
<polygon fill="#fb8072" stroke="transparent" points="406,-10 406,-30 426,-30 426,-10 406,-10"/>
<text text-anchor="start" x="429.73" y="-15.4" font-family="sans-serif" font-size="14.00"> &#160;Exports</text>
<g id="clust1" class="cluster">
<title>cluster_TaskModule</title>
<polygon fill="none" stroke="black" stroke-dasharray="1,5" points="44.5,-70 44.5,-195 451.5,-195 451.5,-70 44.5,-70"/>
</g>
<g id="clust6" class="cluster">
<title>cluster_TaskModule_providers</title>
<polygon fill="none" stroke="black" points="52.5,-78 52.5,-130 443.5,-130 443.5,-78 52.5,-78"/>
</g>
<!-- SubmissionRepo -->
<g id="node1" class="node">
<title>SubmissionRepo</title>
<ellipse fill="#fdb462" stroke="black" cx="359.5" cy="-104" rx="76.49" ry="18"/>
<text text-anchor="middle" x="359.5" y="-99.8" font-family="Times,serif" font-size="14.00">SubmissionRepo</text>
</g>
<!-- TaskModule -->
<g id="node4" class="node">
<title>TaskModule</title>
<polygon fill="#8dd3c7" stroke="black" points="257.76,-187 254.76,-191 233.76,-191 230.76,-187 171.24,-187 171.24,-151 257.76,-151 257.76,-187"/>
<text text-anchor="middle" x="214.5" y="-164.8" font-family="Times,serif" font-size="14.00">TaskModule</text>
</g>
<!-- SubmissionRepo&#45;&gt;TaskModule -->
<g id="edge1" class="edge">
<title>SubmissionRepo&#45;&gt;TaskModule</title>
<path fill="none" stroke="black" d="M359.5,-122.11C359.5,-141.34 359.5,-169 359.5,-169 359.5,-169 268,-169 268,-169"/>
<polygon fill="black" stroke="black" points="268,-165.5 258,-169 268,-172.5 268,-165.5"/>
</g>
<!-- TaskRepo -->
<g id="node2" class="node">
<title>TaskRepo</title>
<ellipse fill="#fdb462" stroke="black" cx="214.5" cy="-104" rx="50.38" ry="18"/>
<text text-anchor="middle" x="214.5" y="-99.8" font-family="Times,serif" font-size="14.00">TaskRepo</text>
</g>
<!-- TaskRepo&#45;&gt;TaskModule -->
<g id="edge2" class="edge">
<title>TaskRepo&#45;&gt;TaskModule</title>
<path fill="none" stroke="black" d="M214.5,-122.11C214.5,-122.11 214.5,-140.99 214.5,-140.99"/>
<polygon fill="black" stroke="black" points="211,-140.99 214.5,-150.99 218,-140.99 211,-140.99"/>
</g>
<!-- TaskUC -->
<g id="node3" class="node">
<title>TaskUC</title>
<ellipse fill="#fdb462" stroke="black" cx="103.5" cy="-104" rx="43.44" ry="18"/>
<text text-anchor="middle" x="103.5" y="-99.8" font-family="Times,serif" font-size="14.00">TaskUC</text>
</g>
<!-- TaskUC&#45;&gt;TaskModule -->
<g id="edge3" class="edge">
<title>TaskUC&#45;&gt;TaskModule</title>
<path fill="none" stroke="black" d="M103.5,-122.11C103.5,-141.34 103.5,-169 103.5,-169 103.5,-169 160.95,-169 160.95,-169"/>
<polygon fill="black" stroke="black" points="160.95,-172.5 170.95,-169 160.95,-165.5 160.95,-172.5"/>
</g>
</g>
</svg>
