<?xml version="1.0" encoding="UTF-8" standalone="no"?>
<!DOCTYPE svg PUBLIC "-//W3C//DTD SVG 1.1//EN"
 "http://www.w3.org/Graphics/SVG/1.1/DTD/svg11.dtd">
<!-- Generated by graphviz version 2.47.3 (20210619.1520)
 -->
<!-- Title: dependencies Pages: 1 -->
<svg width="584pt" height="247pt"
 viewBox="0.00 0.00 584.00 246.80" xmlns="http://www.w3.org/2000/svg" xmlns:xlink="http://www.w3.org/1999/xlink">
<g id="graph0" class="graph" transform="scale(1 1) rotate(0) translate(4 242.8)">
<title>dependencies</title>
<polygon fill="white" stroke="transparent" points="-4,4 -4,-242.8 580,-242.8 580,4 -4,4"/>
<text text-anchor="middle" x="288" y="-8.2" font-family="sans-serif" font-size="14.00">dependencies</text>
<g id="clust1" class="cluster">
<title>cluster_AuthorizationModule</title>
<polygon fill="none" stroke="black" stroke-dasharray="1,5" points="8,-32.8 8,-230.8 568,-230.8 568,-32.8 8,-32.8"/>
</g>
<g id="clust4" class="cluster">
<title>cluster_AuthorizationModule_exports</title>
<polygon fill="none" stroke="black" points="172,-170.8 172,-222.8 328,-222.8 328,-170.8 172,-170.8"/>
</g>
<g id="clust6" class="cluster">
<title>cluster_AuthorizationModule_providers</title>
<polygon fill="none" stroke="black" points="146,-40.8 146,-92.8 560,-92.8 560,-40.8 146,-40.8"/>
</g>
<g id="clust3" class="cluster">
<title>cluster_AuthorizationModule_imports</title>
<polygon fill="none" stroke="black" points="16,-40.8 16,-92.8 138,-92.8 138,-40.8 16,-40.8"/>
</g>
<!-- FeathersModule -->
<g id="node1" class="node">
<title>FeathersModule</title>
<polygon fill="#8dd3c7" stroke="black" points="130.47,-84.8 127.47,-88.8 106.47,-88.8 103.47,-84.8 23.53,-84.8 23.53,-48.8 130.47,-48.8 130.47,-84.8"/>
<text text-anchor="middle" x="77" y="-62.6" font-family="Times,serif" font-size="14.00">FeathersModule</text>
</g>
<!-- AuthorizationModule -->
<g id="node2" class="node">
<title>AuthorizationModule</title>
<polygon fill="#8dd3c7" stroke="black" points="318.81,-149.8 315.81,-153.8 294.81,-153.8 291.81,-149.8 181.19,-149.8 181.19,-113.8 318.81,-113.8 318.81,-149.8"/>
<text text-anchor="middle" x="250" y="-127.6" font-family="Times,serif" font-size="14.00">AuthorizationModule</text>
</g>
<!-- FeathersModule&#45;&gt;AuthorizationModule -->
<g id="edge1" class="edge">
<title>FeathersModule&#45;&gt;AuthorizationModule</title>
<path fill="none" stroke="black" d="M77,-84.91C77,-104.14 77,-131.8 77,-131.8 77,-131.8 171.13,-131.8 171.13,-131.8"/>
<polygon fill="black" stroke="black" points="171.13,-135.3 181.13,-131.8 171.13,-128.3 171.13,-135.3"/>
</g>
<!-- AuthorizationService  -->
<g id="node3" class="node">
<title>AuthorizationService </title>
<polygon fill="#fb8072" stroke="black" points="319.74,-214.8 180.26,-214.8 180.26,-178.8 319.74,-178.8 319.74,-214.8"/>
<text text-anchor="middle" x="250" y="-192.6" font-family="Times,serif" font-size="14.00">AuthorizationService </text>
</g>
<!-- AuthorizationModule&#45;&gt;AuthorizationService  -->
<g id="edge2" class="edge">
<title>AuthorizationModule&#45;&gt;AuthorizationService </title>
<path fill="none" stroke="black" stroke-dasharray="5,2" d="M250,-149.91C250,-149.91 250,-168.79 250,-168.79"/>
<polygon fill="black" stroke="black" points="246.5,-168.79 250,-178.79 253.5,-168.79 246.5,-168.79"/>
</g>
<!-- AuthorizationService -->
<g id="node4" class="node">
<title>AuthorizationService</title>
<ellipse fill="#fdb462" stroke="black" cx="458" cy="-66.8" rx="93.76" ry="18"/>
<text text-anchor="middle" x="458" y="-62.6" font-family="Times,serif" font-size="14.00">AuthorizationService</text>
</g>
<!-- AuthorizationService&#45;&gt;AuthorizationModule -->
<g id="edge3" class="edge">
<title>AuthorizationService&#45;&gt;AuthorizationModule</title>
<path fill="none" stroke="black" d="M458,-84.91C458,-104.14 458,-131.8 458,-131.8 458,-131.8 328.68,-131.8 328.68,-131.8"/>
<polygon fill="black" stroke="black" points="328.68,-128.3 318.68,-131.8 328.68,-135.3 328.68,-128.3"/>
</g>
<!-- FeathersAuthProvider -->
<g id="node5" class="node">
<title>FeathersAuthProvider</title>
<ellipse fill="#fdb462" stroke="black" cx="250" cy="-66.8" rx="96.13" ry="18"/>
<text text-anchor="middle" x="250" y="-62.6" font-family="Times,serif" font-size="14.00">FeathersAuthProvider</text>
</g>
<!-- FeathersAuthProvider&#45;&gt;AuthorizationModule -->
<g id="edge4" class="edge">
<title>FeathersAuthProvider&#45;&gt;AuthorizationModule</title>
<path fill="none" stroke="black" d="M250,-84.91C250,-84.91 250,-103.79 250,-103.79"/>
<polygon fill="black" stroke="black" points="246.5,-103.79 250,-113.79 253.5,-103.79 246.5,-103.79"/>
</g>
</g>
</svg>
