<?xml version="1.0" encoding="UTF-8" standalone="no"?>
<!DOCTYPE svg PUBLIC "-//W3C//DTD SVG 1.1//EN"
 "http://www.w3.org/Graphics/SVG/1.1/DTD/svg11.dtd">
<!-- Generated by graphviz version 2.47.3 (20210619.1520)
 -->
<!-- Title: dependencies Pages: 1 -->
<svg width="584pt" height="247pt"
 viewBox="0.00 0.00 584.00 246.80" xmlns="http://www.w3.org/2000/svg" xmlns:xlink="http://www.w3.org/1999/xlink">
<g id="graph0" class="graph" transform="scale(1 1) rotate(0) translate(4 242.8)">
<title>dependencies</title>
<polygon fill="white" stroke="transparent" points="-4,4 -4,-242.8 580,-242.8 580,4 -4,4"/>
<text text-anchor="middle" x="288" y="-8.2" font-family="sans-serif" font-size="14.00">dependencies</text>
<g id="clust1" class="cluster">
<title>cluster_AuthorizationModule</title>
<polygon fill="none" stroke="black" stroke-dasharray="1,5" points="8,-32.8 8,-230.8 568,-230.8 568,-32.8 8,-32.8"/>
</g>
<g id="clust4" class="cluster">
<title>cluster_AuthorizationModule_exports</title>
<polygon fill="none" stroke="black" points="250,-170.8 250,-222.8 406,-222.8 406,-170.8 250,-170.8"/>
</g>
<g id="clust3" class="cluster">
<title>cluster_AuthorizationModule_imports</title>
<polygon fill="none" stroke="black" points="438,-40.8 438,-92.8 560,-92.8 560,-40.8 438,-40.8"/>
</g>
<g id="clust6" class="cluster">
<title>cluster_AuthorizationModule_providers</title>
<polygon fill="none" stroke="black" points="16,-40.8 16,-92.8 430,-92.8 430,-40.8 16,-40.8"/>
</g>
<!-- FeathersModule -->
<g id="node1" class="node">
<title>FeathersModule</title>
<polygon fill="#8dd3c7" stroke="black" points="552.47,-84.8 549.47,-88.8 528.47,-88.8 525.47,-84.8 445.53,-84.8 445.53,-48.8 552.47,-48.8 552.47,-84.8"/>
<text text-anchor="middle" x="499" y="-62.6" font-family="Times,serif" font-size="14.00">FeathersModule</text>
</g>
<!-- AuthorizationModule -->
<g id="node2" class="node">
<title>AuthorizationModule</title>
<polygon fill="#8dd3c7" stroke="black" points="396.81,-149.8 393.81,-153.8 372.81,-153.8 369.81,-149.8 259.19,-149.8 259.19,-113.8 396.81,-113.8 396.81,-149.8"/>
<text text-anchor="middle" x="328" y="-127.6" font-family="Times,serif" font-size="14.00">AuthorizationModule</text>
</g>
<!-- FeathersModule&#45;&gt;AuthorizationModule -->
<g id="edge1" class="edge">
<title>FeathersModule&#45;&gt;AuthorizationModule</title>
<path fill="none" stroke="black" d="M499,-84.91C499,-104.14 499,-131.8 499,-131.8 499,-131.8 407.06,-131.8 407.06,-131.8"/>
<polygon fill="black" stroke="black" points="407.06,-128.3 397.06,-131.8 407.06,-135.3 407.06,-128.3"/>
</g>
<!-- AuthorizationService  -->
<g id="node3" class="node">
<title>AuthorizationService </title>
<polygon fill="#fb8072" stroke="black" points="397.74,-214.8 258.26,-214.8 258.26,-178.8 397.74,-178.8 397.74,-214.8"/>
<text text-anchor="middle" x="328" y="-192.6" font-family="Times,serif" font-size="14.00">AuthorizationService </text>
</g>
<!-- AuthorizationModule&#45;&gt;AuthorizationService  -->
<g id="edge2" class="edge">
<title>AuthorizationModule&#45;&gt;AuthorizationService </title>
<path fill="none" stroke="black" stroke-dasharray="5,2" d="M328,-149.91C328,-149.91 328,-168.79 328,-168.79"/>
<polygon fill="black" stroke="black" points="324.5,-168.79 328,-178.79 331.5,-168.79 324.5,-168.79"/>
</g>
<!-- AuthorizationService -->
<g id="node4" class="node">
<title>AuthorizationService</title>
<ellipse fill="#fdb462" stroke="black" cx="328" cy="-66.8" rx="93.76" ry="18"/>
<text text-anchor="middle" x="328" y="-62.6" font-family="Times,serif" font-size="14.00">AuthorizationService</text>
</g>
<!-- AuthorizationService&#45;&gt;AuthorizationModule -->
<g id="edge3" class="edge">
<title>AuthorizationService&#45;&gt;AuthorizationModule</title>
<path fill="none" stroke="black" d="M328,-84.91C328,-84.91 328,-103.79 328,-103.79"/>
<polygon fill="black" stroke="black" points="324.5,-103.79 328,-113.79 331.5,-103.79 324.5,-103.79"/>
</g>
<!-- FeathersAuthProvider -->
<g id="node5" class="node">
<title>FeathersAuthProvider</title>
<ellipse fill="#fdb462" stroke="black" cx="120" cy="-66.8" rx="96.13" ry="18"/>
<text text-anchor="middle" x="120" y="-62.6" font-family="Times,serif" font-size="14.00">FeathersAuthProvider</text>
</g>
<!-- FeathersAuthProvider&#45;&gt;AuthorizationModule -->
<g id="edge4" class="edge">
<title>FeathersAuthProvider&#45;&gt;AuthorizationModule</title>
<path fill="none" stroke="black" d="M120,-84.91C120,-104.14 120,-131.8 120,-131.8 120,-131.8 249.32,-131.8 249.32,-131.8"/>
<polygon fill="black" stroke="black" points="249.32,-135.3 259.32,-131.8 249.32,-128.3 249.32,-135.3"/>
</g>
</g>
</svg>
