<?xml version="1.0" encoding="UTF-8" standalone="no"?>
<!DOCTYPE svg PUBLIC "-//W3C//DTD SVG 1.1//EN"
 "http://www.w3.org/Graphics/SVG/1.1/DTD/svg11.dtd">
<!-- Generated by graphviz version 2.47.0 (20210316.0004)
 -->
<!-- Title: dependencies Pages: 1 -->
<svg width="504pt" height="284pt"
 viewBox="0.00 0.00 504.00 284.00" xmlns="http://www.w3.org/2000/svg" xmlns:xlink="http://www.w3.org/1999/xlink">
<g id="graph0" class="graph" transform="scale(1 1) rotate(0) translate(4 280)">
<title>dependencies</title>
<polygon fill="white" stroke="transparent" points="-4,4 -4,-280 500,-280 500,4 -4,4"/>
<text text-anchor="start" x="227.01" y="-42.4" font-family="sans-serif" font-weight="bold" font-size="14.00">Legend</text>
<polygon fill="#ffffb3" stroke="transparent" points="14,-10 14,-30 34,-30 34,-10 14,-10"/>
<text text-anchor="start" x="37.63" y="-15.4" font-family="sans-serif" font-size="14.00"> &#160;Declarations</text>
<polygon fill="#8dd3c7" stroke="transparent" points="127,-10 127,-30 147,-30 147,-10 127,-10"/>
<text text-anchor="start" x="150.73" y="-15.4" font-family="sans-serif" font-size="14.00"> &#160;Module</text>
<polygon fill="#80b1d3" stroke="transparent" points="213,-10 213,-30 233,-30 233,-10 213,-10"/>
<text text-anchor="start" x="236.78" y="-15.4" font-family="sans-serif" font-size="14.00"> &#160;Bootstrap</text>
<polygon fill="#fdb462" stroke="transparent" points="310,-10 310,-30 330,-30 330,-10 310,-10"/>
<text text-anchor="start" x="333.67" y="-15.4" font-family="sans-serif" font-size="14.00"> &#160;Providers</text>
<polygon fill="#fb8072" stroke="transparent" points="406,-10 406,-30 426,-30 426,-10 406,-10"/>
<text text-anchor="start" x="429.73" y="-15.4" font-family="sans-serif" font-size="14.00"> &#160;Exports</text>
<g id="clust1" class="cluster">
<title>cluster_AuthModule</title>
<polygon fill="none" stroke="black" stroke-dasharray="1,5" points="49,-70 49,-268 447,-268 447,-70 49,-70"/>
</g>
<g id="clust3" class="cluster">
<title>cluster_AuthModule_imports</title>
<polygon fill="none" stroke="black" points="331,-78 331,-130 439,-130 439,-78 331,-78"/>
</g>
<g id="clust6" class="cluster">
<title>cluster_AuthModule_providers</title>
<polygon fill="none" stroke="black" points="57,-78 57,-130 323,-130 323,-78 57,-78"/>
</g>
<g id="clust4" class="cluster">
<title>cluster_AuthModule_exports</title>
<polygon fill="none" stroke="black" points="203,-208 203,-260 309,-260 309,-208 203,-208"/>
</g>
<!-- UsersModule -->
<g id="node1" class="node">
<title>UsersModule</title>
<polygon fill="#8dd3c7" stroke="black" points="430.92,-122 427.92,-126 406.92,-126 403.92,-122 339.08,-122 339.08,-86 430.92,-86 430.92,-122"/>
<text text-anchor="middle" x="385" y="-99.8" font-family="Times,serif" font-size="14.00">UsersModule</text>
</g>
<!-- AuthModule -->
<g id="node2" class="node">
<title>AuthModule</title>
<polygon fill="#8dd3c7" stroke="black" points="299.55,-187 296.55,-191 275.55,-191 272.55,-187 212.45,-187 212.45,-151 299.55,-151 299.55,-187"/>
<text text-anchor="middle" x="256" y="-164.8" font-family="Times,serif" font-size="14.00">AuthModule</text>
</g>
<!-- UsersModule&#45;&gt;AuthModule -->
<g id="edge1" class="edge">
<title>UsersModule&#45;&gt;AuthModule</title>
<path fill="none" stroke="black" d="M385,-122.11C385,-141.34 385,-169 385,-169 385,-169 309.67,-169 309.67,-169"/>
<polygon fill="black" stroke="black" points="309.67,-165.5 299.67,-169 309.67,-172.5 309.67,-165.5"/>
</g>
<!-- AuthService  -->
<g id="node3" class="node">
<title>AuthService </title>
<polygon fill="#fb8072" stroke="black" points="300.98,-252 211.02,-252 211.02,-216 300.98,-216 300.98,-252"/>
<text text-anchor="middle" x="256" y="-229.8" font-family="Times,serif" font-size="14.00">AuthService </text>
</g>
<!-- AuthModule&#45;&gt;AuthService  -->
<g id="edge2" class="edge">
<title>AuthModule&#45;&gt;AuthService </title>
<path fill="none" stroke="black" stroke-dasharray="5,2" d="M256,-187.11C256,-187.11 256,-205.99 256,-205.99"/>
<polygon fill="black" stroke="black" points="252.5,-205.99 256,-215.99 259.5,-205.99 252.5,-205.99"/>
</g>
<!-- AuthService -->
<g id="node4" class="node">
<title>AuthService</title>
<ellipse fill="#fdb462" stroke="black" cx="256" cy="-104" rx="59.11" ry="18"/>
<text text-anchor="middle" x="256" y="-99.8" font-family="Times,serif" font-size="14.00">AuthService</text>
</g>
<!-- AuthService&#45;&gt;AuthModule -->
<g id="edge3" class="edge">
<title>AuthService&#45;&gt;AuthModule</title>
<path fill="none" stroke="black" d="M256,-122.11C256,-122.11 256,-140.99 256,-140.99"/>
<polygon fill="black" stroke="black" points="252.5,-140.99 256,-150.99 259.5,-140.99 252.5,-140.99"/>
</g>
<!-- JwtStrategy -->
<g id="node5" class="node">
<title>JwtStrategy</title>
<ellipse fill="#fdb462" stroke="black" cx="122" cy="-104" rx="56.76" ry="18"/>
<text text-anchor="middle" x="122" y="-99.8" font-family="Times,serif" font-size="14.00">JwtStrategy</text>
</g>
<!-- JwtStrategy&#45;&gt;AuthModule -->
<g id="edge4" class="edge">
<title>JwtStrategy&#45;&gt;AuthModule</title>
<path fill="none" stroke="black" d="M122,-122.11C122,-141.34 122,-169 122,-169 122,-169 202.12,-169 202.12,-169"/>
<polygon fill="black" stroke="black" points="202.12,-172.5 212.12,-169 202.12,-165.5 202.12,-172.5"/>
</g>
</g>
</svg>
