<?xml version="1.0" encoding="UTF-8" standalone="no"?>
<!DOCTYPE svg PUBLIC "-//W3C//DTD SVG 1.1//EN"
 "http://www.w3.org/Graphics/SVG/1.1/DTD/svg11.dtd">
<!-- Generated by graphviz version 2.47.0 (20210316.0004)
 -->
<!-- Title: dependencies Pages: 1 -->
<svg width="504pt" height="284pt"
 viewBox="0.00 0.00 504.00 284.00" xmlns="http://www.w3.org/2000/svg" xmlns:xlink="http://www.w3.org/1999/xlink">
<g id="graph0" class="graph" transform="scale(1 1) rotate(0) translate(4 280)">
<title>dependencies</title>
<polygon fill="white" stroke="transparent" points="-4,4 -4,-280 500,-280 500,4 -4,4"/>
<text text-anchor="start" x="227.01" y="-42.4" font-family="sans-serif" font-weight="bold" font-size="14.00">Legend</text>
<polygon fill="#ffffb3" stroke="transparent" points="14,-10 14,-30 34,-30 34,-10 14,-10"/>
<text text-anchor="start" x="37.63" y="-15.4" font-family="sans-serif" font-size="14.00"> &#160;Declarations</text>
<polygon fill="#8dd3c7" stroke="transparent" points="127,-10 127,-30 147,-30 147,-10 127,-10"/>
<text text-anchor="start" x="150.73" y="-15.4" font-family="sans-serif" font-size="14.00"> &#160;Module</text>
<polygon fill="#80b1d3" stroke="transparent" points="213,-10 213,-30 233,-30 233,-10 213,-10"/>
<text text-anchor="start" x="236.78" y="-15.4" font-family="sans-serif" font-size="14.00"> &#160;Bootstrap</text>
<polygon fill="#fdb462" stroke="transparent" points="310,-10 310,-30 330,-30 330,-10 310,-10"/>
<text text-anchor="start" x="333.67" y="-15.4" font-family="sans-serif" font-size="14.00"> &#160;Providers</text>
<polygon fill="#fb8072" stroke="transparent" points="406,-10 406,-30 426,-30 426,-10 406,-10"/>
<text text-anchor="start" x="429.73" y="-15.4" font-family="sans-serif" font-size="14.00"> &#160;Exports</text>
<g id="clust1" class="cluster">
<title>cluster_NewsModule</title>
<polygon fill="none" stroke="black" stroke-dasharray="1,5" points="44.5,-70 44.5,-268 451.5,-268 451.5,-70 44.5,-70"/>
</g>
<g id="clust3" class="cluster">
<title>cluster_NewsModule_imports</title>
<polygon fill="none" stroke="black" points="289.5,-78 289.5,-130 443.5,-130 443.5,-78 289.5,-78"/>
</g>
<g id="clust4" class="cluster">
<title>cluster_NewsModule_exports</title>
<polygon fill="none" stroke="black" points="178.5,-208 178.5,-260 262.5,-260 262.5,-208 178.5,-208"/>
</g>
<g id="clust6" class="cluster">
<title>cluster_NewsModule_providers</title>
<polygon fill="none" stroke="black" points="52.5,-78 52.5,-130 281.5,-130 281.5,-78 52.5,-78"/>
</g>
<!-- AuthorizationModule -->
<g id="node1" class="node">
<title>AuthorizationModule</title>
<polygon fill="#8dd3c7" stroke="black" points="435.31,-122 432.31,-126 411.31,-126 408.31,-122 297.69,-122 297.69,-86 435.31,-86 435.31,-122"/>
<text text-anchor="middle" x="366.5" y="-99.8" font-family="Times,serif" font-size="14.00">AuthorizationModule</text>
</g>
<!-- NewsModule -->
<g id="node2" class="node">
<title>NewsModule</title>
<polygon fill="#8dd3c7" stroke="black" points="266.42,-187 263.42,-191 242.42,-191 239.42,-187 174.58,-187 174.58,-151 266.42,-151 266.42,-187"/>
<text text-anchor="middle" x="220.5" y="-164.8" font-family="Times,serif" font-size="14.00">NewsModule</text>
</g>
<!-- AuthorizationModule&#45;&gt;NewsModule -->
<g id="edge1" class="edge">
<title>AuthorizationModule&#45;&gt;NewsModule</title>
<path fill="none" stroke="black" d="M366.5,-122.11C366.5,-141.34 366.5,-169 366.5,-169 366.5,-169 276.29,-169 276.29,-169"/>
<polygon fill="black" stroke="black" points="276.29,-165.5 266.29,-169 276.29,-172.5 276.29,-165.5"/>
</g>
<!-- NewsUc  -->
<g id="node3" class="node">
<title>NewsUc </title>
<polygon fill="#fb8072" stroke="black" points="254.19,-252 186.81,-252 186.81,-216 254.19,-216 254.19,-252"/>
<text text-anchor="middle" x="220.5" y="-229.8" font-family="Times,serif" font-size="14.00">NewsUc </text>
</g>
<!-- NewsModule&#45;&gt;NewsUc  -->
<g id="edge2" class="edge">
<title>NewsModule&#45;&gt;NewsUc </title>
<path fill="none" stroke="black" stroke-dasharray="5,2" d="M220.5,-187.11C220.5,-187.11 220.5,-205.99 220.5,-205.99"/>
<polygon fill="black" stroke="black" points="217,-205.99 220.5,-215.99 224,-205.99 217,-205.99"/>
</g>
<!-- NewsRepo -->
<g id="node4" class="node">
<title>NewsRepo</title>
<ellipse fill="#fdb462" stroke="black" cx="220.5" cy="-104" rx="53.31" ry="18"/>
<text text-anchor="middle" x="220.5" y="-99.8" font-family="Times,serif" font-size="14.00">NewsRepo</text>
</g>
<!-- NewsRepo&#45;&gt;NewsModule -->
<g id="edge3" class="edge">
<title>NewsRepo&#45;&gt;NewsModule</title>
<path fill="none" stroke="black" d="M220.5,-122.11C220.5,-122.11 220.5,-140.99 220.5,-140.99"/>
<polygon fill="black" stroke="black" points="217,-140.99 220.5,-150.99 224,-140.99 217,-140.99"/>
</g>
<!-- NewsUc -->
<g id="node5" class="node">
<title>NewsUc</title>
<ellipse fill="#fdb462" stroke="black" cx="104.5" cy="-104" rx="44.06" ry="18"/>
<text text-anchor="middle" x="104.5" y="-99.8" font-family="Times,serif" font-size="14.00">NewsUc</text>
</g>
<!-- NewsUc&#45;&gt;NewsModule -->
<g id="edge4" class="edge">
<title>NewsUc&#45;&gt;NewsModule</title>
<path fill="none" stroke="black" d="M104.5,-122.11C104.5,-141.34 104.5,-169 104.5,-169 104.5,-169 164.65,-169 164.65,-169"/>
<polygon fill="black" stroke="black" points="164.65,-172.5 174.65,-169 164.65,-165.5 164.65,-172.5"/>
</g>
</g>
</svg>
