<?xml version="1.0" encoding="UTF-8" standalone="no"?>
<!DOCTYPE svg PUBLIC "-//W3C//DTD SVG 1.1//EN"
 "http://www.w3.org/Graphics/SVG/1.1/DTD/svg11.dtd">
<!-- Generated by graphviz version 2.47.3 (20210619.1520)
 -->
<!-- Title: dependencies Pages: 1 -->
<svg width="538pt" height="174pt"
 viewBox="0.00 0.00 538.00 173.80" xmlns="http://www.w3.org/2000/svg" xmlns:xlink="http://www.w3.org/1999/xlink">
<g id="graph0" class="graph" transform="scale(1 1) rotate(0) translate(4 169.8)">
<title>dependencies</title>
<polygon fill="white" stroke="transparent" points="-4,4 -4,-169.8 534,-169.8 534,4 -4,4"/>
<text text-anchor="middle" x="265" y="-8.2" font-family="sans-serif" font-size="14.00">dependencies</text>
<g id="clust1" class="cluster">
<title>cluster_CoreModule</title>
<polygon fill="none" stroke="black" stroke-dasharray="1,5" points="8,-32.8 8,-157.8 522,-157.8 522,-32.8 8,-32.8"/>
</g>
<g id="clust3" class="cluster">
<title>cluster_CoreModule_imports</title>
<polygon fill="none" stroke="black" points="16,-40.8 16,-92.8 514,-92.8 514,-40.8 16,-40.8"/>
</g>
<!-- ErrorModule -->
<g id="node1" class="node">
<title>ErrorModule</title>
<polygon fill="#8dd3c7" stroke="black" points="505.58,-84.8 502.58,-88.8 481.58,-88.8 478.58,-84.8 416.42,-84.8 416.42,-48.8 505.58,-48.8 505.58,-84.8"/>
<text text-anchor="middle" x="461" y="-62.6" font-family="Times,serif" font-size="14.00">ErrorModule</text>
</g>
<!-- CoreModule -->
<g id="node5" class="node">
<title>CoreModule</title>
<polygon fill="#8dd3c7" stroke="black" points="317.26,-149.8 314.26,-153.8 293.26,-153.8 290.26,-149.8 230.74,-149.8 230.74,-113.8 317.26,-113.8 317.26,-149.8"/>
<text text-anchor="middle" x="274" y="-127.6" font-family="Times,serif" font-size="14.00">CoreModule</text>
</g>
<!-- ErrorModule&#45;&gt;CoreModule -->
<g id="edge1" class="edge">
<title>ErrorModule&#45;&gt;CoreModule</title>
<path fill="none" stroke="black" d="M461,-84.91C461,-104.14 461,-131.8 461,-131.8 461,-131.8 327.37,-131.8 327.37,-131.8"/>
<polygon fill="black" stroke="black" points="327.37,-128.3 317.37,-131.8 327.37,-135.3 327.37,-128.3"/>
</g>
<!-- InterceptorModule -->
<g id="node2" class="node">
<title>InterceptorModule</title>
<polygon fill="#8dd3c7" stroke="black" points="398.46,-84.8 395.46,-88.8 374.46,-88.8 371.46,-84.8 277.54,-84.8 277.54,-48.8 398.46,-48.8 398.46,-84.8"/>
<text text-anchor="middle" x="338" y="-62.6" font-family="Times,serif" font-size="14.00">InterceptorModule</text>
</g>
<!-- InterceptorModule&#45;&gt;CoreModule -->
<g id="edge2" class="edge">
<title>InterceptorModule&#45;&gt;CoreModule</title>
<path fill="none" stroke="black" d="M297.45,-84.91C297.45,-84.91 297.45,-103.79 297.45,-103.79"/>
<polygon fill="black" stroke="black" points="293.95,-103.79 297.45,-113.79 300.95,-103.79 293.95,-103.79"/>
</g>
<!-- LoggerModule -->
<g id="node3" class="node">
<title>LoggerModule</title>
<polygon fill="#8dd3c7" stroke="black" points="259.98,-84.8 256.98,-88.8 235.98,-88.8 232.98,-84.8 160.02,-84.8 160.02,-48.8 259.98,-48.8 259.98,-84.8"/>
<text text-anchor="middle" x="210" y="-62.6" font-family="Times,serif" font-size="14.00">LoggerModule</text>
</g>
<!-- LoggerModule&#45;&gt;CoreModule -->
<g id="edge3" class="edge">
<title>LoggerModule&#45;&gt;CoreModule</title>
<path fill="none" stroke="black" d="M245.3,-84.91C245.3,-84.91 245.3,-103.79 245.3,-103.79"/>
<polygon fill="black" stroke="black" points="241.8,-103.79 245.3,-113.79 248.8,-103.79 241.8,-103.79"/>
</g>
<!-- ValidationModule -->
<g id="node4" class="node">
<title>ValidationModule</title>
<polygon fill="#8dd3c7" stroke="black" points="142.15,-84.8 139.15,-88.8 118.15,-88.8 115.15,-84.8 23.85,-84.8 23.85,-48.8 142.15,-48.8 142.15,-84.8"/>
<text text-anchor="middle" x="83" y="-62.6" font-family="Times,serif" font-size="14.00">ValidationModule</text>
</g>
<!-- ValidationModule&#45;&gt;CoreModule -->
<g id="edge4" class="edge">
<title>ValidationModule&#45;&gt;CoreModule</title>
<path fill="none" stroke="black" d="M83,-84.91C83,-104.14 83,-131.8 83,-131.8 83,-131.8 220.66,-131.8 220.66,-131.8"/>
<polygon fill="black" stroke="black" points="220.66,-135.3 230.66,-131.8 220.66,-128.3 220.66,-135.3"/>
</g>
</g>
</svg>
